<?xml version="1.0" encoding="UTF-8"?>
<svg xmlns="http://www.w3.org/2000/svg" width="218" height="218" viewBox="0 0 218 218" fill="none">
  <g opacity="0.45">
    <path d="M116.06 10.63C114.991 10.9533 114.375 11.2889 113.446 12.0806C111.725 13.5576 110.256 15.7751 109.404 18.1948C108.948 19.5088 108.689 21.0706 108.802 21.8806C108.923 22.7519 109.595 24.6224 111.173 28.5186C112.049 30.6861 112.854 32.7884 112.975 33.2094L113.192 33.9672L113.359 33.3687C113.852 31.6869 113.639 28.3517 112.838 25.3733C112.533 24.2524 112.246 22.8163 112.083 21.5506C111.77 19.2925 111.843 18.4693 112.43 17.2873C112.783 16.5879 113.683 15.8626 114.443 15.6573C115.478 15.3636 117.02 14.8495 118.387 14.3347C120.075 13.7004 121.811 13.4096 122.592 13.6265C122.879 13.7118 123.547 14.0194 124.078 14.3335C125.8 15.2954 126.783 15.3468 128.992 14.5901C130.222 14.1694 130.758 14.1575 131.277 14.5609C131.568 14.7706 131.643 14.9479 131.742 15.572C131.894 16.489 131.976 16.5402 133.316 16.642C133.886 16.6881 134.441 16.8113 134.606 16.9259C134.772 17.0404 134.923 17.1322 134.96 17.1271C134.984 17.1237 135.017 16.8189 135.004 16.4579C134.989 15.5345 134.75 15.1673 133.097 13.6204C131.474 12.107 130.756 11.7063 128.898 11.301C123.585 10.1491 118.521 9.88836 116.06 10.63Z" fill="#C89E67"></path>
    <path d="M134.7 18.589C134.668 18.7185 134.774 19.7545 134.934 20.9081C135.203 22.847 135.211 22.996 135.003 22.9373C134.1 22.7374 133.283 22.713 132.655 22.8751C132.282 22.977 131.987 23.1054 131.994 23.1545C132 23.2036 132.333 23.2575 132.738 23.289C133.685 23.3577 134.364 23.6513 134.28 23.9506C134.063 24.7312 134.017 25.3004 134.144 25.6706C134.223 25.8847 134.67 26.4858 135.165 26.9924C135.648 27.5008 136.03 27.9982 136.033 28.1103C136.026 28.2364 135.852 28.3356 135.475 28.4129C134.635 28.5794 134.412 28.6854 134.293 29.0021C134.201 29.24 134.217 29.2628 134.418 29.1848C134.536 29.131 135.095 29.1035 135.647 29.1145C136.712 29.1293 137.223 29.021 137.406 28.7204C137.609 28.3796 137.288 27.5986 136.582 26.7459C135.065 24.9175 135.02 24.7736 135.687 23.6304C135.99 23.1131 136.077 22.8383 136.031 22.507C135.915 21.7601 134.752 18.3317 134.7 18.589Z" fill="#C89E67"></path>
    <path d="M135.089 29.6922C134.891 29.9823 134.847 30.2011 134.906 30.6306C134.976 31.1338 134.941 31.2387 134.592 31.6123C134.374 31.8427 134.021 32.0918 133.817 32.1575C133.556 32.2563 133.447 32.3715 133.448 32.559C133.442 32.9725 134.059 33.9001 134.364 33.9329C134.719 33.9712 134.721 34.2585 134.371 34.795L134.06 35.2633L134.335 35.8006C134.611 36.3501 134.613 36.3624 134.361 36.6224C134.219 36.7673 134.036 36.8927 133.959 36.8784C133.87 36.8657 133.273 36.3482 132.611 35.7269C130.597 33.8299 129.971 33.3788 128.936 33.0347C127.742 32.6373 126.765 32.5352 125.328 32.6344C124.225 32.7123 118.709 33.7025 117.187 34.0887L116.462 34.2767L117.166 34.3918C117.55 34.4511 118.744 34.4981 119.806 34.4884C122.867 34.4641 123.193 34.5566 123.319 35.4647C123.382 35.9187 123.478 36.0681 123.972 36.4748C124.297 36.7425 125.144 37.2628 125.873 37.6495C126.601 38.024 127.735 38.7172 128.385 39.1649C129.049 39.6232 130.409 40.4102 131.404 40.9101C132.626 41.5161 133.391 41.9853 133.699 42.3054C134.152 42.7803 134.154 42.7926 134.362 44.2898L134.571 45.7992L135.281 46.5888C135.677 47.0092 136.558 47.775 137.24 48.2684C139.254 49.7151 143.622 52.2613 146.06 53.4242C146.782 53.7618 147.704 54.2719 148.104 54.5416C149.386 55.4019 148.564 54.6154 146.673 53.1516C145.104 51.9432 144.745 51.6053 144.119 50.7039C142.328 48.163 140.519 46.3001 138.382 44.7828L136.98 43.7766L136.624 42.0248C136.208 40.0186 135.956 39.4657 134.823 38.0593L134.098 37.1593L134.431 37.038C135.005 36.8458 135.207 36.4051 135.096 35.6074C135.014 35.0184 135.052 34.8381 135.303 34.3906C135.708 33.7089 135.624 33.3704 135.04 33.4013C134.642 33.4189 133.861 33.0145 133.827 32.7691C133.82 32.72 134.134 32.6389 134.514 32.5861C134.983 32.5337 135.233 32.4489 135.244 32.3473C135.269 32.2563 135.391 32.0518 135.532 31.8947C135.824 31.5665 135.825 31.3913 135.538 30.8557C135.399 30.5748 135.351 30.3188 135.393 29.9002C135.422 29.5709 135.413 29.3221 135.388 29.3255C135.364 29.3289 135.224 29.4983 135.089 29.6922Z" fill="#C89E67"></path>
    <path d="M113.571 35.0778C112.808 35.709 111.996 37.2475 111.382 39.2214C111.009 40.4114 110.683 40.9444 110.068 41.38C109.532 41.7545 109.29 42.1757 108.876 43.5214C108.672 44.2127 108.445 44.832 108.389 44.8774C108.32 44.9244 107.708 45.1094 107.017 45.2677C104.379 45.9087 102.661 46.96 102.069 48.2805C101.956 48.5463 101.755 48.8118 101.614 48.8813C101.488 48.9614 100.648 49.0403 99.7511 49.0647C95.428 49.1889 91.0396 50.7357 86.3366 53.802C85.2808 54.4862 84.6801 54.8447 81.7176 56.4814C79.1396 57.9146 78.1495 58.8024 77.7361 60.0605L77.4895 60.8076L77.8592 63.383C78.1502 65.4815 78.3065 66.2478 78.7201 67.5163C80.1318 71.9235 81.5129 74.3961 84.4479 77.7915C86.3557 80.0035 88.0556 82.0692 88.9634 83.2941C90.4724 85.3363 91.5198 87.5675 91.7445 89.1874C91.8449 89.9115 91.8145 90.0533 91.2941 91.3512C90.4869 93.3769 90.295 94.8794 90.5628 97.0812C90.6803 97.928 90.9266 98.5317 91.172 98.4977C91.2088 98.4926 91.2195 98.0283 91.178 97.4587C91.0988 96.2564 91.2337 95.4247 91.6756 94.4628C91.8489 94.0886 92.0798 93.3186 92.1907 92.7653C92.3964 91.7237 92.7988 91.0174 93.2283 90.9579C93.3633 90.9392 93.817 90.9638 94.2496 91.0164C95.0885 91.1127 95.5357 91.0006 96.1859 90.5477L96.5847 90.2672L96.2047 90.2324C94.4707 90.0851 93.2722 89.651 92.8333 89.0114C92.6782 88.7952 92.2704 87.8387 91.9379 86.8841C91.2674 85.0259 90.6994 83.8163 89.6519 82.0354C88.6582 80.3721 88.0296 78.9958 86.5519 75.2858C84.9772 71.3265 84.508 70.3784 83.1057 68.384C80.2887 64.3969 80.0324 62.819 82.0628 62.037C82.4419 61.8844 83.9588 61.5489 85.4335 61.2694C89.0071 60.6112 90.0645 60.3895 91.5713 59.9804C94.22 59.2378 95.6761 58.3729 96.3417 57.1299C97.2829 55.3483 98.2048 54.4199 100.276 53.1195C102.278 51.8662 102.257 51.8941 103.714 50.0411C105.554 47.7095 107.649 45.8555 106.431 47.6255C104.3 50.7478 103.167 55.2952 103.048 61.1153C102.947 66.1576 103.923 74.0024 105.249 78.7841C105.446 79.4823 106.078 81.6961 106.671 83.7152C108.754 90.8934 109.103 93.8595 108.127 95.9335C107.903 96.3899 107.896 96.4284 108.101 96.2874C108.372 96.0747 108.935 95.1711 109.313 94.2931C110.916 90.6062 111.304 83.035 110.319 74.5787C109.652 68.8675 108.6 64.4356 107.05 60.8356C105.087 56.2422 104.857 52.8719 106.306 49.7941C107.187 47.9334 107.957 46.7258 108.525 46.3094C108.957 45.9993 109.186 45.6673 109.683 44.6479C110.024 43.9502 110.567 42.9992 110.916 42.5381C111.42 41.8428 111.641 41.3619 112.189 39.6347C113.194 36.506 113.931 35.6908 116.088 35.2791L117.172 35.0663L116.093 34.8656C114.835 34.6274 114.055 34.6856 113.571 35.0778Z" fill="#C89E67"></path>
    <path d="M115.698 35.8838C114.513 36.4484 113.548 37.6078 113.322 38.7773C113.158 39.6632 113.352 41.0622 113.784 42.0154C114.272 43.0985 115.531 44.9626 117.901 48.0736C120.887 52.0124 121.362 52.7344 122.624 55.2486C123.816 57.6224 124.89 59.3246 125.978 60.5871C126.648 61.3573 126.852 61.479 126.403 60.8534C125.53 59.6111 124.232 57.102 123.236 54.701C122.337 52.5492 121.466 50.8688 119.584 47.5776C116.817 42.783 116.175 41.3086 116.02 39.4664C115.904 38.0941 116.144 37.2978 116.949 36.3357C117.304 35.9236 117.541 35.5531 117.487 35.5231C117.331 35.3946 116.298 35.6129 115.698 35.8838Z" fill="#C89E67"></path>
    <path d="M142.198 44.6039C141.829 44.8302 141.536 45.0585 141.541 45.0953C141.548 45.1444 141.925 45.0671 142.383 44.941C143.43 44.6457 143.759 44.7627 144.162 45.5949C144.49 46.2497 144.66 46.3889 145.512 46.6709C146.509 47.0079 146.914 47.3144 147.502 48.1211C148.169 49.0542 148.337 49.181 149.397 49.5218C150.354 49.8393 150.523 50.066 150.399 50.8838C150.28 51.6507 150.399 52.5098 150.747 53.212C150.903 53.5281 151.016 53.8877 151.008 54.0138C151.001 54.1399 150.712 54.4927 150.355 54.8049C149.621 55.4694 149.545 55.6426 149.148 57.6489C148.413 61.3657 147.512 62.3537 145.356 61.7772C144.927 61.6616 144.405 61.5964 144.184 61.627C143.804 61.6798 143.575 61.8365 142.13 62.9625C141.35 63.5585 140.328 64.0379 139.604 64.1384C138.365 64.3103 137.256 63.8887 135.355 62.5388C134.745 62.1105 134.209 61.7597 134.159 61.7665C133.914 61.8005 135.105 63.0862 136.071 63.8278C137.331 64.7914 138.464 65.3847 139.834 65.7951C141.101 66.1822 142.057 66.2247 143.308 65.9512C144.669 65.6624 145.567 65.2876 146.7 64.5301C147.477 63.9971 147.752 63.7214 148.393 62.7568C150.108 60.2425 150.556 59.1422 150.763 57.0247C150.917 55.3398 151.025 55.0371 151.753 54.3358C152.48 53.6221 152.861 53.0314 153.108 52.1967C153.404 51.2675 153.291 50.6328 152.731 50.1101C152.485 49.869 152.035 49.3311 151.737 48.8971C151.112 47.9957 149.928 47.0342 149.199 46.8349C148.928 46.7725 148.472 46.5481 148.183 46.363C147.81 46.1021 147.561 46.024 147.254 46.0666C146.788 46.1312 146.409 45.9212 146.359 45.5653C146.308 45.1971 145.554 44.6264 144.698 44.3197C143.722 43.9548 143.094 44.0293 142.198 44.6039Z" fill="#C89E67"></path>
    <path d="M122.547 47.5671C122.526 48.1329 123.106 51.417 123.482 52.8658C124.671 57.3789 126.745 61.2439 128.935 63.054C129.742 63.7301 130.623 64.1332 131.139 64.0617C131.286 64.0413 131.414 64.0611 131.419 64.0979C131.484 64.5643 129.913 77.1399 129.567 78.9765C128.318 85.4788 125.652 90.5141 122.478 92.3426C121.192 93.0838 120.647 93.2094 115.973 93.8702C111.727 94.459 111.532 94.4985 111.026 94.8189C110.383 95.2332 110.177 95.5495 110.737 95.2592C110.936 95.1567 111.448 95.0606 111.858 95.0413C113.658 94.9418 116.186 95.7668 120.833 97.9742C127.66 101.205 131.39 102.489 133.047 102.171C133.887 102.005 133.828 102.388 133.732 97.9113C133.697 96.1275 133.648 93.0698 133.614 91.1108C133.58 89.1518 133.498 85.7611 133.444 83.5672C133.317 79.3195 133.301 77.3956 133.335 71.1494C133.363 65.4918 133.326 63.4206 133.148 61.5066L132.991 59.8274L132.215 59.197C131.216 58.3974 129.838 57.0251 128.439 55.4179C126.313 52.986 125.534 51.8808 124.471 49.8019C123.815 48.5044 123.483 48.0002 122.931 47.4512L122.568 47.0888L122.547 47.5671Z" fill="#C89E67"></path>
    <path d="M99.3986 91.4405C99.5649 93.1811 99.504 94.3653 99.2015 95.0702C98.989 95.6125 98.3617 96.0497 97.1543 96.5423C96.5979 96.7696 95.9676 97.0947 95.7654 97.2603C95.3048 97.6369 94.8032 98.6195 94.7921 99.1714C94.7808 99.8109 95.0906 99.8805 96.175 99.4924C97.3314 99.0819 97.3559 99.0785 96.9559 99.6218C96.3146 100.499 94.7314 101.169 93.7913 100.974C93.52 100.911 93.5006 100.952 93.5533 101.332C93.6469 102.007 93.9915 102.147 95.2518 102.035C96.179 101.956 96.4316 101.883 96.9392 101.575C97.8614 101.01 98.3838 100.087 98.6019 98.593C98.6992 97.9416 98.7609 97.8455 99.3463 97.3766C100.19 96.6967 100.81 95.9353 100.952 95.4277C101.18 94.5456 100.578 91.9149 99.8593 90.6137C99.2643 89.5705 99.2237 89.6386 99.3986 91.4405Z" fill="#C89E67"></path>
    <path d="M92.5811 96.7635C92.1137 97.091 91.9752 97.5355 91.901 98.9842C91.8387 100.069 91.8506 100.154 92.0878 100.422C92.2344 100.576 92.3898 100.705 92.4512 100.697C92.5002 100.69 92.5681 100.368 92.5907 99.9892C92.6598 98.954 93.053 97.9113 93.6429 97.2041C93.9334 96.8636 94.2307 96.5723 94.3166 96.5603C94.3902 96.5501 94.3572 96.4922 94.2505 96.4444C93.9427 96.2995 92.9923 96.4813 92.5811 96.7635Z" fill="#C89E67"></path>
    <path d="M109.905 96.3998C109.179 96.6632 107.325 97.9084 106.518 98.6708C105.744 99.4035 104.616 100.923 104.157 101.85C102.963 104.242 102.517 107.431 102.721 111.968C102.925 116.78 102.907 117.821 102.571 119.006C102.463 119.396 102.393 119.706 102.417 119.702C102.602 119.677 103.638 116.957 104.408 114.486C105.905 109.675 106.819 107.61 108.382 105.442C109.443 103.981 110.268 103.166 111.587 102.308C114.04 100.692 117.167 100.058 120.797 100.443C121.444 100.503 121.962 100.544 121.959 100.519C121.957 100.507 121.431 100.23 120.787 99.9188C120.131 99.6095 118.703 98.8695 117.584 98.2867C115.222 97.0383 114.143 96.5626 113.016 96.2811C112.109 96.0566 110.726 96.0983 109.905 96.3998Z" fill="#C89E67"></path>
    <path d="M134.302 103.736C134.032 104.674 132.816 107.357 132.006 108.82C128.2 115.739 123.228 120.569 119.375 121.103C118.491 121.226 118.164 121.209 117.131 120.977C115.13 120.529 113.935 120.482 111.445 120.74C109.103 120.99 107.461 121.33 104.881 122.113C102.337 122.891 98.4974 124.337 98.5229 124.521C98.5297 124.57 98.6225 124.607 98.7329 124.592C99.052 124.547 100.201 124.988 101.175 125.516C102.311 126.134 103.762 126.583 104.806 126.626C105.812 126.662 108.094 126.345 109.384 125.991C109.936 125.827 111.157 125.433 112.11 125.088C114.209 124.347 115.12 124.245 116.389 124.645C117.799 125.074 118.801 125.986 120.853 128.691C121.464 129.494 122.137 130.376 122.374 130.644L122.794 131.148L123.021 130.704C123.137 130.463 123.727 129.756 124.318 129.148C124.909 128.541 125.728 127.502 126.127 126.859C126.94 125.595 127.679 124.88 129.095 123.996C130.247 123.285 130.762 122.851 131.315 122.149C132.22 121.01 132.539 119.703 132.656 116.76C132.755 114.132 132.927 112.845 133.67 108.739C134.332 105.12 134.57 103.499 134.46 103.426C134.432 103.405 134.363 103.54 134.302 103.736Z" fill="#C89E67"></path>
    <path d="M135.921 106.488C136.232 106.745 136.287 106.875 136.405 107.722C136.527 108.605 136.509 108.746 136.087 110.03C135.842 110.789 135.222 112.364 134.709 113.536C134.209 114.706 133.706 115.864 133.6 116.091C133.317 116.756 133.483 116.595 133.943 115.768C134.875 114.1 137.356 111.155 139.252 109.491C139.663 109.121 139.992 108.788 139.984 108.726C139.967 108.604 137.629 106.989 137.012 106.687C136.744 106.562 136.308 106.397 136.048 106.32L135.568 106.199L135.921 106.488Z" fill="#C89E67"></path>
    <path d="M139.557 110.887C138.87 111.795 137.742 113.403 137.039 114.463C136.323 115.526 135.493 116.754 135.177 117.185L134.598 117.966L135.572 117.418C138.504 115.736 141.087 115.878 145.908 117.986C150.796 120.135 153.144 121.098 155.165 121.781C159.756 123.32 163.133 123.953 166.606 123.921C168.656 123.912 169.17 124.191 170.326 125.944C171.693 128.044 171.858 128.871 171.759 133.388C171.712 135.846 171.725 136.032 172.221 139.603C172.783 143.565 173.082 144.912 174.312 148.819C175.882 153.83 177.91 158.802 180.78 164.708C183.004 169.29 184.043 172.085 184.361 174.38C184.691 176.761 184.392 177.853 182.639 180.81C181.968 181.929 181.414 182.894 181.421 182.943C181.456 183.288 182.736 182.598 184.157 181.475C185.048 180.776 187.164 178.807 188.188 177.714L188.549 177.339L188.237 176.894C186.939 175.023 185.6 170.781 182.736 159.508C180.117 149.19 179.462 146.904 177.973 142.933C177.595 141.922 177.485 141.399 177.21 139.411C176.859 136.796 176.866 136.482 177.405 132.88C177.808 130.198 177.746 129.118 177.05 127.438C176.505 126.126 175.61 124.811 174.685 124.002C174.355 123.697 173.333 122.913 172.428 122.251C171.536 121.586 170.156 120.565 169.387 119.983C165.338 116.943 159.785 114.511 150.905 111.902C147.164 110.808 141.199 109.196 140.978 109.226C140.88 109.24 140.246 109.991 139.557 110.887Z" fill="#C89E67"></path>
    <path d="M110.915 126.854C109.717 127.233 108.591 127.502 107.525 127.662L105.933 127.908L107.396 128.18C110.425 128.736 112.607 129.859 113.567 131.365C114.16 132.308 114.524 134.209 114.271 135.094C114.055 135.875 113.004 137.321 110.684 140.07C106.483 145.043 104.263 148.515 102.697 152.56C102 154.383 101.726 154.846 100.924 155.557C100.179 156.224 99.1129 156.747 96.8493 157.561C95.5753 158.025 95.1802 158.243 93.9958 159.082C92.4054 160.241 91.5927 160.604 90.2182 160.795C88.537 161.028 87.4725 160.838 83.4862 159.602C78.5321 158.062 74.9984 157.564 71.447 157.932C65.8729 158.505 61.3105 161.051 53.1304 168.177C48.3757 172.314 44.9668 174.7 43.5064 174.903C42.672 175.018 42.3103 174.756 41.3667 173.273C40.3778 171.734 40.2166 171.744 40.5289 173.364C40.675 174.057 40.8603 174.582 41.1734 175.126C41.9112 176.387 43.452 177.937 45 178.998L45.5784 179.381L46.8392 178.28C51.8155 173.938 58.7245 170.003 64.665 168.103C71.0862 166.062 81.1965 164.647 87.5119 164.91C88.8975 164.98 89.9781 165.106 92.1913 165.462C95.147 165.94 96.8406 165.255 100.366 162.176C101.281 161.374 102.365 160.448 102.77 160.117C103.501 159.528 104.139 158.714 106.148 155.796C107.096 154.426 108.098 153.349 108.747 152.984C109.689 152.466 112.598 148.823 114.598 145.656C117.122 141.666 119.529 136.929 121.112 132.832L121.465 131.945L120.793 130.8C119.281 128.283 117.862 126.892 116.208 126.333C115.304 126.033 115.139 126.018 113.97 126.156C113.046 126.259 112.234 126.446 110.915 126.854Z" fill="#C89E67"></path>
    <path d="M33.6507 166.426C32.3184 167.011 31.8349 167.854 30.476 171.944C28.8722 176.795 27.9828 178.769 26.3527 181.084C23.3074 185.372 22.2569 190.333 23.46 194.769C24.5957 198.989 27.5679 201.842 29.4709 200.502C30.0754 200.08 30.293 199.575 30.5858 197.808C30.8209 196.437 31.5512 193.947 32.1051 192.619C32.3881 191.955 32.4076 191.914 31.09 194.048C29.5273 196.579 28.3538 197.317 27.6205 196.268C27.509 196.096 26.9952 194.916 26.4818 193.649C24.7646 189.385 24.8954 188.253 27.3347 186.452C29.6281 184.77 31.5924 182.159 32.4383 179.69C32.8834 178.39 33.0595 177.315 33.1823 175.134C33.3858 171.641 33.9118 169.842 34.9595 169.009C35.4218 168.644 35.5656 168.599 36.3456 168.541C37.2393 168.492 37.7257 168.663 37.7802 169.055C37.7955 169.166 37.504 169.769 37.1544 170.405C36.5209 171.519 36.3575 172.054 36.4262 172.82C36.4928 173.662 36.5419 173.655 36.9078 172.866C37.6502 171.275 38.9212 170.248 41.2305 169.402C42.859 168.789 43.142 168.574 42.9723 168.072C42.7263 167.381 41.97 166.798 41.0841 166.633C40.839 166.58 40.1471 166.551 39.5233 166.562C38.9117 166.572 37.7961 166.464 37.0397 166.331C35.5112 166.043 34.4528 166.077 33.6507 166.426Z" fill="#C89E67"></path>
    <path d="M188.681 178.484C187.219 180.475 185.274 182.146 183.264 183.162C182.235 183.68 182.223 183.682 182.875 183.517C183.238 183.429 184.73 182.822 186.19 182.169C188.83 181.002 190.23 180.545 190.424 180.769C190.591 180.983 189.87 182.184 189.18 182.805C187.981 183.897 185.401 184.867 183.547 184.937C183.088 184.963 182.706 185.003 182.711 185.04C182.735 185.212 183.937 185.583 184.671 185.644C187.118 185.88 189.794 184.796 191.351 182.941C191.747 182.461 192.153 182.055 192.251 182.041C192.436 182.016 192.749 182.472 193.417 183.681C194.236 185.168 195.474 185.884 197.479 186.006C200.571 186.203 204.883 187.169 205.744 187.875C206.037 188.097 206.054 188.132 205.856 188.234C205.752 188.299 204.729 188.403 203.586 188.462C201.005 188.607 197.102 189.148 195.597 189.57C194.971 189.744 193.842 190.176 193.102 190.516C190.481 191.73 186.657 192.748 183.211 193.151C181.033 193.416 180.94 193.466 181.774 193.976C183.046 194.762 186.091 194.44 193.166 192.784C196.582 191.985 197.103 191.95 199.932 192.421C203.672 193.053 204.231 193.025 207.014 192.076C210.946 190.755 212.029 190.268 213.639 189.156C215.306 188.012 217.235 185.956 217.158 185.404C217.083 184.864 216.086 184.439 214.368 184.227C213.426 184.108 212.93 184.139 210.569 184.429C207.421 184.815 206.366 184.787 204.166 184.254C202.158 183.757 200.544 183.03 197.637 181.282C194.828 179.607 193.374 178.858 192.619 178.738C192.323 178.679 191.821 178.398 191.287 177.972C190.515 177.366 190.368 177.299 189.938 177.359C189.509 177.418 189.386 177.523 188.681 178.484Z" fill="#C89E67"></path>
  </g>
</svg>
