<?xml version="1.0" encoding="UTF-8"?>
<svg xmlns="http://www.w3.org/2000/svg" width="200" height="56" viewBox="0 0 200 56" fill="none">
  <g clip-path="url(#clip0_23_162)">
    <path d="M48.3457 0.0458984V42.5193L53.8006 42.5402V22.3236H66.9799V16.9728H53.8006V5.39672H70.9566V0.0458984H48.3457ZM80.8046 8.66551C82.7825 8.66551 84.3649 7.06235 84.3649 5.10524C84.3649 3.14813 82.7617 1.54496 80.8046 1.54496C78.8267 1.54496 77.2443 3.14813 77.2443 5.10524C77.2443 7.06235 78.8475 8.66551 80.8046 8.66551ZM78.0355 14.0163V42.5193H83.4904V14.0163H78.0355Z" fill="white"></path>
    <path fill-rule="evenodd" clip-rule="evenodd" d="M103.748 13.1836C96.4812 13.1836 91.4219 19.3256 91.4219 26.6127C91.4219 33.8998 96.4812 40.0418 103.748 40.0418C107.079 40.0418 109.806 38.7509 111.805 36.6689V40.4374C111.805 45.1636 108.099 49.0986 103.248 49.0986C101.499 49.0986 99.7708 48.4324 98.3967 47.4747L95.6484 52.2217C97.8345 53.6375 100.437 54.4495 103.227 54.4495C110.972 54.4495 117.239 48.1825 117.239 40.4374V14.0164H111.805V16.5565C109.806 14.4745 107.079 13.1836 103.748 13.1836ZM96.8976 26.6127C96.8976 22.0947 100.354 18.5344 104.351 18.5344C108.349 18.5344 111.805 22.0947 111.805 26.6127C111.805 31.1307 108.349 34.691 104.351 34.691C100.354 34.691 96.8976 31.1307 96.8976 26.6127Z" fill="white"></path>
    <path d="M136.956 18.5344C133.729 18.5344 131.105 21.2827 131.105 24.5098V42.5194H125.65V14.0164H131.105V16.6189C132.708 14.5577 135.061 13.1836 138.143 13.1836C141.974 13.1836 144.909 15.0782 146.616 17.9931C148.511 15.1823 151.593 13.1836 155.319 13.1836C161.545 13.1836 165.417 18.2013 165.438 24.4057V42.5194H159.983V24.489C159.983 21.2619 157.36 18.5136 154.133 18.5136C150.905 18.5136 148.282 21.2619 148.282 24.489V42.5194H142.827V24.489C142.806 21.2619 140.183 18.5344 136.956 18.5344Z" fill="white"></path>
    <path fill-rule="evenodd" clip-rule="evenodd" d="M194.545 17.2436C192.109 14.7243 188.777 13.1836 184.926 13.1836C176.806 13.1836 171.018 20.0751 171.018 28.2783C171.018 36.4815 176.785 43.3731 184.926 43.3731C188.777 43.3731 192.109 41.8115 194.545 39.3131V42.5194H199.999V14.0164H194.545V17.2436ZM176.493 28.2783C176.493 22.8442 180.657 18.5344 185.529 18.5344C190.38 18.5344 194.565 22.8234 194.565 28.2783C194.565 33.7124 190.401 38.0222 185.529 38.0222C180.657 38.0014 176.493 33.7124 176.493 28.2783Z" fill="white"></path>
    <path d="M18.3418 27.5704C18.3418 22.5111 22.4434 18.3887 27.5236 18.3887C32.5829 18.3887 36.7053 22.4903 36.7053 27.5704C36.7053 32.6298 32.6037 36.7522 27.5236 36.7522C22.4642 36.7522 18.3418 32.6298 18.3418 27.5704Z" fill="#1ABCFE"></path>
    <path d="M0 45.9131C0 40.8537 4.1016 36.7313 9.18176 36.7313H18.3635V45.9131C18.3635 50.9724 14.2619 55.0948 9.18176 55.0948C4.1016 55.0948 0 50.9932 0 45.9131Z" fill="#0ACF83"></path>
    <path d="M18.3418 0.0459668V18.3887H27.5236C32.5829 18.3887 36.7053 14.2871 36.7053 9.20691C36.7053 4.14757 32.6037 0.0251465 27.5236 0.0251465H18.3418V0.0459668Z" fill="#FF7262"></path>
    <path d="M0 9.22766C0 14.287 4.1016 18.4094 9.18176 18.4094H18.3635V0.0458984H9.18176C4.1016 0.0458984 0 4.1475 0 9.22766Z" fill="#F24E1E"></path>
    <path d="M0 27.5704C0 32.6298 4.1016 36.7522 9.18176 36.7522H18.3635V18.3887H9.18176C4.1016 18.3887 0 22.5111 0 27.5704Z" fill="#A259FF"></path>
  </g>
  <defs>
    <clipPath id="clip0_23_162">
      <rect width="200" height="55.12" fill="white"></rect>
    </clipPath>
  </defs>
</svg>
