<svg width="50" height="57" viewBox="0 0 50 57" fill="none" xmlns="http://www.w3.org/2000/svg">
<path d="M25 0.392578C20.0556 0.392578 15.222 2.03287 11.1107 5.10603C6.99953 8.17919 3.79522 12.5472 1.90303 17.6577C0.0108423 22.768 -0.484252 28.3917 0.480373 33.8168C1.445 39.2422 3.82603 44.2254 7.32234 48.1371C10.8187 52.0484 15.2732 54.712 20.1228 55.7913C24.9722 56.8705 29.9991 56.3164 34.5672 54.1995C39.1353 52.0827 43.0397 48.4983 45.7869 43.8989C48.5338 39.2996 50 33.8923 50 28.3606C50 20.943 47.3659 13.8292 42.6778 8.58423C37.9894 3.33918 31.6303 0.392578 25 0.392578ZM37.2812 19.5507L33.1875 41.1909C32.875 42.7292 32.0625 43.0788 30.9062 42.3796L24.6563 37.2055L21.5313 40.4568C21.3841 40.6718 21.195 40.8466 20.9784 40.9679C20.7619 41.0888 20.5234 41.1532 20.2812 41.156L20.7188 34.1639L32.2812 22.4523C32.8125 21.9629 32.2812 21.6832 31.5312 22.1727L17.3438 32.1363L11.0937 29.9687C9.75 29.5143 9.71875 28.4655 11.375 27.7663L35.4688 17.2783C36.6562 16.8937 37.6562 17.6628 37.2812 19.5507Z" fill="#C89E67"/>
</svg>
