<svg width="50" height="57" viewBox="0 0 50 57" fill="none" xmlns="http://www.w3.org/2000/svg">
<g clip-path="url(#clip0_24_590)">
<path d="M25 0.392578C11.1933 0.392578 0 12.9142 0 28.3606C0 43.807 11.1933 56.3287 25 56.3287C38.8066 56.3287 50 43.807 50 28.3606C50 12.9142 38.8066 0.392578 25 0.392578ZM37.6813 31.3855C38.8465 32.6587 40.0793 33.8569 41.1253 35.2618C41.5887 35.8832 42.0256 36.5259 42.3581 37.2486C42.8327 38.2792 42.4041 39.4094 41.5795 39.4706L36.4578 39.4694C35.135 39.5919 34.0824 38.9951 33.1949 37.9833C32.4864 37.1771 31.8292 36.3158 31.1468 35.4821C30.868 35.1399 30.5744 34.8177 30.2246 34.5642C29.5263 34.0561 28.9197 34.2117 28.5197 35.0277C28.112 35.8581 28.0189 36.7782 27.9801 37.7024C27.9243 39.0534 27.5601 39.4065 26.3483 39.47C23.7591 39.6056 21.3023 39.1661 19.0189 37.7058C17.0046 36.4177 15.4455 34.5997 14.087 32.5414C11.4414 28.5289 9.41535 24.1249 7.59488 19.5945C7.18517 18.5742 7.48491 18.0283 8.49105 18.0071C10.1627 17.9711 11.8343 17.9757 13.5059 18.0054C14.1862 18.0174 14.6363 18.4529 14.8977 19.1711C15.801 21.6574 16.9084 24.0231 18.2962 26.217C18.666 26.8013 19.0435 27.3838 19.5811 27.7964C20.1744 28.2519 20.6266 28.1014 20.9064 27.3603C21.0854 26.8894 21.1627 26.3858 21.2015 25.8811C21.3345 24.1524 21.3504 22.4242 21.1202 20.7024C20.977 19.6249 20.4353 18.929 19.4752 18.7253C18.9862 18.6217 19.0578 18.4192 19.2957 18.1067C19.7084 17.5665 20.0951 17.2323 20.868 17.2323L26.6547 17.2312C27.5668 17.4315 27.7714 17.8893 27.8951 18.917L27.9003 26.1112C27.8895 26.5089 28.0788 27.6877 28.7171 27.948C29.2286 28.1369 29.5662 27.6779 29.8721 27.3157C31.2598 25.6682 32.2486 23.7238 33.134 21.7112C33.5248 20.8237 33.8619 19.9053 34.1893 18.9851C34.4327 18.3047 34.8113 17.97 35.4977 17.9814L41.0701 17.9888C41.2343 17.9888 41.401 17.9906 41.5637 18.022C42.5028 18.2017 42.7601 18.6538 42.4696 19.6786C42.0123 21.2889 41.1238 22.6302 40.2552 23.975C39.3243 25.4147 38.3315 26.8041 37.4097 28.2502C36.5627 29.572 36.6297 30.2375 37.6813 31.3855Z" fill="#C89E67"/>
</g>
<defs>
<clipPath id="clip0_24_590">
<rect width="50" height="55.9361" fill="white" transform="translate(0 0.392578)"/>
</clipPath>
</defs>
</svg>
