<svg width="331" height="430" viewBox="0 0 331 430" fill="none" xmlns="http://www.w3.org/2000/svg">
<path d="M176.584 0.0933533C125.908 2.42798 86.4034 16.3694 56.4976 42.5138C53.6841 44.9809 47.6764 50.9085 44.9457 53.9054C17.6547 83.974 2.39561 125.848 0.161363 176.68C-0.0537875 181.498 -0.0537875 195.738 0.161363 199.695C0.873013 212.842 2.64386 224.614 5.72216 236.784C15.2053 274.369 36.77 309.372 67.4371 337.023C86.3372 354.061 108.117 367.555 127.514 374.212C128.523 374.559 129.4 374.907 129.483 374.973C129.682 375.155 130.36 380.305 130.559 383.434C130.675 384.924 130.741 387.408 130.708 388.964C130.658 392.326 130.724 392.508 132.479 393.716C133.885 394.677 134.63 394.759 135.259 394.014C135.656 393.534 136.037 392.044 136.037 390.918C136.053 389.544 136.12 389.56 137.94 391.465C138.867 392.458 140.572 394.312 141.714 395.587C145.007 399.28 147.341 400.952 149.227 400.952C150.783 400.952 151.445 399.826 151.064 397.806C150.7 395.803 149.475 393.965 146.381 390.703L144.891 389.146L145.967 389.262C148.747 389.56 148.731 389.56 149.194 389.262C150.766 388.236 150.502 384.643 148.747 383.351C148.433 383.119 147.82 382.97 146.579 382.838C144.577 382.606 144.163 382.408 142.723 380.884C141.813 379.94 140.704 378.334 140.853 378.202C140.886 378.169 144.709 378.897 149.327 379.825C156.923 381.331 157.784 381.53 158.065 381.894C158.661 382.639 158.462 383.633 157.055 386.795C156.327 388.418 156.162 388.948 156.162 389.693C156.178 391.067 156.509 394.163 156.741 394.842C156.906 395.356 156.873 395.538 156.575 396.233C156.145 397.227 156.129 397.922 156.575 398.551C157.585 400.058 157.618 400.157 157.734 403.684L157.833 406.996L158.595 409.098C159.29 411.036 159.372 411.4 159.538 413.652C159.637 414.993 159.869 416.814 160.034 417.675C160.415 419.53 160.332 420.093 159.505 420.954C159.207 421.252 158.479 421.781 157.883 422.113C155.351 423.503 154.573 424.381 154.573 425.805C154.573 427.047 155.764 429.183 156.741 429.696C157.105 429.878 158.131 429.928 161.888 429.928C166.174 429.928 166.671 429.895 167.647 429.58C168.458 429.332 169.402 429.199 171.454 429.116C173.473 429.034 174.317 428.918 174.681 428.719C175.244 428.421 177.279 426.384 177.561 425.838C177.66 425.639 177.809 424.596 177.908 423.52C178.074 421.467 178.438 420.126 179.166 418.884L179.58 418.172L179.232 417.692C178.372 416.466 178.074 415.506 178.074 413.9C178.074 413.056 177.908 411.3 177.71 410.009C177.395 407.939 177.379 407.509 177.561 406.333C177.66 405.605 177.826 404.379 177.925 403.618C178.14 401.73 178.504 400.969 179.58 400.124C180.556 399.362 180.871 398.915 180.887 398.336C180.887 397.591 180.407 396.978 179.481 396.581C178.554 396.15 178.223 395.736 177.991 394.66C177.759 393.518 177.031 392.657 173.324 389.097C171.239 387.11 169.369 385.239 169.17 384.957C168.773 384.411 168.442 382.408 168.74 382.408C168.822 382.408 169.518 382.49 170.295 382.573C183.188 384.03 197.57 384.212 210.264 383.053C267.03 377.887 305.277 345.252 321.645 288.046C326.643 270.561 329.424 252.53 330.698 229.333C330.996 224.018 330.996 201.466 330.698 197.873C328.778 174.395 322.588 152.622 311.715 131.146C300.279 108.579 284.474 88.5107 266.103 73.2115L263.687 71.2081L264.217 70.0491C264.515 69.4033 268.718 60.6609 273.567 50.5939C278.417 40.5269 282.554 31.8177 282.769 31.2216C283.034 30.5096 283.166 29.7811 283.166 29.0525C283.166 26.9332 281.991 25.5258 279.029 24.0687C278.251 23.7044 276.315 22.6613 274.726 21.7838C254.916 10.7564 231.646 3.52075 207.781 0.921234C200.83 0.176147 198.463 0.0602417 188.914 0.0105591C183.817 -0.0225525 178.272 0.0271301 176.584 0.0933533ZM196.113 7.70984C224.232 9.15033 246.144 14.3329 264.713 23.9197C268.702 25.9894 274.56 29.4168 274.56 29.6817C274.56 29.7314 273.998 31.0394 273.303 32.6124C272.607 34.1688 271.3 37.1492 270.423 39.252C264.25 53.7895 262.909 56.9023 261.32 60.4457C259.516 64.4526 257.878 68.0125 257.779 68.1118C257.746 68.1284 257.067 67.8635 256.256 67.5157C252.234 65.7441 246.955 64.0552 241.99 62.9459C226.317 59.4191 207.119 59.1045 186.432 62.0186C184.528 62.3001 182.857 62.5154 182.758 62.5154C182.46 62.5154 182.476 60.5616 182.774 58.9886C183.221 56.7037 184.032 54.6837 186.763 49.1037C188.252 46.0572 189.742 42.8119 190.073 41.9012C192.307 35.8577 192.489 30.7745 190.635 25.0953C189.907 22.8766 189.08 21.3367 188.285 20.7737C186.448 19.4326 184.528 19.83 183.602 21.7175C183.221 22.4957 183.138 22.9428 183.022 24.8966C182.493 33.1422 180.523 38.6725 176.766 42.4641C174.814 44.451 173.159 45.4114 169.799 46.4545C167.085 47.3155 166.009 47.7791 165.148 48.458C163.609 49.6833 163.394 51.3059 164.387 54.3194C165.264 56.9686 165.529 58.3925 165.546 60.3629C165.546 62.0683 165.314 63.3764 164.817 64.4195C164.586 64.8997 164.586 64.8997 159.786 65.7772C133.72 70.5458 104.857 77.7483 84.4836 84.57C74.3716 87.9478 66.8082 90.9944 60.5027 94.19C57.5568 95.6802 57.4906 95.7133 56.3486 95.6967C55.3556 95.6967 54.9915 95.614 53.9489 95.1172C53.2703 94.7861 52.2939 94.1569 51.7974 93.6933L50.8871 92.8488L50.9533 91.6401C51.003 90.9613 51.0361 89.8188 51.0361 89.0737C51.0526 87.865 51.003 87.6829 50.6058 87.153C50.0265 86.4079 49.2487 86.1265 47.7261 86.1265C46.7662 86.143 46.3524 86.2258 45.4422 86.6563C44.1182 87.2855 42.579 88.6929 41.7515 90.0506C41.2054 90.9613 41.1723 91.0937 41.255 92.0872C41.3874 93.892 42.8438 96.5246 44.8795 98.644C47.875 101.757 53.6344 103.628 57.8381 102.866C58.6822 102.717 60.8006 101.989 63.7134 100.846C96.4493 88.0637 125.693 79.8015 155.235 74.9501C157.916 74.5031 160.415 74.1057 160.779 74.056C161.441 73.9566 161.408 73.9732 158.876 76.3741C155.334 79.7187 152.471 82.6494 150.783 84.6694C142.855 94.19 137.857 106.989 133.488 128.911L132.446 134.127L131.552 135.783C128.126 142.108 125.743 149.062 121.887 164.013C120.447 169.626 119.123 174.229 117.071 180.819C112.834 194.496 111.493 199.579 110.798 204.579C110.318 208.089 110.401 219.531 110.964 226.518C112.221 242.248 115.432 259.915 119.652 274.121C120.347 276.489 120.48 277.184 120.645 279.254C121.423 289.337 123.509 297.434 127.845 307.153C129.284 310.366 132.462 316.575 135.789 322.635C137.411 325.599 139.016 328.529 139.363 329.175L139.992 330.334L139.678 332.404C139.281 335.02 138.9 336.874 137.046 345.004C134.68 355.402 133.952 359.525 133.439 365.27C133.29 366.992 133.141 368.449 133.124 368.466C133.058 368.565 128.788 367.191 125.693 366.065C84.6988 351.163 45.0615 314.223 22.9342 270.313C13.2524 251.089 7.70816 232.611 5.85456 213.355C5.50701 209.696 5.35806 200.009 5.60631 196.3C5.78836 193.552 8.23776 169.444 8.93286 163.434C11.7795 139.442 15.0398 124.739 20.9316 109.373C32.1525 80.1657 49.3811 56.5547 71.7401 39.7321C97.5912 20.2936 130.625 9.53116 170.047 7.70984C172.149 7.61047 174.565 7.51114 175.426 7.47803C178.272 7.37866 192.82 7.52771 196.113 7.70984ZM228.22 66.3898C234.013 66.9362 238.845 67.6648 243.612 68.741C248.924 69.9332 255.826 72.1519 255.743 72.632C255.71 72.7645 251.771 81.8877 246.955 92.8985C242.139 103.926 236.661 116.493 234.758 120.864C231.381 128.597 231.282 128.795 230.62 129.209C229.66 129.805 227.823 131.627 226.896 132.885C225.175 135.236 223.636 138.415 222.345 142.257L221.617 144.426V148.548C221.633 151.86 221.584 152.82 221.385 153.284C221.253 153.615 219.449 156.513 217.364 159.725C211.19 169.328 209.502 172.16 207.218 176.729C205.745 179.677 205.547 180.422 205.547 182.988C205.547 185.72 205.712 187.144 207.036 196.466C208.592 207.328 208.857 209.977 208.973 215.673L209.072 220.392L208.509 220.938C208.211 221.236 207.781 221.518 207.566 221.584C207.036 221.716 206.027 221.551 205.365 221.236C204.438 220.789 201.873 218.637 196.908 214.15C190.321 208.189 188.467 206.682 184.429 204.033C174.251 197.327 163.113 194.314 148.582 194.314C145.934 194.314 144.477 194.247 144.477 194.148C144.477 194.049 144.593 193.287 144.726 192.443C145.189 189.562 145.785 184.942 146.96 175.272C149.409 155.089 150.651 147.588 153.166 137.935C154.01 134.69 154.292 133.067 154.656 129.16C155.268 122.636 155.715 121.063 158.032 117.023C164.188 106.31 168.624 96.7233 174.185 82.2189C176.551 76.0594 177.561 73.493 178.438 71.5061L179.1 69.9828L179.911 69.8173C188.12 68.0456 198.43 66.721 208.609 66.0918C209.155 66.0587 213.143 66.0587 217.463 66.0753C223.14 66.1084 226.135 66.1912 228.22 66.3898ZM262.909 76.788C267.957 80.8611 274.908 87.5504 279.31 92.6005C304.499 121.427 320.917 162.44 324.128 204.496C324.922 215.06 324.922 228.737 324.128 239.93C321.38 278.145 310.027 311.127 291.64 334.308C276.646 353.2 257.067 365.982 233.434 372.307C214.749 377.291 193.747 378.367 170.13 375.52C168.988 375.387 167.896 375.238 167.714 375.205C167.3 375.106 167.267 374.758 166.985 365.353C166.638 354.127 166.092 348.2 164.817 341.974C163.626 336.046 161.243 329.622 158.892 325.963C158.462 325.267 157.883 324.29 157.635 323.794C157.188 322.9 157.171 322.867 157.271 320.565C157.403 317.237 158.065 313.975 159.356 310.084C162.219 301.524 167.383 292.301 173.49 284.817L173.887 284.321L174.185 285.645C174.615 287.649 175.807 291.391 176.667 293.411C178.206 297.103 179.828 299.669 182.046 302.004C184.346 304.405 186.498 305.713 189.311 306.425C190.486 306.723 191.033 306.756 192.704 306.69C195.054 306.59 196.163 306.326 198.182 305.349C203.412 302.799 207.301 297.169 208.427 290.53C208.774 288.51 208.774 284.486 208.443 282.4C208.294 281.539 207.963 279.999 207.698 279.006C206.871 275.909 206.689 273.955 206.59 267.498C206.49 260.958 206.672 257.712 207.202 256.14C207.914 254.103 209.287 252.497 213.408 248.987C216.619 246.238 218.969 243.92 220.243 242.248C221.286 240.873 222.809 237.843 223.156 236.453C223.835 233.754 223.818 230.823 223.106 227.611C222.924 226.833 222.742 225.657 222.693 225.011C222.577 223.554 222.08 221.832 220.806 218.405C219.052 213.702 219.201 215.358 219.201 199.778V186.118L219.995 184.462C220.442 183.551 221.451 181.614 222.262 180.157C224.298 176.431 224.712 175.604 226.731 170.901C229.975 163.334 232.01 159.013 235.271 152.754C237.19 149.045 237.29 148.797 237.373 147.638C237.521 145.866 237.24 143.184 236.562 139.955C236.247 138.382 235.767 135.965 235.502 134.574L235.006 132.057L243.215 114.374C247.733 104.654 253.625 91.9547 256.322 86.143C259.02 80.3479 261.271 75.5959 261.32 75.5959C261.387 75.5959 262.098 76.1257 262.909 76.788ZM154.093 240.311C157.419 245.377 159.803 253.59 160.547 262.448C160.779 265.263 160.647 271.141 160.299 273.128C160.084 274.469 158.098 280.264 155.698 286.605C153.067 293.593 150.353 299.173 147.324 303.842L146.199 305.597L146 302.981C145.884 301.54 145.537 296.755 145.222 292.334C143.782 272.349 142.707 262.829 140.754 252.911L140.158 249.947L140.489 249.334C141.631 247.083 146.182 241.321 149.426 237.976L150.849 236.519L152.057 237.777C152.719 238.456 153.63 239.599 154.093 240.311ZM149.409 354.922C151.313 360.767 153.133 365.651 154.937 369.658C155.566 371.066 156.129 372.324 156.178 372.456C156.443 373.052 150.286 372.291 143.815 370.933L141.25 370.403L141.2 369.592C141.018 366.744 143.567 358.813 147.125 351.13L147.854 349.59L148.218 350.965C148.416 351.726 148.962 353.515 149.409 354.922Z" fill="#C89E67"/>
</svg>
