<svg width="417" height="222" viewBox="0 0 417 222" fill="none" xmlns="http://www.w3.org/2000/svg">
<g opacity="0.45" clip-path="url(#clip0_145_5080)" filter="url(#filter0_i_145_5080)">
<path d="M344.181 1.69956C339.94 3.43358 337.365 5.93807 335.58 10.1287C334.283 13.2863 334.073 14.4981 334.118 19.2156C334.179 25.5662 335.087 28.098 338.038 30.187C340.655 32.0976 344.967 32.0566 347.548 30.0964C350.458 27.9517 351.86 24.2486 351.807 18.6238C351.754 13.12 350.61 9.07825 348.201 5.83488L346.52 3.49189L349.676 3.88526C357.923 4.835 360.123 9.35059 355.938 16.9513L353.763 20.8432L353.831 27.98C353.91 36.266 354.128 35.901 347.841 37.715C345.746 38.2793 343.268 39.3917 342.445 40.0649C341.567 40.7991 340.685 41.1099 340.462 40.8701C340.238 40.5698 339.555 38.5802 338.982 36.4081C337.491 30.797 336.936 30.6209 337.317 35.8191C338.13 45.6708 338.635 46.3918 342.868 43.8715C344.298 43.0111 347.329 41.954 349.536 41.5095C356.932 40.0479 358.295 38.0993 358.376 29.1465C358.433 23.4602 358.644 22.4299 360.424 17.7554C362.69 11.8666 362.715 8.66055 360.528 5.41508C357.722 1.14721 349.909 -0.593011 344.181 1.69956Z" fill="#C89E67"/>
<path d="M300.546 24.1322C293.82 26.1923 286.014 30.9847 282.351 35.3746C281.585 36.2287 280.486 36.965 279.878 36.9708C277.832 36.9903 275.145 39.3749 274.065 42.0466C272.714 45.3258 272.742 48.2894 274.152 51.2398C274.773 52.5646 275.281 53.6485 275.282 53.709C275.283 53.83 274.619 53.7758 273.789 53.7232C272.848 53.6112 272.236 53.1936 272.23 52.5888C272.217 51.1977 271.605 50.7802 270.337 51.2761C269.4 51.5875 269.185 52.1944 269.203 54.0693C269.225 56.3676 269.337 56.548 271.837 57.734C274.114 58.801 275.165 58.912 279.807 58.5654C282.735 58.356 285.662 57.9048 286.322 57.5355C287.806 56.6141 287.837 54.0734 286.336 53.2408C285.28 52.646 285.006 52.8906 285.183 54.0986C285.241 54.4005 284.91 54.4641 284.41 54.227C283.911 54.0503 282.969 53.8778 282.361 53.8835C281.311 53.8935 281.309 53.7726 282.626 52.6713C283.393 51.9381 284.594 50.2935 285.3 48.9561C287.796 43.9724 297.757 39.0386 305.552 38.9039C310.362 38.7976 312.417 39.7458 317.769 44.4128C320.669 46.9257 324.836 49.0636 325.437 48.332C325.547 48.21 324.933 47.6714 324.043 47.075C323.208 46.4781 320.754 44.2635 318.577 42.1067C311.377 35.0377 306.001 33.7582 296.353 36.7535C289.462 38.8756 285.284 41.5164 282.446 45.4145C279.553 49.3738 278.012 50.0538 277.986 47.3321C277.956 44.1871 278.99 42.4836 281.416 41.7346C282.795 41.3586 284.277 40.2557 285.315 38.9151C289.084 34.1007 298.54 28.3249 305.381 26.7476C309.132 25.8046 309.962 25.8572 318.045 26.9295C322.807 27.61 327.513 28.291 328.4 28.464C332.333 29.2734 328.781 27.8555 320.629 25.3927C310.592 22.3429 307.051 22.1347 300.546 24.1322Z" fill="#C89E67"/>
<path d="M109.922 27.1571C107.276 28.0292 103.39 32.1793 102.096 35.6394C100.423 40.0104 100.092 45.8203 101.284 49.1357C101.853 50.7634 102.152 53.1196 102.118 55.4184C101.985 58.8674 102.099 59.1688 104.171 61.9315C106.97 65.534 109.303 66.6611 112.225 65.7864C114.486 65.0996 121.074 60.1374 120.131 59.8439C119.798 59.7261 117.869 60.3494 115.831 61.2156C111.15 63.1957 110.044 63.1458 108.255 61.1063C106.13 58.6465 105.564 57.2607 106.215 55.9238C106.54 55.2553 106.634 53.5003 106.396 51.688C105.381 43.8343 105.366 42.2618 105.944 39.0505C106.572 35.3548 108.369 32.4343 110.789 31.0805C112.879 29.9114 116.025 29.337 117.468 29.9282C118.689 30.4004 118.69 30.4609 116.984 31.2635C114.837 32.2517 111.672 36.6974 110.818 39.9114C110.391 41.5486 110.403 42.8187 110.804 44.2666C111.318 45.9553 111.266 46.3187 110.655 46.0221C109.489 45.5493 109.691 49.3581 110.987 51.8862C112.566 55.077 116.066 56.7978 120.32 56.5153C123.249 56.306 124.075 55.9352 125.499 54.4699C128.837 50.8694 129.533 48.5038 129.462 41.0041C129.388 33.202 128.652 31.4548 124.879 30.0391C123.714 29.6268 121.271 28.6217 119.495 27.8523C116.163 26.3719 112.954 26.1605 109.922 27.1571Z" fill="#C89E67"/>
<path d="M327.759 42.3217C326.125 62.419 326.74 74.7525 329.808 83.3729L331.002 86.8093L336.28 89.4205C339.169 90.8447 341.613 92.0312 341.668 92.0306C341.724 92.0301 340.696 88.5921 339.383 84.31C336.305 74.6009 332.846 59.7541 330.505 46.1668C329.51 40.3695 328.632 35.3574 328.574 35.0555C328.461 34.7542 328.105 38.0239 327.759 42.3217Z" fill="#C89E67"/>
<path d="M363.327 38.0514C364.557 39.5518 367.242 42.7926 369.256 45.2534C377.31 54.9151 384.296 68.5186 390.104 86.1256C392.039 91.9139 394.25 97.6391 395.035 98.7809C395.82 99.9227 398.84 103.463 401.69 106.702C406.273 111.8 406.89 112.701 406.908 114.636C406.968 120.866 399.778 120.693 398.004 114.419C396.746 110.076 395.824 111.96 396.972 116.425C397.833 119.683 400.396 121.715 403.603 121.684C406.533 121.656 408.236 120.551 409.429 118C411.271 114.05 409.966 110.615 403.698 102.691C401.403 99.688 398.881 96.2038 398.15 94.8801C397.418 93.4958 393.853 84.9406 390.227 75.8416C382.242 55.9569 380.725 53.4914 368.897 42.4139C361.7 35.5869 360.864 34.9295 363.327 38.0514Z" fill="#C89E67"/>
<path d="M323.575 67.5242C322.289 83.4445 322.402 89.5526 324.046 93.8315C325.124 96.7247 324.791 96.5464 338.155 100.532C350.686 104.224 355.325 103.635 358.312 97.9208C359.291 96.1574 359.443 94.7042 359.444 89.0789C359.458 84.6633 359.707 81.8785 360.196 80.906C361.498 78.2927 365.861 71.9 366.249 72.0173C366.637 72.1346 370.723 77.358 379.684 89.3096C382.596 93.1531 386.342 97.4725 388.125 98.9072C389.963 100.341 392.252 102.618 393.314 103.878C394.993 105.979 395.215 106.098 395.204 104.888C395.184 102.832 394.229 101.269 390.708 97.3099C388.975 95.3303 385.948 91.0041 383.982 87.696C381.677 83.7863 378.373 79.4022 374.517 75.0839C369.598 69.5659 368.141 67.5232 366.053 63.0671L363.513 57.6474L363.371 60.1287C363.225 62.2472 364.03 65.4453 365.732 70.0261C365.959 70.6288 365.031 71.9079 362.948 73.8028L359.879 76.675L355.932 74.4745C352.931 72.8095 350.31 70.4754 344.333 64.1207C336.289 55.6081 336.123 55.5492 338.452 62.0596C341.237 70.0174 349.933 77.435 356.347 77.3739L358.946 77.3492L357.645 80.144C356.507 82.5138 356.298 83.8465 356.335 87.7778C356.363 90.6205 356.057 93.4058 355.572 94.6806C354.871 96.5624 354.651 96.7459 353.706 96.1501C352.094 95.2581 350.29 91.6461 346.381 81.7634C343.548 74.5924 342.478 72.5461 340.298 70.1473C338.846 68.5885 337.618 67.3904 337.509 67.5125C337.399 67.6345 337.856 69.2028 338.537 70.9504C339.162 72.7591 340.981 78.0041 342.574 82.6465C345.477 91.3895 347.111 94.6402 350.011 97.1531L351.739 98.6488L349.248 98.3096C347.863 98.0808 343.76 96.9101 340.098 95.6143C336.437 94.3789 332.39 93.2077 331.06 92.9784C329.676 92.7497 328.454 92.1564 328.172 91.5542C327.213 89.5673 325.835 78.3903 325.711 71.1935C325.618 67.2628 325.397 61.4581 325.146 58.3152L324.759 52.5726L323.575 67.5242Z" fill="#C89E67"/>
<path d="M96.71 56.3773C95.9389 56.6871 93.1255 57.3792 90.421 57.8889C82.3079 59.4783 82.0332 59.6624 65.4172 79.9628C57.2184 89.9607 47.3759 101.547 43.4901 105.758L36.4299 113.386L36.4575 116.289C36.4731 117.922 36.7668 119.734 37.1048 120.396C38.5711 123.406 42.8238 122.882 46.0518 119.282C48.5139 116.537 50.7179 109.923 49.1146 109.938C48.8381 109.941 48.5651 110.306 48.5692 110.73C48.5807 111.939 45.477 116.989 44.0493 118.031C41.688 119.747 40.4728 119.88 39.7961 118.495C38.7255 116.388 40.0288 113.896 43.5419 111.201C47.4398 108.26 51.4862 103.504 68.8607 81.5631C77.4396 70.8357 83.7276 63.3964 84.9917 62.5981C86.1459 61.8612 88.5705 60.9913 90.391 60.5506C93.7014 59.7932 96.5638 58.4353 98.6474 56.6008C99.964 55.4995 98.9118 55.3281 96.71 56.3773Z" fill="#C89E67"/>
<path d="M198.635 58.3705C198.142 58.9196 198.257 59.3419 199.038 60.0603C200.042 60.9581 200.101 61.3809 199.495 67.4354C199.142 70.947 198.565 74.2793 198.183 74.8273C197.255 76.0459 198.201 76.7022 200.021 76.201C202.888 75.3874 205.087 68.229 203.99 63.2795C203.063 58.8727 200.386 56.4183 198.635 58.3705Z" fill="#C89E67"/>
<path d="M128.258 59.6454C141.515 63.9348 149.554 66.2172 154.094 66.8998C164.007 68.4386 178.929 67.6916 185.486 65.2702C188.296 64.2757 193.716 64.345 194.721 65.4242C195.112 65.8439 194.85 67.2981 193.826 70.0902C192.587 73.6103 192.26 74.0973 190.933 74.1099C190.159 74.1173 188.163 73.471 186.496 72.64C184.829 71.8091 183.386 71.2784 183.167 71.462C183.003 71.645 183.117 72.0068 183.396 72.2461C189.802 77.2055 192.627 77.7835 195.085 74.5543C197.814 70.8386 199.629 63.9863 198.178 62.6089C196.894 61.3509 192.625 60.1818 189.474 60.2118C187.594 60.2297 183.838 60.6284 181.078 61.1386C178.374 61.6482 171.578 62.2573 166.052 62.5519C156.877 63.0022 155.328 62.8959 148.072 61.5738C143.752 60.8286 138.16 60.0351 135.725 59.8163C133.29 59.658 130.191 59.3851 128.808 59.2773L126.318 59.059L128.258 59.6454Z" fill="#C89E67"/>
<path d="M274.038 62.3706L272.684 65.2869L264.505 65.7277C260.028 65.9518 246.094 65.9635 233.595 65.7195C221.097 65.5361 209.983 65.4605 208.989 65.5909C207.939 65.7219 217.85 67.0792 230.914 68.6485L254.717 71.5066L262.614 70.4032C266.921 69.8178 270.456 69.4212 270.457 69.5422C270.459 69.6631 269.539 71.8494 268.348 74.4617C263.368 85.6992 254.478 110.221 249.546 126.478C246.596 136.124 243.914 144.799 243.591 145.709C242.677 148.44 243.72 147.644 246.117 143.871C248.678 139.854 261.071 105.803 268.103 83.5976C270.357 76.4386 272.399 70.189 272.671 69.763C272.997 69.0946 285.308 67.1022 299.337 65.4565C303.976 64.8679 304.243 63.8976 299.603 64.3047C291.757 64.9843 274.288 65.3926 274.284 64.9087C274.281 64.6063 274.655 63.272 275.084 61.8767C276.103 58.5402 275.663 58.7259 274.038 62.3706Z" fill="#C89E67"/>
<path d="M124.414 68.3317C124.305 68.4537 121.6 68.9634 118.452 69.3563C113.98 70.0037 109.833 70.0432 98.9906 69.5416C91.4121 69.1903 85.1069 69.0084 84.9421 69.131C84.8333 69.3135 85.4651 71.7874 86.3773 74.6821C89.3969 84.0288 90.5729 91.3971 90.7186 100.892C90.8194 105.67 90.9116 109.54 91.0221 109.539C91.575 109.534 102.501 101.385 106.23 98.1435C114.018 91.4763 119.749 83.5584 124.459 73.0493C126.409 68.7361 126.568 68.0692 125.684 68.0777C125.131 68.0829 124.524 68.2097 124.414 68.3317Z" fill="#C89E67"/>
<path d="M174.54 71.3023C171.727 71.9945 166.922 72.6451 163.495 72.7382C157.47 72.9165 157.249 72.9791 145.68 77.5048C139.235 80.0462 134.058 82.152 134.169 82.2719C134.226 82.3924 136.821 82.0048 139.802 81.4925C142.838 80.9797 151.064 79.5706 158.02 78.4156C170.109 76.3649 170.992 76.1146 175.226 73.7153C177.702 72.361 179.845 70.9494 180.062 70.5844C180.498 69.8544 180.663 69.7923 174.54 71.3023Z" fill="#C89E67"/>
<path d="M128.668 79.542C125.569 85.0153 122.124 89.1007 114.944 95.7622C109.353 100.957 106.619 104.189 107.179 104.849C107.29 104.969 110.755 103 114.824 100.542C123.454 95.2577 126.575 92.0222 129.441 85.2204C130.847 81.8802 131.274 80.243 131.089 78.2487L130.898 75.5891L128.668 79.542Z" fill="#C89E67"/>
<path d="M77.7742 82.7483C76.7837 83.2416 74.6453 85.1371 73.1156 87.0872C71.5301 88.9774 66.762 93.4384 62.5376 96.9264C58.3138 100.475 54.6394 103.655 54.3106 103.961C54.0376 104.326 57.7782 102.295 62.7288 99.586C69.3289 95.8939 72.5155 93.7465 74.8699 91.3046C78.4296 87.702 80.2444 86.6564 81.0305 87.9192C82.0977 89.6631 83.3117 95.2164 83.3411 98.3009C83.3659 100.902 82.7802 103.266 80.2455 110.004C78.4648 114.618 76.5251 119.96 75.8236 121.781C74.909 124.451 74.1995 125.426 72.6047 126.348C68.9764 128.56 63.1245 135.33 56.5814 145.01C53.0925 150.245 49.2706 155.362 48.1746 156.401C47.0228 157.38 43.5068 159.772 40.2626 161.678C29.8695 167.705 25.4412 173.009 18.2848 187.957C15.5739 193.608 11.171 201.574 8.55513 205.591C1.68897 216.181 0.826234 218.488 3.17024 220.764C4.67686 222.202 8.1537 221.503 13.2143 218.733C16.1844 217.072 18.4334 215.175 21.7708 211.454C24.2323 208.648 26.2533 206.028 26.2492 205.604C26.2458 205.241 25.3116 205.855 24.1621 207.076C20.0028 211.591 9.88954 217.978 6.84866 218.007C5.35587 218.022 5.35529 217.961 6.11436 216.381C6.54746 215.409 9.21917 211.452 12.0015 207.494C14.839 203.535 19.3572 196.052 22.235 190.521C30.2715 175.08 32.4577 172.398 42.4033 165.831C45.8646 163.5 49.8166 160.438 51.1844 158.913C52.5522 157.388 56.4236 151.665 59.6891 146.19C65.7305 136.092 70.483 129.998 74.6556 126.873C75.9186 125.954 76.684 125.039 76.4058 124.86C76.0718 124.622 77.7518 121.037 80.253 116.597C87.4826 103.524 87.4826 103.524 87.3639 96.8714C87.2424 89.9166 86.0393 85.5125 83.6406 83.2973C81.7447 81.6217 80.3607 81.4534 77.7742 82.7483Z" fill="#C89E67"/>
<path d="M118.982 101.712C117.202 106.507 114.034 110.59 110.844 112.375C107.928 113.915 98.7597 114.97 93.6662 114.292C88.7392 113.674 85.3672 113.766 83.6048 114.509C82.1731 115.128 82.5066 115.306 88.4391 117.003C94.0388 118.583 95.7551 118.809 102.279 118.747C110.96 118.725 112.502 118.105 116.548 113.228C119.39 109.813 120.958 106.048 121.304 101.75C121.703 97.1494 120.708 97.1589 118.982 101.712Z" fill="#C89E67"/>
<path d="M307.657 120.42C297.679 135.274 293.322 142.211 292.897 144.03C291.567 149.547 293.451 161.566 300.131 189.508C300.937 192.827 301.411 196.21 301.253 196.998C300.989 198.27 301.045 198.391 301.757 197.719C302.799 196.741 302.866 192.204 301.99 187.313C301.175 182.965 297.931 161.644 297.269 156.025C296.135 147.265 296.297 146.901 309.177 123.309C315.481 111.696 321.024 101.603 321.515 100.812C321.95 100.082 322.165 99.4748 322 99.4764C321.889 99.4774 315.399 108.915 307.657 120.42Z" fill="#C89E67"/>
<path d="M322.257 103.345C316.806 111.563 303.279 136.854 303.949 137.574C304.061 137.693 308.675 134.504 314.222 130.52C333.223 116.85 341.747 111.93 351.231 109.178C354.374 108.302 355.75 107.623 355.085 107.448C354.531 107.272 350.322 106.586 345.726 105.904C336.202 104.543 332.212 103.553 327.88 101.537C326.158 100.707 324.714 100.055 324.603 100.056C324.493 100.057 323.456 101.519 322.257 103.345Z" fill="#C89E67"/>
<path d="M358.952 106.988C359.207 110.554 360.002 112.724 368.251 131.276L377.236 151.574L382.322 157.212C388.469 163.988 390.161 167.48 394.213 180.749C395.812 186.056 397.633 191.483 398.309 192.807C398.93 194.132 401.559 197.373 404.073 200.071C408.988 205.226 411.566 208.831 413.039 212.567C414.116 215.279 415.001 215.331 405.239 212.157C401.8 211.041 398.973 210.342 398.976 210.584C398.983 211.31 410.816 217.185 413.032 217.588C416.908 218.216 417.712 215.547 415.282 210.005C413.303 205.427 410.779 201.701 406.532 196.963C402.117 192.045 401.89 191.503 398.397 178.834C394.558 164.777 392.981 161.768 386.224 154.694C380.08 148.281 380.249 148.582 368.527 125.345C364.863 118.061 361.138 110.052 360.285 107.58L358.638 103.059L358.952 106.988Z" fill="#C89E67"/>
<path d="M116.647 117.763C116.65 118.126 117.161 119.512 117.837 120.837C119.079 123.486 120.476 125.046 131.751 136.128C142.524 146.732 144.656 149.978 145.105 156.567C145.425 161.1 145.317 161.343 138.178 172.299C126.19 190.862 125.152 198.009 133.515 205.248C135.187 206.684 137.977 209.258 139.651 210.876L142.72 213.871L139.676 213.476C138.015 213.25 133.256 212.872 129.162 212.609C121.251 212.2 118.645 211.499 118.631 209.987C118.626 209.443 119.766 207.254 121.127 205.064C123.961 200.682 123.959 200.44 125.292 183.733C126.13 173.018 126.875 169.927 130.137 164.028C131.224 162.082 131.982 160.381 131.87 160.262C131.758 160.142 130.501 161.666 129.027 163.676C124.552 169.828 122.735 176.438 121.706 190.299C121.118 198.289 120.581 199.988 117.744 203.947C114.306 208.758 113.941 211.06 116.231 213.518C118.298 215.736 119.684 216.086 134.465 217.941L147.752 219.63L148.735 218.41C149.226 217.68 149.66 216.769 149.656 216.345C149.64 214.712 144.436 208.169 139.862 204.039C132.724 197.634 132.779 197.694 132.965 194.003C133.257 189.826 135.965 183.873 141.794 174.684C148.222 164.521 148.871 162.943 148.818 157.378C148.727 153.689 148.438 152.301 147.253 149.832C145.562 146.401 144.109 144.842 130.998 132.506C125.864 127.656 120.615 122.201 119.326 120.399C116.972 117.034 116.637 116.735 116.647 117.763Z" fill="#C89E67"/>
<path d="M111.959 119.078C106.282 121.007 96.3473 122.916 90.1579 123.278C83.5261 123.643 83.1397 123.708 80.5042 125.668C72.3768 131.552 62.54 143.743 58.1521 153.282C57.0688 155.651 57.014 155.712 62.8833 150.757C79.9991 136.5 97.0758 129.744 111.415 131.604C117.006 132.337 122.664 134.158 127.333 136.775C131.503 139.155 131.392 139.096 130.603 137.531C130.263 136.747 127.076 132.967 123.61 129.068C120.145 125.17 116.9 121.209 116.393 120.185C115.49 118.319 114.715 118.144 111.959 119.078Z" fill="#C89E67"/>
<path d="M331.737 123.397C328.217 125.366 326.298 127.139 317.983 136.533C306.822 148.978 307.417 147.582 309.341 158.027C310.33 163.22 310.337 163.946 309.549 174.055C308.41 187.977 308.454 192.634 309.848 199.698C310.487 202.898 311.025 207.127 311.043 209.002L311.13 212.388L311.998 210.565C312.702 209.047 312.799 207.654 312.295 201.187C311.587 190.669 311.675 188.249 313.513 178.13C315.456 167.224 315.513 161.658 313.731 154.477L312.408 149.167L316.019 145.08C318.043 142.762 322.307 137.641 325.531 133.618C331.76 125.877 332.144 125.51 336.431 122.808C339.18 121.149 339.18 121.088 337.521 121.104C336.581 121.113 333.937 122.166 331.737 123.397Z" fill="#C89E67"/>
<path d="M341.538 124.816C341.763 125.237 342.885 126.92 344.062 128.602C345.183 130.225 347.096 133.654 348.225 136.124C349.41 138.592 355.309 148.335 361.369 157.653L372.369 174.726L379.956 181.792C392.342 193.348 393.743 195.331 395.369 203.541C395.835 205.956 396.408 208.068 396.575 208.248C396.743 208.428 396.718 205.827 396.576 202.501C396.219 194.037 395.263 192.352 383.696 179.639C376.32 171.544 372.346 166.44 364.162 154.783C358.556 146.732 352.33 137.536 350.42 134.349C348.455 131.162 345.766 127.558 344.372 126.301C341.751 124.027 340.807 123.553 341.538 124.816Z" fill="#C89E67"/>
<path d="M91.1747 137.059C86.55 139.16 83.3122 141.731 74.3261 150.345C67.9707 156.515 64.6782 159.147 57.6439 163.69C52.8078 166.821 47.8094 170.317 46.5487 171.478C45.2874 172.579 42.5045 176.476 40.3823 180.065C35.647 187.974 35.0452 188.645 27.9751 195.245C24.8508 198.117 22.3305 200.561 22.3317 200.682C22.3357 201.105 27.834 197.847 31.1301 195.578C35.4143 192.573 38.2583 189.279 42.9463 182.218C47.4696 175.28 49.8821 173.14 57.4227 169.499C62.2662 167.155 72.418 159.013 80.5259 151.073C85.2364 146.37 89.956 142.636 93.2578 140.971C97.3296 138.876 99.1029 139.282 107.442 143.981C115.78 148.68 124.68 154.221 128.801 157.327C130.25 158.462 131.586 159.357 131.751 159.355C132.636 159.347 129.612 155.323 127.216 153.41C123.594 150.481 103.061 136.886 101.118 136.057C98.6202 135.053 94.6429 135.453 91.1747 137.059Z" fill="#C89E67"/>
<path d="M294.644 199.782C290.346 201.336 280.285 207.42 279.306 209.062C277.129 212.712 281.264 217.33 286.739 217.338C288.84 217.318 305.773 212.984 308.857 211.684C309.297 211.438 308.465 211.083 306.914 210.856C305.142 210.51 301.438 210.666 296.468 211.318C287.08 212.496 286.14 212.505 284.859 211.55C283.911 210.772 284.459 210.223 290.882 205.323C294.78 202.382 298.182 199.688 298.512 199.443C299.223 198.65 297.234 198.85 294.644 199.782Z" fill="#C89E67"/>
</g>
<defs>
<filter id="filter0_i_145_5080" x="0" y="0" width="416.738" height="225.682" filterUnits="userSpaceOnUse" color-interpolation-filters="sRGB">
<feFlood flood-opacity="0" result="BackgroundImageFix"/>
<feBlend mode="normal" in="SourceGraphic" in2="BackgroundImageFix" result="shape"/>
<feColorMatrix in="SourceAlpha" type="matrix" values="0 0 0 0 0 0 0 0 0 0 0 0 0 0 0 0 0 0 127 0" result="hardAlpha"/>
<feOffset dy="4"/>
<feGaussianBlur stdDeviation="2"/>
<feComposite in2="hardAlpha" operator="arithmetic" k2="-1" k3="1"/>
<feColorMatrix type="matrix" values="0 0 0 0 0 0 0 0 0 0 0 0 0 0 0 0 0 0 0.25 0"/>
<feBlend mode="normal" in2="shape" result="effect1_innerShadow_145_5080"/>
</filter>
<clipPath id="clip0_145_5080">
<rect width="414.684" height="217.744" fill="white" transform="translate(0 3.94849) rotate(-0.545544)"/>
</clipPath>
</defs>
</svg>
