<svg width="198" height="164" viewBox="0 0 198 164" fill="none" xmlns="http://www.w3.org/2000/svg">
<g opacity="0.45">
<path d="M13.94 0.699888C14.38 1.13808 15.205 2.09662 15.755 2.83607C17.13 4.78055 19.55 6.99889 20.9525 7.6014C21.6125 7.87527 23.3175 8.36824 24.7474 8.72427C29.8074 9.92929 32.6674 11.2713 34.2899 13.2431C35.0324 14.1195 35.7749 16.1187 36.1874 18.2549C36.2974 18.7479 37.3974 20.8293 38.6899 22.8833C39.9549 24.9374 40.9449 26.7449 40.9174 26.8544C40.8074 27.1831 38.9099 25.2934 37.9749 23.924C37.5349 23.3215 36.7099 21.7878 36.1049 20.5007C35.0324 18.1728 33.2449 15.7353 31.3474 13.9826C30.4399 13.1062 26.8374 10.6414 26.5074 10.6414C26.4249 10.6414 25.7099 10.3401 24.9124 9.98407C23.0425 9.13507 21.915 8.80643 11.8225 6.25944C9.62248 5.68432 5.82749 3.46597 4.69999 2.04185C4.34249 1.63105 4.34249 1.57627 4.69999 1.63105C4.89249 1.65843 5.74499 1.49411 6.51499 1.24763C7.31249 1.00114 8.38499 0.891598 8.87999 0.973759C9.51248 1.05592 10.2 0.918985 10.9975 0.535566C12.565 -0.20388 12.9225 -0.20388 13.94 0.699888Z" fill="#C89E67"/>
<path d="M4.9497 2.94562C4.9497 3.08255 5.7197 4.0411 6.65469 5.05442C8.44219 7.05367 9.76219 7.90266 12.4297 8.75166C15.5097 9.7102 19.1122 12.175 23.2372 16.1187C24.4472 17.269 26.5371 18.967 27.9121 19.8708C30.0296 21.2675 31.1296 21.9522 34.5121 23.9788C34.8146 24.1705 35.2546 24.3896 35.4746 24.5265C37.3446 25.4303 40.2321 27.4296 41.5521 28.7989C43.6971 30.9625 46.4196 35.7004 45.8696 36.2756C45.5396 36.5768 45.0721 36.0838 43.5321 33.7012C41.6896 30.8529 39.2696 28.4429 37.2621 27.5117C36.4646 27.1009 35.6671 26.7997 35.5021 26.7997C34.9796 26.7997 31.6796 24.9373 30.0571 23.7323C28.7371 22.7464 24.5847 19.4873 22.4122 17.7072C22.1097 17.4607 21.3122 16.8034 20.6247 16.2557C19.9372 15.7079 19.1122 15.0233 18.7822 14.722C17.3247 13.517 14.0797 11.2713 13.1447 10.8331C12.5947 10.5866 11.5497 10.3675 10.8072 10.3675C9.34969 10.3675 7.6172 9.65543 5.1147 8.06698C3.1897 6.83457 1.8147 6.25944 0.797211 6.25944C0.357208 6.25944 -0.000289917 6.14989 -0.000289917 5.98557C-0.000289917 5.73909 2.58471 4.83532 2.9697 4.94487C3.0797 4.97226 3.4097 4.83532 3.7397 4.64361C4.1522 4.36974 4.2622 4.06849 4.1797 3.49336C4.0972 2.89085 4.1797 2.69914 4.5097 2.69914C4.7572 2.69914 4.9497 2.80869 4.9497 2.94562Z" fill="#C89E67"/>
<path d="M40.6432 15.434C41.5782 15.7901 42.8156 16.283 43.3931 16.5295C44.4656 17.0499 50.1031 21.2675 52.0831 23.0202C52.6881 23.5954 53.2931 24.0609 53.4031 24.0609C53.6506 24.0609 57.7481 29.5109 57.7481 29.8122C57.7481 29.9491 58.1606 29.9217 58.6281 29.7848C60.3606 29.2918 61.9281 29.4836 63.6606 30.3873C64.5681 30.8529 65.5856 31.4828 65.9156 31.8114C66.2731 32.1127 66.5756 32.3318 66.6306 32.2496C66.6581 32.1949 66.9606 31.2911 67.3181 30.2778C68.4456 26.9092 70.3156 24.4444 72.7081 23.2119C74.7156 22.1439 79.6381 22.226 82.0306 23.3763C83.7081 24.1705 85.7431 26.1971 86.6231 27.9773C87.613 30.0039 87.668 30.1956 88.1355 33.9476C88.4105 36.3303 88.4105 37.4258 88.1355 40.1097C87.7505 43.4509 87.6955 43.7796 86.9805 46.1074C85.4681 51.0645 82.1956 54.3235 78.4006 54.6522C75.6231 54.8987 74.4131 54.1866 72.7081 51.311C72.3506 50.6537 71.9106 49.7225 71.7731 49.2569C71.4981 48.3258 71.5806 48.3532 73.0106 49.613C73.3131 49.8868 73.8631 50.2703 74.2481 50.462C74.6331 50.6537 75.2931 51.0371 75.7606 51.2836C76.8881 51.8861 79.1156 51.8587 80.1881 51.2014C81.2331 50.5715 82.7456 47.6137 83.7356 44.1904C84.6706 41.0135 84.8081 36.3029 84.0106 33.8655C83.3231 31.7293 81.8381 29.867 80.1606 29.018C77.6581 27.7308 73.5331 28.2511 71.5531 30.1135C69.9581 31.6197 69.5731 32.9343 69.5456 37.015C69.5181 42.1637 69.3256 42.4102 68.0881 38.576C67.1256 35.5361 66.8781 34.5501 66.8506 33.619C66.8231 33.3725 66.5481 33.0986 66.1906 33.0165C65.8606 32.9343 64.5956 32.6331 63.3856 32.3318C59.4256 31.3459 57.7756 31.0994 56.0981 31.2637C54.0631 31.4828 53.8981 31.3185 52.6331 28.032C51.5056 25.0195 50.7081 23.8966 48.0406 21.4866C45.8131 19.4599 39.8182 15.2971 39.1582 15.2971C38.9382 15.2971 38.7732 15.1602 38.7732 15.0232C38.7732 14.8589 38.8007 14.7768 38.8282 14.7768C38.8832 14.8041 39.6807 15.1054 40.6432 15.434Z" fill="#C89E67"/>
<path d="M51.8354 30.8803C55.2454 31.9758 57.3079 33.3451 59.0954 35.7004C59.9479 36.8506 61.9004 41.3147 62.3129 43.0949C62.4229 43.5057 62.3129 43.4509 61.8179 42.8484C58.1054 38.1926 57.2254 37.4806 55.2729 37.4806C52.8804 37.4806 52.9904 38.1652 55.9604 41.8351C56.7854 42.8484 58.2429 44.9024 59.2329 46.3813C60.2229 47.8876 61.1579 49.2569 61.3229 49.4487C61.4604 49.6404 61.5979 49.8321 61.5979 49.9142C61.5979 50.0512 64.3479 54.2414 66.6029 57.5552C69.1054 61.2524 73.4504 67.0311 74.7154 68.3457C74.8804 68.5374 75.2654 68.9756 75.5404 69.3042C76.1454 70.071 79.0879 72.5359 79.9678 73.0288C81.7279 73.9874 84.8078 75.0007 86.1003 75.0007C88.0803 75.0007 89.4003 74.2065 92.2603 71.3308C96.0553 67.524 99.0803 62.7861 99.8503 59.4449C100.125 58.322 100.098 57.966 99.7128 57.1444C99.1353 55.9394 98.0628 54.8987 96.6603 54.214L95.5603 53.6663L97.3478 53.6389C98.3378 53.6389 99.3278 53.4745 99.5478 53.2828C101.088 52.0504 101.418 47.3125 100.18 44.3273C99.7953 43.4509 99.3828 43.0675 96.2478 41.0135C94.8178 40.0549 93.5803 39.2333 93.4978 39.1238C93.4153 39.0416 92.4528 38.3295 91.3528 37.5079C90.2803 36.7137 89.3728 36.0017 89.3728 35.9743C89.3728 35.8099 91.9303 36.0838 93.9928 36.4398C99.4378 37.3436 102.628 39.5346 103.783 43.1223C104.058 43.9986 104.415 45.0667 104.553 45.5049C104.718 45.9157 104.855 47.2029 104.883 48.3806C104.91 50.3524 104.828 50.7085 103.838 52.6529C102.683 55.0356 102.655 55.912 103.645 58.1851C104.443 59.9926 107.578 62.7039 111.098 64.6484C115.085 66.8668 116.9 67.9896 119.073 69.6329C127.075 75.6032 132.575 81.8748 135.545 88.4203C137.443 92.5831 141.155 100.087 141.87 101.183C142.585 102.305 142.585 102.305 144.703 102.47C147.26 102.689 150.478 103.839 152.843 105.428C153.723 106.03 155.455 107.536 156.638 108.769C158.975 111.206 159.745 112.083 162.275 115.26C164.42 117.943 169.673 125.694 169.673 126.187C169.673 126.351 169.783 126.488 169.948 126.488C170.085 126.488 170.223 126.68 170.223 126.899C170.223 127.118 170.14 127.31 170.058 127.31C169.838 127.31 168.463 125.886 164.723 121.805C159.443 116.054 154.52 111.343 152.073 109.727C148.443 107.345 144.318 105.428 142.805 105.4C141.815 105.4 140.385 103.921 139.56 102.059C138.488 99.649 134.693 93.0213 133.565 91.5698C133.455 91.4055 132.438 89.8992 131.283 88.2012C130.155 86.4758 128.643 84.3396 127.9 83.4085C127.185 82.4773 126.03 80.971 125.343 80.0673C122.923 76.9178 120.338 74.809 114.315 71.057C113.463 70.5092 112.693 70.071 112.638 70.071C112.583 70.071 111.428 69.4137 110.08 68.5921C106.78 66.6203 105.35 65.8261 102.408 64.2924L99.9328 62.9778L99.5753 63.9364C97.8978 68.5648 90.3353 77.7668 86.6228 79.6839C85.0828 80.4781 84.4228 80.4233 82.5803 79.3552C81.0678 78.4788 74.6329 72.3442 72.7079 69.9615C72.2404 69.3864 71.7179 68.9756 71.5529 69.0851C71.0854 69.3864 69.6004 74.1791 69.2704 76.507C68.8304 79.5743 69.1054 82.7238 69.9854 84.4492C70.8379 86.1472 71.7179 87.1331 73.8629 88.7489C75.5679 90.0635 76.4479 91.1042 76.4479 91.8163C76.4479 92.0354 75.7329 93.0761 74.8529 94.1442C73.2579 96.0887 72.3229 98.0879 72.3229 99.5668C72.3229 100.498 72.7629 101.21 74.6604 103.209C75.5954 104.195 76.3104 105.291 76.6954 106.359C77.3554 108.057 77.3554 108.687 76.7229 111.562C76.1729 114.082 77.0529 118.08 79.2254 122.928C79.4179 123.311 79.6379 123.859 79.7754 124.16C79.9954 124.763 81.7279 128.707 82.5253 130.514C82.8278 131.144 83.0478 131.719 83.0478 131.801C83.0478 132.048 85.1928 136.868 86.1553 138.758C87.0628 140.538 87.6678 141.058 89.2628 141.359C90.5278 141.606 90.8028 140.839 90.8303 137.333C90.8578 135.745 90.8853 134.485 90.9403 134.513C90.9678 134.54 91.3803 135.635 91.8478 136.895C92.3153 138.182 92.8928 139.524 93.1403 139.908C93.8278 140.921 94.3228 144.564 94.3228 148.535C94.3228 151.712 94.2403 152.205 93.6903 153.19C93.0303 154.341 90.4728 156.285 89.5103 156.367C89.0428 156.395 89.0428 156.422 89.4278 156.532C90.1153 156.696 90.0328 157.079 89.2628 157.572C88.3828 158.147 88.2453 158.531 87.9703 160.996C87.6403 163.871 87.6678 163.789 87.3928 163.515C87.2553 163.378 87.0903 162.228 87.0353 160.996C86.9803 159.188 86.8153 158.586 86.3478 157.928C85.8803 157.299 85.8253 157.052 86.0728 156.723C86.3478 156.422 86.3203 156.34 85.8253 156.34C85.4678 156.34 84.5328 155.655 83.4328 154.615C81.2878 152.533 81.2604 152.259 82.7453 148.644C84.0378 145.522 84.2853 143.852 83.8728 141.551C83.5428 139.689 83.0203 138.511 81.6453 136.484C81.1778 135.8 79.8029 133.308 78.6204 130.952C77.4379 128.624 76.2004 126.379 75.9254 125.968C74.5229 124.023 72.1854 118.272 71.4704 115.095C71.3054 114.356 71.0854 111.343 70.9479 108.413C70.7004 102.223 70.4254 100.909 68.8029 97.7319C67.3179 94.8562 66.9879 93.7881 66.3829 89.6527C65.6679 84.8874 65.6679 70.6462 66.3829 66.5107C66.6579 64.9223 67.0154 63.416 67.1529 63.1421C67.4004 62.6492 66.7129 61.5537 64.5679 58.9793C61.7904 55.6381 57.1429 49.5856 55.4104 47.066C52.1654 42.3554 51.4504 41.4243 48.7004 38.4939C46.2804 35.8647 46.1979 35.7552 46.1979 34.4954C46.1979 33.0165 46.6104 31.565 47.2429 30.8255C47.7654 30.223 49.9104 30.2504 51.8354 30.8803Z" fill="#C89E67"/>
<path d="M90.9129 46.0253C89.8129 48.1889 89.7854 48.2984 89.7854 51.0097C89.8129 54.2962 90.1154 55.063 92.1504 56.6514L93.5254 57.7195L92.7554 57.8838C92.0679 58.0208 91.3529 58.2125 89.4829 58.7055C88.3829 58.9793 86.9529 60.7321 85.3854 63.6351C84.5329 65.2235 83.7079 66.9763 83.5429 67.5514L83.2404 68.5648L82.8829 67.2502C82.5254 65.8808 81.8929 64.7306 81.1229 64.0459C80.8479 63.8268 79.7479 62.8409 78.6479 61.855C77.5479 60.869 75.8979 59.4723 74.9629 58.7328C70.0954 54.8439 68.7204 53.4745 66.7404 50.4894C64.2655 46.7921 62.423 43.2866 64.2105 45.724C65.6404 47.6411 72.0204 53.7484 74.9079 55.9668C75.5129 56.4049 76.3104 57.0622 76.7504 57.3909C77.1629 57.7469 77.5754 58.0208 77.6579 58.0208C78.3454 58.0208 82.0854 61.855 82.8554 63.3886L83.5429 64.7306L84.1479 62.6766C84.9729 59.9653 85.3304 59.2806 86.8429 57.6921L88.1079 56.3502L87.5029 53.2554C87.1729 51.5575 86.8979 49.8321 86.8979 49.3939C86.8979 47.8876 87.9429 46.3265 89.8129 45.012C90.8029 44.3273 91.7104 43.7796 91.8204 43.7796C91.9579 43.7796 91.5454 44.7929 90.9129 46.0253Z" fill="#C89E67"/>
<path d="M100.154 80.4507C100.869 80.9163 101.639 81.5462 101.859 81.9022C102.079 82.2582 103.399 83.518 104.802 84.7231C106.177 85.9281 107.442 87.0509 107.634 87.2153C107.964 87.5165 113.712 91.8437 116.737 94.062C119.789 96.3077 127.077 101.128 128.232 101.648C129.442 102.223 131.834 102.662 133.897 102.662C135.299 102.662 135.354 102.689 135.162 103.264C135.052 103.62 134.887 104.524 134.832 105.291C134.722 106.468 134.804 106.797 135.409 107.509C136.454 108.741 138.407 109.618 142.449 110.631L144.512 111.124L140.112 111.042C133.897 110.932 133.402 110.686 129.909 106.331C129.414 105.729 126.939 103.867 124.134 101.977C119.019 98.5809 112.282 93.8155 109.174 91.4329C104.362 87.7356 99.3568 84.86 96.6068 84.2027L94.9018 83.8193L94.3243 84.7778C94.0218 85.2982 93.7743 85.7638 93.7743 85.8185C93.7743 86.0924 90.8043 91.9258 90.1443 92.9391C89.1818 94.4728 87.5318 95.9791 86.1843 96.6364C84.6993 97.3211 83.1593 98.663 82.5818 99.7585C82.2794 100.279 82.1143 101.265 82.1143 102.388C82.1143 104.743 82.8018 106.003 84.9468 107.701C87.6968 109.837 88.3018 111.672 88.8243 119.231C88.9618 121.339 89.1543 123.914 89.2643 124.982C89.5393 127.748 89.1818 127.063 88.8243 124.16C88.4118 120.792 87.8618 118.053 86.9543 115.123C86.2118 112.685 86.1843 112.63 83.7093 110.193C80.5469 107.071 79.4744 105.291 79.4744 103.154C79.4744 101.21 80.1619 98.4987 80.9869 97.0198C81.8669 95.5135 83.7918 93.8155 85.4143 93.1035C87.4768 92.1723 94.6818 84.6409 94.4068 83.7097C94.3243 83.4633 95.3143 81.2723 95.7543 80.7246C96.7993 79.4374 98.3943 79.3552 100.154 80.4507Z" fill="#C89E67"/>
<path d="M139.726 112.329C140.139 112.658 141.294 113.534 142.339 114.301C143.384 115.04 145.886 116.903 147.921 118.409C152.789 122.024 152.734 121.997 155.456 123.832C156.776 124.708 159.031 126.05 160.516 126.789C165.411 129.309 166.703 130.213 168.711 132.431C174.018 138.265 176.438 140.456 177.538 140.456C178.363 140.456 177.291 138.292 174.183 133.554C171.406 129.336 170.773 127.556 172.698 129.309C173.963 130.432 177.566 133.444 180.288 135.663C187.411 141.414 188.648 142.893 188.648 145.55C188.648 147.083 188.153 148.891 187.576 149.603C187.191 150.041 186.861 150.096 184.936 149.959C183.726 149.904 182.351 149.685 181.911 149.493C181.443 149.302 180.701 148.973 180.206 148.754C179.738 148.562 178.061 147.083 176.493 145.495C174.926 143.906 172.918 142.071 172.011 141.414C169.096 139.333 165.493 135.252 165.136 133.664C164.971 132.815 164.283 132.13 162.908 131.39C162.468 131.144 161.368 130.541 160.461 130.048C155.814 127.502 148.444 122.161 146.464 119.943C145.749 119.094 143.659 116.903 141.816 115.04C140.001 113.206 138.626 111.699 138.764 111.699C138.901 111.699 139.341 112 139.726 112.329Z" fill="#C89E67"/>
<path d="M190.051 149.658C190.243 149.877 191.646 151.082 193.158 152.314C196.596 155.053 197.998 156.504 197.998 157.299C197.998 157.627 197.943 157.956 197.833 158.038C197.641 158.257 192.333 155.929 184.523 152.15C179.766 149.849 179.078 149 183.258 150.534C186.036 151.575 187.713 152.122 188.868 152.369L189.776 152.561L189.583 150.89C189.391 149.137 189.446 148.945 190.051 149.658Z" fill="#C89E67"/>
</g>
</svg>
