<svg width="199" height="199" viewBox="0 0 199 199" fill="none" xmlns="http://www.w3.org/2000/svg">
<g opacity="0.45">
<path d="M103.206 18.9336C102.295 18.6926 100.147 18.7594 99.8381 19.0418C99.5292 19.3242 99.7779 19.7268 100.874 20.7435C102.943 22.6859 104.745 25.0932 106.067 27.7072L106.671 28.8699L107.146 28.4424C107.93 27.7325 108.128 28.1125 108.1 30.327L108.086 32.3284L108.425 31.2925C109.203 28.9009 109.329 26.5111 108.725 24.9832C108.493 24.4055 107.145 23.1308 106.86 23.2229C106.788 23.2459 106.993 23.7933 107.327 24.4164C108.336 26.3616 107.438 25.9076 105.378 23.4401L104.214 22.0279L105.445 22.4659C106.128 22.7151 106.815 22.911 106.995 22.9182C107.553 22.9471 108.574 23.8574 109.01 24.7085C109.498 25.6736 109.663 27.4081 109.441 29.1894C109.283 30.5063 108.448 33.621 108.258 33.6824C108.204 33.713 107.451 32.6117 106.609 31.2519C104 27.0433 101.507 23.5802 100.033 22.1765L99.2705 21.4176L99.9233 21.5984C100.709 21.8017 100.821 21.5046 100.13 20.9967C99.2621 20.3371 98.2695 20.2789 97.0942 20.8149C95.4331 21.5728 94.6455 22.2447 94.1779 23.2961C93.8798 23.9666 93.8394 24.2407 94.0096 24.4076C94.7311 25.0753 95.3222 24.8453 95.844 23.672C96.0609 23.1844 96.3119 22.8032 96.3969 22.841C96.5839 22.9242 96.9195 24.643 96.8694 25.2596C96.8493 25.4879 96.9112 25.99 97.0341 26.3549L97.2186 27.0393L95.501 26.2755C93.9535 25.5873 93.678 25.5195 92.8419 25.5675C91.7951 25.6313 91.8019 25.616 91.903 27.3584C91.9837 29.1465 92.3224 30.7207 92.8542 31.8151C93.3963 32.9322 93.4037 33.3735 92.9105 33.1542C92.4684 32.9576 92.7374 33.3145 93.7518 34.3314C94.8648 35.4469 97.2732 36.7187 99.2726 37.2611C99.9765 37.4646 100.745 37.6603 100.997 37.7357C101.357 37.8412 101.476 37.9855 101.572 38.5027C101.682 39.0807 101.828 39.2553 102.934 40.0209C108.041 43.6061 112.136 45.208 114.252 44.4336C115.074 44.1421 116.15 42.5944 117.319 40.0114C118.467 37.4742 118.731 36.2407 118.626 34.0951C118.399 30.1615 114.578 25.0127 109.499 21.823C107.907 20.823 104.655 19.3405 103.206 18.9336Z" fill="#C89E67"/>
<path d="M89.4377 32.1378C86.9658 31.6044 80.9899 31.3013 78.4443 31.5747C75.6711 31.8564 72.5119 33.1892 71.3853 34.5316C71.2224 34.7147 71.5009 34.5465 72.0136 34.1722C73.236 33.2557 75.05 32.4745 76.8407 32.0662C80.4732 31.2723 87.847 32.1422 90.1537 33.6426C91.1233 34.2563 91.4326 34.2478 92.0536 33.5384L92.4405 33.1264L91.6344 32.7862C91.1923 32.5895 90.196 32.3107 89.4377 32.1378Z" fill="#C89E67"/>
<path d="M94.3111 35.3651C94.2907 35.4109 94.3187 35.9891 94.3639 36.6663C94.4575 37.9673 94.6719 38.1721 95.2659 37.5237C95.7987 36.921 95.9723 37.126 95.5552 37.8349C95.0025 38.7572 93.3174 41.7677 92.4835 43.368C91.375 45.4486 90.9516 46.4466 91.01 46.9106C91.0617 47.3899 91.8106 48.1792 92.4738 48.4742C92.882 48.6557 92.9363 48.6251 93.0546 48.1301C93.1358 47.856 93.2469 47.1023 93.3207 46.4781C93.4885 44.91 95.4131 40.6737 96.9023 38.5617L97.9437 37.0901L96.8112 36.6595C96.1787 36.4329 95.3657 36.0167 95.0084 35.7665C94.6342 35.5088 94.3314 35.3194 94.3111 35.3651Z" fill="#C89E67"/>
<path d="M76.3242 29.5393C74.5495 29.2246 71.6125 29.1414 69.485 29.3451C65.23 29.7526 61.4961 30.9577 57.6753 33.1827C56.9554 33.6109 55.9364 34.1616 55.4031 34.399C54.8154 34.6669 54.1296 35.2015 53.5866 35.7814C52.4361 37.0401 51.2679 37.8348 49.5932 38.5319C47.5006 39.39 45.3411 41.0397 42.4969 43.9545C40.5486 45.9536 40.0771 46.6018 40.0171 47.4694C39.9674 48.3599 40.4339 48.9141 41.8217 49.6408L43.0021 50.2387L41.9043 52.7073C40.3592 56.1816 40.0091 58.5264 40.5782 61.9188C40.8627 63.6149 42.111 66.5793 43.2349 68.1742C44.2772 69.678 46.3095 71.8412 47.5447 72.7737C49.1711 73.9716 50.5325 75.2158 53.2115 77.9403C56.2036 80.9683 61.63 86.8127 61.5792 86.9727C61.5589 87.0184 61.246 86.8975 60.8922 86.6854C60.5384 86.4733 60.2391 86.3219 60.2255 86.3524C60.212 86.3829 60.148 86.8473 60.0808 87.3649C60.017 87.9206 59.6076 89.2534 59.086 90.5181C58.2291 92.674 58.2087 92.7197 57.5871 92.9726C57.1387 93.1565 56.5846 93.1656 55.5001 92.9936C54.6467 92.8514 53.7629 92.8234 53.3959 92.9157L52.7844 93.1L51.6103 92.1216C45.4234 86.8881 38.7309 84.715 33.7264 86.3041C25.8169 88.7915 22.9927 98.6692 26.1263 112.784C27.0431 116.86 27.8011 119.278 29.2233 122.63C33.9399 133.689 43.4298 143.038 52.0222 145.107C55.7353 146.01 59.3137 145.429 61.6801 143.543C62.2811 143.062 62.7904 142.65 62.8379 142.634C62.8617 142.627 63.0728 142.885 63.2841 143.234C63.945 144.313 65.5313 145.968 66.5724 146.65C70.4409 149.264 74.2458 147.853 75.0588 143.506C75.3287 142.075 75.2615 140.256 74.8856 138.811C74.7386 138.271 74.6427 137.754 74.6766 137.678C74.7376 137.541 82.7148 132.474 86.9429 129.882C92.6008 126.412 93.9354 125.563 93.898 125.51C93.8401 125.411 90.9445 123.357 90.7405 123.266C90.6384 123.221 89.5917 123.376 88.4466 123.615C86.0985 124.086 86.2481 124.116 82.6465 122.733L80.3815 121.872L79.8463 120.74L79.294 119.6L78.9649 120.019C78.7104 120.362 78.7043 120.834 78.9316 122.888C79.3586 126.783 79.5029 127.833 79.5609 128.023C79.6018 128.114 79.9179 128.09 80.2746 127.975L80.9065 127.745L80.8265 126.414C80.6703 124.154 80.6194 124.223 81.8304 124.889C83.2217 125.654 83.3344 125.996 82.7042 127.413L82.2298 128.48L79.0307 130.452C77.2851 131.537 75.5566 132.63 75.2136 132.898C73.3801 134.272 71.1381 132.856 70.2976 129.799C70.0072 128.757 69.1036 119.613 68.7698 114.317C68.7108 113.488 68.5375 111.129 68.3748 109.068C68.2189 106.991 68.1382 105.203 68.1992 105.065C68.3482 104.73 70.9877 103.604 74.3444 102.469C76.5289 101.725 77.4766 101.288 78.2168 100.723C80.8923 98.6457 81.9468 96.7784 81.3055 95.1974C80.9303 94.3005 80.7708 94.4303 79.9067 96.3275C78.2972 99.9009 76.0323 101.467 68.874 103.96C65.0927 105.272 62.8302 106.146 62.7624 106.298C62.6269 106.603 62.2795 106.102 61.1616 104.035C60.5039 102.811 59.6043 101.262 59.1683 100.593L58.3576 99.393L58.9308 98.5163C60.0364 96.763 61.5094 95.1914 63.577 93.5191C64.7246 92.5875 65.9995 92.7895 67.5514 94.1549L68.3648 94.8451L67.8059 93.8118C67.4923 93.2343 66.8622 92.3153 66.3549 91.7612L65.4732 90.7667L65.5283 91.284C65.5697 91.7405 65.5053 91.8396 65.1046 92.0995C64.8431 92.2752 64.184 92.4749 63.6538 92.5677C61.8697 92.8694 60.7154 93.8162 58.8566 96.5304C57.5167 98.4898 57.639 98.3982 57.1555 97.8364C56.8014 97.4417 56.7876 97.2895 57.0047 96.9845C57.1404 96.7711 57.4796 96.2831 57.7136 95.8944C58.8599 94.0496 60.4318 92.7592 62.5549 91.8782L64.1278 91.227L63.8176 90.5963C63.6471 90.2467 63.5548 89.8589 63.6022 89.7522C63.6497 89.6456 63.5641 89.2425 63.4004 88.8777C63.2299 88.4368 63.2057 88.1705 63.3722 88.1168C63.5149 88.0707 63.4463 87.6752 63.1734 87.0063C62.7846 86.0485 62.7946 85.8887 63.1263 84.9594C63.8949 82.8189 65.9116 81.2153 69.5739 79.8506C71.0109 79.3216 70.9702 79.3217 69.1627 79.905C65.7074 81.0332 63.7651 82.3779 62.5547 84.5044C62.202 85.1142 61.8798 85.6097 61.8458 85.5946C61.8118 85.5794 61.3011 84.9873 60.7392 84.2811C59.5713 82.8309 55.4792 78.2916 53.6512 76.4019C51.6972 74.3831 49.9684 72.866 48.0766 71.5319C46.0623 70.1068 44.7893 68.8472 44.0328 67.5252C42.7208 65.2078 41.7446 59.937 42.1417 57.1203C42.33 55.6891 42.7981 55.003 43.8445 54.6652C44.6769 54.3966 45.469 54.4933 47.2884 55.1199C48.2576 55.4597 48.5126 55.4818 48.5497 55.261C48.6307 54.8955 48.1067 54.5165 46.617 53.8357C45.8585 53.4802 45.1849 53.0711 44.8955 52.7599C44.1091 51.9174 44.0252 50.2739 44.7863 50.0283C44.929 49.9823 45.3812 50.1104 45.7928 50.3299C46.3405 50.61 46.6057 50.6549 46.7414 50.5328C47.1318 50.1588 46.8455 49.6117 45.5725 48.352C44.8645 47.6539 44.2653 46.9859 44.2379 46.8642C44.1489 46.4231 47.7893 48.772 48.045 49.342C48.1882 49.6612 48.5759 49.7971 48.6775 49.5686C48.8334 49.2181 48.4111 48.6105 47.4275 47.7533C46.9068 47.321 46.4065 46.843 46.3281 46.6986C46.0589 46.2504 47.5109 44.2678 48.2516 44.0679C48.6899 43.9525 48.707 43.9601 48.5685 44.5921C48.4772 44.9348 48.461 45.4751 48.5124 45.7718C48.5983 46.4488 49.3848 47.3826 50.1161 47.7078C50.4052 47.8364 50.7625 48.0865 50.8986 48.2383C51.1097 48.4965 51.2389 48.4809 51.6599 48.1753C52.7295 47.3733 54.6123 47.1703 60.3568 47.2609C62.4405 47.2932 64.1604 47.2732 64.1875 47.2122C64.4925 46.5265 58.6103 45.2796 55.8335 45.4319C54.8852 45.503 53.1692 45.835 51.5621 46.2884C50.4409 46.6111 50.1823 46.4596 50.6539 45.8115C51.1525 45.1024 52.341 44.262 53.3432 43.8864C54.5492 43.4189 56.0176 43.4148 57.7586 43.897C59.4723 44.3488 60.2168 44.3696 63.2618 44.0263C66.154 43.7063 66.7318 43.6895 66.8306 43.8795C66.8716 43.9707 66.6646 44.2071 66.3793 44.3906L65.8461 44.7193L66.74 44.6787C67.7801 44.6302 68.0992 44.3706 68.6549 43.121C69.1292 42.0544 69.8082 41.4437 71.3094 40.6329L72.2672 40.128L71.4009 40.4729C70.9185 40.6416 70.0966 41.1157 69.5533 41.5129C69.01 41.9101 68.3512 42.2924 68.0963 42.3616C67.5867 42.5 61.8566 43.0181 60.4392 43.0449C59.909 43.0464 59.2255 42.8884 58.5147 42.6088C57.287 42.1176 56.7737 42.1266 54.0689 42.7125C51.4116 43.283 49.9092 43.2719 49.633 42.6563C49.408 42.1547 49.7198 41.545 50.6532 40.5912C53.4534 37.7298 56.3277 36.8543 61.111 37.4118C62.4063 37.568 62.5354 37.5525 61.8553 37.3413C59.951 36.7682 57.5274 36.676 55.1928 37.1162C54.503 37.2475 53.8913 37.3405 53.8403 37.3178C53.7893 37.2951 53.806 37.1201 53.8941 36.922C54.26 36.0991 61.2495 32.0161 63.9368 31.0575C66.4271 30.1755 69.5501 29.7026 72.871 29.701C74.455 29.7119 76.3552 29.7903 77.0963 29.8643C78.8199 30.065 78.405 29.8988 76.3242 29.5393ZM48.6856 93.431C50.6011 94.7574 50.6658 94.8409 50.0001 95.1471C49.7181 95.2773 49.4702 95.4226 49.4499 95.4683C49.4363 95.4988 49.7085 95.7111 50.0556 95.9384C50.5659 96.2566 50.7362 96.5149 50.8968 97.1156L51.1155 97.9064L52.0874 97.7363C52.6243 97.6283 53.1375 97.6192 53.226 97.6951C53.5697 97.9757 53.0237 98.8828 51.3508 100.858C49.0807 103.536 46.9463 106.091 44.5608 108.936C43.4851 110.21 42.026 111.933 41.3269 112.772C40.6347 113.596 40.0715 114.313 40.0817 114.336C40.4496 114.883 40.7629 115.278 40.8309 115.308C40.8989 115.338 41.2519 115.002 41.6456 114.575C42.5077 113.644 43.2243 113.269 43.7345 113.496C43.9318 113.602 44.5408 114.019 45.0853 114.444L46.0619 115.225L44.4192 114.567L42.7833 113.895L41.6123 115.017C40.6584 115.925 40.2882 116.162 39.7003 116.247C39.2891 116.301 38.7796 116.531 38.5556 116.76C38.3316 116.989 38.0022 117.226 37.8255 117.257C37.642 117.303 37.513 117.41 37.5301 117.509C37.5713 117.782 37.0814 117.51 36.2476 116.774C35.4751 116.084 35.0669 115.902 34.9382 116.192C34.8975 116.283 34.5409 116.49 34.123 116.651C33.2398 116.988 33.1482 117.148 33.5839 117.542C33.7541 117.709 34.2544 118.187 34.7003 118.605C35.6975 119.523 35.9465 120.108 35.8494 121.196C35.7592 122.27 36.0738 123.578 36.5025 123.896C36.9755 124.252 38.3418 124.203 38.8716 123.836C39.1093 123.668 39.5543 123.538 39.8637 123.529C40.4007 123.512 41.2566 123.053 41.4192 122.688C41.4599 122.596 41.3638 121.988 41.193 121.364C40.882 120.186 40.8985 119.828 41.2791 119.796C41.5952 119.773 45.467 122.334 55.9872 129.549C57.2835 130.436 58.7635 131.459 59.3011 131.808L60.2674 132.475L60.8 131.781C61.0918 131.4 61.5297 131.01 61.7913 130.926C62.25 130.765 62.25 130.765 60.8522 130.198C60.0903 129.896 58.7025 129.169 57.7601 128.586C54.0314 126.252 48.8875 123.07 46.2509 121.442C44.2641 120.229 44.2914 120.26 44.7191 119.848C45.4489 119.168 47.0094 117.033 47.1006 116.599L47.2053 116.135L47.8044 116.712C48.1345 117.023 48.8905 117.979 49.4899 118.83C51.9626 122.339 54.1851 124.349 56.9231 125.567C59.474 126.701 61.4361 127.282 64.071 127.723C64.4109 127.783 64.4147 128.004 64.1059 130.805C63.8408 133.188 62.8223 136.44 62.0927 137.302C61.8484 137.577 61.8212 137.546 61.582 136.71C61.4318 136.223 61.2708 135.349 61.219 134.778C61.1531 133.873 61.1224 133.804 61.0144 134.322C60.8387 135.083 60.8781 136.506 61.0803 137.655C61.2072 138.423 61.1939 138.636 60.8917 138.903C60.7118 139.079 60.4435 139.179 60.3244 139.126C59.8482 138.914 48.388 130.331 43.1749 126.297C40.9086 124.523 40.7453 124.432 40.3375 124.525C39.9162 124.648 39.9162 124.648 40.2021 124.921C40.4778 125.171 50.1244 132.381 56.8242 137.332C58.3384 138.461 59.6621 139.47 59.7473 139.599C60.0231 139.941 58.7496 140.743 57.1153 141.258C51.6997 142.992 44.4141 139.588 38.0543 132.361C36.4814 130.585 34.3254 127.509 33.1906 125.435C28.5456 116.963 26.4283 105.234 28.2708 98.2056C30.0592 91.3899 35.6121 88.2013 42.2568 90.2071C43.8754 90.6896 46.9878 92.2562 48.6856 93.431ZM57.9484 103.245C58.2755 103.792 58.9638 104.992 59.4546 105.904C60.6338 108.107 60.5082 108.252 58.3211 107.17C56.9979 106.527 56.5794 106.232 55.936 105.526C55.1054 104.645 54.6485 103.657 54.7495 102.972C54.7831 102.713 55.1124 102.385 55.727 101.965L56.6574 101.338L57.0014 101.801C57.1785 102.045 57.6043 102.69 57.9484 103.245ZM55.1553 101.51C54.762 102.211 53.1355 103.349 51.505 104.084C50.6659 104.46 49.9594 104.766 49.9083 104.743C49.8233 104.705 50.3121 104.248 52.9328 101.836C54.3789 100.507 54.3789 100.507 54.8857 100.788C55.3586 101.053 55.3893 101.121 55.1553 101.51ZM65.1435 109.876C65.4688 111.572 65.8487 113.42 65.9651 113.983C66.0882 114.53 66.5263 116.66 66.9405 118.706C67.6972 122.546 68.5083 126.448 68.9977 128.783C69.1551 129.528 69.2411 130.205 69.2072 130.281C69.1665 130.373 69.3471 130.654 69.616 130.919C70.3955 131.686 71.4105 133.159 72.0207 134.398C72.5969 135.622 72.6246 136.017 72.0804 135.775C71.5702 135.548 70.8504 136.068 70.6407 136.814C70.2653 138.162 71.1006 139.902 72.376 140.47C73.0392 140.764 73.0597 140.81 72.9483 141.381C72.8808 141.716 72.5827 142.387 72.291 142.859C71.6773 143.919 70.7978 144.477 69.5131 144.617C68.7145 144.718 68.4731 144.666 67.1636 144.083C65.9051 143.524 65.5751 143.304 64.8227 142.477L63.9377 141.535L65.0827 138.869C65.7163 137.398 66.2343 136.004 66.2544 135.776C66.2908 135.099 66.5463 135.486 67.0788 137.037C67.6624 138.702 67.9418 139.173 68.6631 139.658C69.0373 139.916 69.1869 139.946 69.2615 139.778C69.3157 139.656 68.974 138.409 68.4859 136.987L67.6325 134.418L68.2134 134.165C68.655 133.996 68.8858 133.752 69.1094 133.249C69.516 132.335 69.2022 131.575 68.2329 131.144C67.8587 130.978 67.4745 130.88 67.3828 130.948C67.0194 131.17 66.9443 130.881 66.9933 129.534C67.0657 127.814 66.7743 123.706 66.4378 121.348C65.8612 117.423 64.48 111.826 63.2995 108.709L62.8491 107.523L63.6677 107.102C64.1195 106.865 64.5033 106.689 64.5067 106.727C64.517 106.75 64.8011 108.172 65.1435 109.876ZM61.4463 110.586C62.1665 112.677 63.1543 116.547 63.6237 119.202C63.8053 120.213 63.9323 121.073 63.9188 121.103C63.79 121.393 63.4593 120.717 62.6439 118.565C62.1185 117.182 61.491 115.753 61.2118 115.373C59.9276 113.451 57.2972 113.778 53.2049 116.339C52.6174 116.698 52.8111 116.675 54.3808 116.168C56.3785 115.524 58.8116 115.091 59.2368 115.28C59.6279 115.454 59.625 115.781 59.2624 116.55C58.9269 117.259 58.0749 118.121 57.6943 118.153C57.2899 118.192 57.1651 118.885 57.4752 119.424C57.9351 120.176 58.3227 120.221 58.512 119.52C59.0834 117.365 60.0032 116.442 61.1086 116.933C61.5678 117.138 61.7074 117.328 61.8306 117.875C62.046 118.81 61.7884 119.298 60.5662 120.306C59.7548 120.986 59.4121 121.436 58.89 122.426C58.5375 123.127 58.2936 123.676 58.3649 123.653C58.4193 123.622 59.1799 123.103 60.0458 122.484C60.9117 121.865 61.7029 121.323 61.8218 121.284C61.9237 121.238 62.4613 121.587 63.0874 122.103L64.156 122.998L64.2605 124.778C64.3333 125.759 64.3004 126.566 64.1883 126.589C63.8451 126.674 62.0806 126.382 60.5199 125.998C58.6667 125.539 56.6156 124.518 55.2578 123.403C54.7474 122.993 53.5254 121.756 52.5109 120.648C49.6308 117.506 47.3128 115.252 45.5365 113.841C44.5361 113.068 44.5119 112.802 45.2888 111.742C46.1369 110.568 46.5975 109.44 46.3523 109.075C46.182 108.817 46.2225 108.634 46.5617 108.146L46.9891 107.552L46.8717 108.595C46.7171 109.858 46.7964 110.642 47.1649 111.645C47.5198 112.588 48.0164 112.845 49.114 112.622C50.4358 112.352 51.6324 112.409 52.7172 112.764L53.7272 113.103L54.7085 112.408C55.6967 111.698 56.7601 111.368 58.1027 111.326C58.8504 111.293 58.8063 111.347 59.4224 109.595C59.6053 109.092 60.4609 108.45 60.6924 108.663C60.7468 108.724 61.0948 109.59 61.4463 110.586Z" fill="#C89E67"/>
<path d="M91.6864 36.4614C91.2481 36.5767 90.8541 36.7299 90.827 36.7908C90.7999 36.8518 90.977 37.0948 91.2016 37.3224C91.685 37.7928 91.5733 38.0898 90.9612 37.9089C90.4341 37.7657 90.216 37.3403 90.2931 36.6629C90.3301 36.3509 90.2789 36.2369 90.2044 36.4045C89.9603 36.8616 90.2424 39.0673 90.6139 39.7434C90.8081 40.0853 91.1726 40.5941 91.4177 40.8673C91.8603 41.3378 91.9113 41.3605 92.2611 41.1694C92.6211 41.001 92.6007 40.9554 92.1923 40.5913C91.7226 40.1817 91.0682 38.9966 91.1766 38.7528C91.2173 38.6614 91.5369 38.7671 91.9622 39.0474C92.8263 39.5777 93.0369 39.4706 93.1814 38.367C93.4572 36.4642 93.1542 36.0922 91.6864 36.4614Z" fill="#C89E67"/>
<path d="M84.0512 33.7044C83.9902 33.8415 84.066 34.4957 84.2232 35.1497C84.6336 36.8836 84.4571 37.0972 82.5809 37.1024C81.9045 37.1119 81.629 37.0441 81.4452 36.8164C80.4305 35.6168 77.6579 33.9275 77.1791 34.2256C77.0398 34.3097 77.1181 34.3628 77.4003 34.4153C78.0157 34.5429 78.642 35.15 79.6945 36.6766C80.219 37.4209 80.8387 38.2258 81.0974 38.4686C81.3323 38.7191 81.4959 38.9926 81.4484 39.0993C81.3332 39.3583 80.446 39.2923 79.7147 38.9671C78.8134 38.5663 76.9806 38.0615 75.2466 37.7467L73.7608 37.4693L74.2577 37.9092C74.5334 38.1596 75.6906 39.2218 76.8613 40.2534C81.153 44.1149 82.4744 45.9071 82.7326 48.2122C82.8908 49.5054 83.5109 50.4929 84.4394 50.9241C85.1707 51.2493 86.3316 52.5321 86.5434 53.2469C86.6834 53.7107 86.7379 53.7714 86.7715 53.5126C86.795 53.3223 86.8928 52.7817 86.9737 52.3249C87.0784 51.8604 87.1762 51.3198 87.2133 51.0991C87.2774 50.726 87.3046 50.7564 87.87 51.5919C88.2072 52.0703 88.8711 52.8219 89.3782 53.2847C90.0896 53.9295 90.2973 54.2409 90.4274 54.8646C90.5164 55.3057 90.5679 55.6936 90.5544 55.7241C90.5341 55.7698 90.5242 56.021 90.5178 56.3102C90.4981 56.8125 90.5219 56.8048 91.5405 55.9801C92.705 55.0561 93.5001 54.8256 94.5304 55.1195C94.9147 55.2174 95.2954 55.2772 95.3633 55.2162C95.4415 55.1779 95.1214 54.7983 94.6755 54.381C93.7668 53.5388 92.7499 53.1231 91.6486 53.1262C91.3053 53.1195 90.9007 53.0674 90.7477 52.9993C90.2715 52.7875 90.3107 51.6916 90.8693 50.1149C91.3229 48.82 91.3668 48.5839 91.1181 48.1813C90.8285 47.6875 90.5671 45.527 90.6883 44.7049C90.8028 43.9892 90.3324 43.0317 89.1713 41.6576C88.4665 40.8148 88.085 40.2071 88.0607 39.8495C88.0501 39.5528 88.273 38.5933 88.5777 37.725C88.8892 36.8414 89.0786 36.2321 88.9939 36.3769C88.9329 36.5141 88.2161 36.7976 87.4278 37.0129L85.9702 37.405L86.1562 36.7576C86.3929 35.859 86.1879 35.1291 85.5104 34.408C84.765 33.6567 84.2003 33.3691 84.0512 33.7044Z" fill="#C89E67"/>
<path d="M110.079 46.2275C109.137 48.163 106.717 51.1755 105.349 52.1001C104.795 52.4745 104.602 52.4979 104.102 52.2938C103.636 52.1048 103.619 52.0973 104.003 52.1951C105.343 52.5719 104.192 51.4945 102.39 50.6929C101.046 50.0954 98.5402 49.5469 98.8093 49.9038C99.2826 50.5341 100.848 51.6864 102.14 52.3525L103.637 53.1093L102.235 54.2014C100.547 55.4769 100.218 55.6224 99.2421 55.4805C97.5353 55.1961 95.503 53.0329 93.9621 49.8107C93.7405 49.3471 93.5327 49.0357 93.4988 49.1119C93.3971 49.3404 95.1354 52.6687 95.8641 53.595C96.7087 54.7189 97.3722 55.1965 98.913 55.8999C100.035 56.3991 100.11 56.4141 100.892 56.1228C101.343 55.9769 101.754 55.7399 101.802 55.6332C102.032 55.1151 102.403 55.5174 103.429 57.3789C104.025 58.4655 104.629 59.5368 104.738 59.7495C104.864 59.9699 104.563 58.814 104.088 57.1793L103.224 54.2215L105.186 52.5571C108.147 50.0225 108.696 49.4274 109.507 47.8347C109.893 47.0575 110.259 46.2346 110.303 45.9986C110.36 45.7321 110.285 45.8084 110.079 46.2275Z" fill="#C89E67"/>
<path d="M111.046 47.2058C111.133 48.2481 110.707 49.9386 110.137 50.8534C109.554 51.7986 108.073 52.9289 106.314 53.7709C105.244 54.2989 105.098 54.3983 105.485 54.4428C107.246 54.6054 109.384 54.2418 110.821 53.5301C111.344 53.2699 111.809 53.0936 111.83 53.1392C111.894 53.3141 109.874 54.697 108.641 55.3168C107.391 55.9291 105.927 56.4278 104.863 56.5753L104.34 56.6528L104.923 57.9525L105.523 59.2597L106.716 59.4619C107.389 59.597 108.348 59.64 108.858 59.5929C110.024 59.4907 111.732 58.8087 112.795 58.022C113.821 57.2734 113.766 57.4866 112.646 58.5399C111.295 59.8373 111.258 59.8754 112.019 59.4472C112.997 58.8966 113.846 58.1789 114.633 57.2331C115.223 56.5466 115.305 56.3637 115.246 55.8997C115.17 55.2455 114.932 54.7743 114.248 53.9772C113.955 53.628 113.505 52.716 113.242 51.8873C112.474 49.538 111.812 47.8201 111.4 47.1439L110.991 46.5059L111.046 47.2058Z" fill="#C89E67"/>
<path d="M116.257 59.8531C117.231 63.0237 118.922 67.0978 119.835 68.4346C120.05 68.7308 120.652 69.3455 121.2 69.8082C122.854 71.219 124.179 73.4145 130.171 84.5842C134.7 93.0413 134.397 92.3953 133.924 92.4956C133.717 92.5494 133.095 92.6196 132.551 92.6516C132.014 92.6683 131.264 92.8454 130.88 93.0215C130.513 93.2051 130.098 93.3128 129.962 93.2523C129.197 92.912 126.569 89.9363 122.452 84.7654C121.263 83.2696 119.697 81.2954 118.968 80.3691C117.487 78.524 117.024 77.7339 116.628 76.4261C116.266 75.2248 116.093 73.4141 116.31 72.9265C116.527 72.4389 116.499 72.4085 112.831 69.2987C111.415 68.0851 109.802 66.6741 109.264 66.1429C108.709 65.6042 108.223 65.187 108.192 65.2099C108.08 65.233 110.301 68.3925 111.162 69.4327C111.86 70.2906 112.508 71.3999 114.222 74.6445C116.577 79.1049 116.431 78.9302 121.183 84.3656C128.139 92.3137 128.612 92.8527 129.15 93.6579C129.368 93.9921 129.685 94.2423 130.011 94.3327C130.481 94.4684 130.528 94.5444 130.447 95.0012C130.279 95.93 130.512 97.3296 130.921 97.8764C131.207 98.2408 131.237 98.4006 131.047 98.3706C130.897 98.3406 130.435 98.281 130.02 98.2061C128.399 97.9594 126.451 98.1703 122.734 99.0177C120.63 99.4877 118.218 100.057 117.406 100.28C116.115 100.619 115.822 100.635 114.983 100.371C114.428 100.197 113.711 100.116 113.259 100.17L112.46 100.271L112.041 99.7017C111.493 98.9651 111.35 98.9199 109.569 98.8943C108.719 98.8815 107.672 98.7626 107.268 98.6192C106.309 98.3022 105.686 97.7332 105.869 97.3218C106.058 96.8951 105.388 96.4328 104.562 96.4122C104.212 96.4208 103.441 96.5523 102.843 96.7062C101.263 97.0986 101.232 97.3042 102.042 100.475C102.412 101.935 102.733 103.228 102.72 103.35C102.71 103.601 101.26 104.526 100.597 104.687C100.383 104.756 99.839 104.697 99.3868 104.569C97.1833 103.936 93.9413 104.447 92.1076 105.731L91.3097 106.288L93.2531 105.674C94.5849 105.244 95.6451 105.059 96.5425 105.056C97.7423 105.061 98.0008 105.121 99.1028 105.666C99.8205 106.021 100.324 106.355 100.317 106.461C100.304 106.583 99.8216 106.752 99.2337 106.837C98.2448 107 96.3323 107.865 95.7858 108.407C95.6433 108.544 96.0239 108.513 96.7103 108.343C98.219 107.974 100.476 107.846 102.346 108.038C103.739 108.202 103.831 108.225 103.995 108.589C104.104 108.802 104.322 109.045 104.509 109.128C105.24 109.453 104.635 109.531 103.523 109.237C102.864 109.072 102.275 108.975 102.197 109.013C102.136 109.059 102.032 109.797 101.972 110.665C101.936 111.525 101.818 112.385 101.73 112.583C101.384 113.36 100.014 112.732 99.5327 111.57C99.3042 111.03 99.4769 110.596 100.315 109.581C101.045 108.719 99.0053 108.816 97.093 109.773C95.3267 110.63 94.7389 110.807 94.3138 110.618C93.3444 110.186 93.9396 108.024 95.3182 107.031C95.746 106.71 96.1195 106.42 96.1399 106.374C96.2076 106.221 94.5696 106.424 93.7269 106.67C92.2252 107.115 91.1799 108.275 91.7179 108.897C91.854 109.049 92.0147 109.65 92.0902 110.213C92.1658 110.776 92.4264 112.388 92.6868 113.818C93.1289 116.351 93.4909 117.552 93.831 117.704C93.916 117.741 94.3408 117.656 94.7587 117.495C95.1765 117.335 95.9378 117.272 96.5055 117.323C97.4948 117.435 97.5186 117.427 97.8746 116.764C98.1831 116.208 98.3121 116.101 98.7948 116.115C99.0973 116.121 99.3827 116.029 99.4301 115.923C99.4776 115.816 99.7764 115.602 100.065 115.457C100.52 115.257 100.717 115.272 101.173 115.53C101.612 115.78 101.711 115.787 101.707 115.566C101.71 115.056 102.021 114.081 102.309 113.753C102.625 113.364 103.597 113.377 104.091 113.779C104.285 113.938 104.833 114.583 105.313 115.199C106.144 116.262 106.437 117.067 106.05 117.297C105.965 117.35 105.857 117.685 105.783 118.036C105.719 118.409 105.536 118.82 105.362 118.98C105.108 119.232 104.992 119.217 104.594 118.967C104.349 118.785 103.883 118.323 103.593 117.92L103.045 117.183L103.27 117.776C103.553 118.468 104.412 119.561 104.98 119.978C105.33 120.244 105.351 120.381 105.124 121.119C104.85 122.056 104.267 122.91 103.727 123.163C103.547 123.247 103.36 123.346 103.312 123.362C103.282 123.385 103.128 123.043 102.958 122.602C102.715 121.91 101.229 119.114 100.476 117.921C100.344 117.716 100.627 118.499 101.108 119.662C101.947 121.714 102.155 122.574 101.87 122.666C101.68 122.727 100.414 121.635 99.1611 120.329C98.5926 119.73 98.099 119.236 98.048 119.214C98.014 119.199 97.6818 119.854 97.3227 120.662C96.9567 121.485 96.5499 122.216 96.4106 122.3C96.1084 122.476 95.8428 122.157 95.018 120.622C94.7317 120.075 94.4116 119.604 94.2925 119.551C93.9864 119.415 95.1422 121.9 95.5983 122.341C95.983 122.712 96.0107 123.108 95.6471 123.147C95.5417 123.155 94.6062 122.648 93.5313 122.042C91.8507 121.057 90.9866 120.527 88.8671 119.201C88.122 118.724 87.0145 119.107 86.635 119.961C86.4385 120.403 86.4287 120.654 86.6193 120.866C86.8849 121.185 92.7016 124.228 95.0655 125.279C96.698 126.005 97.5174 126.133 98.6624 125.802C99.658 125.533 100.086 125.212 100.982 124.114L101.711 123.252L102.222 123.662C102.8 124.101 103.106 124.146 103.269 123.78C103.323 123.658 103.503 123.94 103.681 124.457C103.848 124.951 103.971 125.407 103.937 125.483C103.91 125.544 103.496 125.652 103.003 125.706C100.24 126.102 97.0511 128.097 94.9339 130.751C93.8074 132.185 92.1574 135.941 91.7253 138.012C91.3337 139.9 91.0994 142.443 91.0985 144.231C91.1098 144.984 91.1039 145.639 91.0904 145.669C91.0768 145.7 90.9475 145.624 90.791 145.518C90.6413 145.397 89.9783 145.284 89.3325 145.271L88.1224 145.244L88.3221 144.657L88.498 144.078L87.4755 144.5C86.4665 144.891 86.4258 144.891 85.9561 144.481C85.7077 144.261 85.5135 144.011 85.5407 143.95C85.5745 143.873 86.0094 143.72 86.5293 143.604L87.4467 143.374L86.5789 142.623L85.694 141.864L84.6646 142.209C84.1108 142.401 83.6317 142.517 83.6113 142.471C83.584 142.441 83.7707 142.25 84.0152 142.067C84.9455 141.349 84.9895 141.204 84.4926 140.764C84.2272 140.536 83.8529 140.279 83.6658 140.196C83.1556 139.969 83.0055 139.573 83.2291 139.071C83.5205 138.415 82.9789 137.572 81.6928 136.708C80.9885 136.231 80.9311 136.497 81.5441 137.317C82.1026 138.077 82.1373 138.549 81.6658 139.197C81.3028 139.692 79.0745 140.764 78.6155 140.651C78.1564 140.538 77.6617 139.223 77.8853 138.72C78.0005 138.461 78.5471 138.011 79.1822 137.636C79.7868 137.284 80.3368 136.872 80.3978 136.735C80.5198 136.46 80.2264 135.746 79.9543 135.625C79.8013 135.557 75.8884 137.577 75.6679 137.844C75.5864 137.935 75.6486 138.62 75.789 139.358C76.1693 141.48 76.2535 143.306 75.9892 143.9C75.7453 144.449 75.7453 144.449 76.8241 145.366C77.3992 145.859 78.0458 146.421 78.25 146.603C78.4542 146.785 78.8047 147.05 79.0293 147.187C79.2538 147.323 79.6043 147.588 79.7915 147.763C80.1216 148.074 80.1148 148.089 79.7577 147.93C79.5469 147.855 79.2168 147.635 79.0194 147.438C78.5123 146.975 78.4751 147.104 78.6443 148.968C78.99 153.046 80.0009 154.025 81.6056 151.837C81.9618 151.356 82.5829 150.738 82.9972 150.448C83.6118 150.028 83.8429 149.966 84.3937 150.101C85.0364 150.259 87.0654 150.14 87.1603 149.926C87.1874 149.865 87.6292 149.788 88.1322 149.756C88.676 149.724 89.1992 149.555 89.4097 149.357C89.5964 149.166 90.099 148.86 90.5066 148.677L91.2675 148.34L91.6822 150.751C93.9961 164.465 103.133 179.096 114.399 187.154C122.252 192.763 130.388 194.483 136.353 191.788C143.697 188.465 146.824 178.686 144.445 166.585C142.904 158.691 138.935 150.026 133.578 142.881C131.916 140.663 128.362 136.746 126.327 134.91C123.151 132.02 119.375 129.428 116.484 128.142L114.766 127.378L114.561 126.557C114.445 126.086 114.179 125.401 113.971 124.999C113.643 124.36 113.511 124.247 112.841 124.058C112.44 123.953 111.753 123.848 111.321 123.857C110.896 123.851 110.529 123.852 110.495 123.836C110.461 123.821 110.321 122.992 110.173 121.996C109.785 119.341 108.974 115.166 108.629 114.063C108.338 113.113 108.076 112.649 107.777 112.498C107.692 112.46 107.718 111.943 107.836 111.356C107.961 110.755 108.028 110.237 108.008 110.192C107.994 110.131 107.512 110.025 106.964 109.928C105.856 109.764 105.138 109.499 105.927 109.558C107.028 109.646 107.619 109.142 107.506 108.252C107.495 108.047 107.576 107.773 107.702 107.628C108.089 107.216 109.587 106.824 110.811 106.82C112.221 106.809 114.365 106.247 115.306 105.643C115.683 105.391 116.25 104.895 116.535 104.529C117.027 103.927 117.309 103.796 119.531 103.197C122.915 102.274 124.828 101.866 127.041 101.608C129.148 101.359 130.161 101.463 132.436 102.164C133.738 102.579 134.14 102.776 135.116 103.465C136.902 104.716 137.679 105.992 137.801 107.78C138.03 111.204 134.364 112.074 129.741 109.69C127.714 108.661 127.516 108.646 127.096 109.591C126.852 110.139 126.856 110.36 127.146 110.854C127.527 111.553 127.626 111.651 128.943 112.493C131.579 114.213 134.609 115.049 136.359 114.549C137.242 114.303 137.548 114.074 139.34 112.243C141.132 110.412 141.444 109.802 141.51 108.097C141.529 107.412 141.572 106.811 141.593 106.765C141.62 106.704 142.743 107.66 143.869 108.745C144.046 108.897 144.224 109.688 144.321 110.662C144.477 112.556 144.64 112.647 145.75 111.48C146.15 111.037 146.52 110.8 146.751 110.83C146.959 110.867 147.356 110.752 147.642 110.569C148.399 110.102 148.409 109.669 147.761 105.858C147.398 103.835 147.363 103.728 146.802 103.479C146.19 103.207 146.142 103.039 146.618 102.886C147.117 102.725 146.606 101.95 145.32 100.903C143.945 99.7808 143.901 99.7428 143.806 99.9562C143.765 100.048 143.269 100.338 142.706 100.598C142.101 100.859 141.656 101.172 141.663 101.339C141.65 101.827 141.123 101.866 140.171 101.443C139.661 101.216 139.28 100.973 139.321 100.882C139.354 100.806 139.952 100.195 140.634 99.5312C141.316 98.8673 141.893 98.3025 141.9 98.2873C141.907 98.2721 141.597 98.0066 141.202 97.7033C140.185 96.9223 139.562 96.262 139.044 95.4111C138.796 95.0085 138.547 94.6972 138.476 94.7202C138.285 94.7816 135.957 97.1775 135.343 97.963C134.902 98.4969 134.684 98.6193 134.344 98.5594C132.226 98.1467 134.14 95.8585 137.728 94.5701C138.58 94.2557 138.574 94.271 137.337 92.6992C136.619 91.7956 136.024 91.4396 135.051 91.3358C134.456 91.2537 134.402 91.193 132.715 88.1614C130.52 84.2104 126.612 77.1061 126.54 76.9465C126.509 76.8781 126.087 76.0879 125.603 75.1608C125.112 74.249 124.669 73.3219 124.611 73.1318C124.454 72.5691 123.18 71.0355 121.533 69.4268L120.045 67.9622L118.03 63.4705C116.908 61.0004 116.124 59.3741 116.257 59.8531ZM119.29 134.702C131.083 142.446 140.662 159.61 140.732 173.147C140.744 176.967 140.106 180.006 138.747 182.65C137.733 184.608 136.946 185.554 135.33 186.807C131.687 189.64 126.276 189.807 120.511 187.243C116.888 185.633 112.482 182.487 109.429 179.322C104.51 174.214 101.321 169.475 98.3923 162.915C94.7403 154.776 93.5572 147.405 94.8429 140.895C95.1433 139.35 95.343 138.763 96.2818 136.881C97.1834 135.037 97.5056 134.541 98.3269 133.702C99.2298 132.771 100.276 131.977 101.193 131.472C101.699 131.204 104.25 130.368 104.403 130.436C104.454 130.458 104.519 130.907 104.527 131.44C104.543 132.87 106.066 142.911 106.771 146.364C108.205 153.262 109.049 156.448 110.12 158.987C110.775 160.537 110.779 160.575 110.423 161.33C110.162 161.871 110.087 162.221 110.207 162.548C110.35 162.958 110.48 163.034 111.513 163.366C112.564 163.706 112.751 163.698 113.539 163.391C114.028 163.207 115.122 162.671 115.992 162.182C117.578 161.318 119.504 160.605 120.66 160.48C122.097 160.316 122.313 159.189 121.503 156.201C121.185 154.946 120.488 152.3 119.982 150.322C119.476 148.345 118.642 145.182 118.12 143.289C117.614 141.403 117.077 139.357 116.958 138.756C116.533 136.779 115.77 132.771 115.803 132.695C115.858 132.573 117.365 133.444 119.29 134.702ZM113.459 138.424C114.272 141.085 115.371 144.293 117.432 150.01C119.142 154.731 119.597 156.411 119.223 156.793C118.918 157.113 115.134 159.026 114.964 158.951C114.818 158.867 112.775 156.59 112.383 156.051C111.641 155.064 110.637 149.397 109.522 139.812L109.281 137.788L109.947 137.847C110.763 137.937 111.49 137.584 112.182 136.761C112.461 136.41 112.705 136.135 112.739 136.15C112.756 136.158 113.094 137.184 113.459 138.424ZM78.0087 141.786C79.1049 142.986 80.2443 143.492 81.6684 143.45C82.7255 143.41 82.7595 143.425 83.3041 143.941C83.624 144.229 84.3249 144.76 84.8795 145.116C86.1076 145.881 87.4745 146.197 89.0447 146.055C90.7134 145.921 90.8871 146.126 90.2365 147.589C89.7148 148.763 89.0659 148.985 86.1086 148.948C83.9536 148.938 83.6646 148.901 83.1406 148.522C82.5554 148.098 76.8735 144.293 76.7375 144.233C76.6695 144.202 76.3093 139.516 76.3703 139.379C76.3906 139.333 76.5916 139.66 76.82 140.108C77.0484 140.556 77.5899 141.308 78.0087 141.786Z" fill="#C89E67"/>
<path d="M66.9592 46.0355C66.9253 46.1117 66.9199 47.0401 66.9588 48.0977C67.0018 49.65 67.1113 50.228 67.5511 51.1171C68.1306 52.2874 68.1444 52.4396 67.7533 52.2656C67.1751 52.0085 67.1012 52.6327 67.3634 55.341C67.8734 60.2403 67.918 60.5522 68.2579 60.5208C68.4278 60.5051 68.6217 60.573 68.6966 60.6794C68.7613 60.7629 68.7303 60.5119 68.621 60.1165C68.276 58.9227 67.898 53.6806 68.1597 53.5962C68.231 53.5732 70.0071 54.801 71.2865 55.7715C71.4532 55.9004 71.242 55.551 70.8163 54.9966C69.89 53.7817 67.9108 50.6748 68.0297 50.6364C68.0772 50.621 68.4926 51.0612 68.9828 51.6078C69.6774 52.4277 73.1795 55.5913 73.5707 55.7652C73.6387 55.7955 73.1075 55.1577 72.3994 54.3683C70.3907 52.1061 68.2276 48.7715 67.2487 46.438C67.1157 46.1416 66.9931 45.9593 66.9592 46.0355Z" fill="#C89E67"/>
<path d="M80.8515 59.0026C80.384 60.1453 79.9745 61.3868 79.9343 61.7522C79.8573 62.6123 79.2324 63.0098 77.9409 63.0742L76.9824 63.1225L77.6183 63.2958C78.6214 63.5594 80.4201 63.9577 80.5152 63.927C80.5628 63.9116 80.5892 63.3941 80.5918 62.7929C80.5759 61.1797 80.8084 59.7865 81.259 58.7275C81.4656 58.2171 81.6551 57.6078 81.6649 57.3566C81.6883 57.075 81.3765 57.6846 80.8515 59.0026Z" fill="#C89E67"/>
<path d="M50.0152 49.6155C49.7877 49.8063 49.4347 50.1421 49.2448 50.386C49.048 50.6452 48.4097 51.073 47.8051 51.3333C47.2004 51.5936 46.7352 51.8612 46.7489 51.922C46.7796 51.9904 47.0822 52.0885 47.4052 52.1409C48.4081 52.3132 48.9015 52.6238 49.2627 53.2771C49.6205 53.8925 49.6138 53.9077 49.7628 53.5725C49.9796 53.085 50.8014 52.6111 51.3929 52.6551C52.5181 52.7358 53.0091 53.7388 52.3851 54.6839C52.2121 54.9354 52.1445 55.1791 52.2295 55.2169C52.5016 55.3379 53.1674 55.0318 53.6153 54.5741C53.9683 54.2384 53.9885 54.1014 53.8486 53.7289C53.5176 52.8701 52.2612 51.4355 51.3903 50.9205C50.5704 50.4281 50.1139 49.7142 50.484 49.4773C50.5621 49.4391 50.5892 49.3781 50.5382 49.3554C50.4872 49.3328 50.2528 49.4475 50.0152 49.6155Z" fill="#C89E67"/>
<path d="M66.6221 60.4489C66.1905 60.4577 65.9969 60.5724 65.8478 60.9076C65.6784 61.2886 65.5595 61.327 64.9543 61.2221C64.5565 61.1547 63.6043 60.8225 62.839 60.4822C62.0738 60.1419 61.3834 59.9079 61.2815 59.9539C61.1355 60.0532 62.2348 61.0166 63.5822 62.0173C64.1402 62.4115 64.1712 62.6625 63.6578 62.5802C62.7161 62.4535 59.5314 60.2707 56.5128 57.6689C55.5122 56.8042 54.6513 56.1293 54.5867 56.1371C54.3897 56.2137 55.4456 57.7784 56.3 58.6512C57.5697 59.9641 59.8391 61.5026 63.6083 63.6533C65.0949 64.4787 66.9084 65.7597 67.5552 66.4123C68.2224 67.1106 69.6709 69.8537 69.423 69.999C69.3381 70.0525 68.7157 69.8487 68.0457 69.569L66.8213 69.0245L69.4666 72.0078C70.9203 73.6399 72.163 75.0138 72.248 75.0516C72.3092 75.0971 72.4077 75.0131 72.4619 74.8912C72.733 74.2817 72.5657 73.7875 69.0065 63.9732C68.621 62.9622 68.2319 61.8218 68.1225 61.4264C67.8903 60.6661 67.516 60.4084 66.6221 60.4489Z" fill="#C89E67"/>
<path d="M81.4786 67.8947C81.6946 69.1953 81.8611 71.5691 81.8984 73.8671C82.0061 77.9304 82.4094 79.4969 83.9693 81.669C85.1954 83.4006 86.8682 86.0974 89.2159 90.1165C93.3457 97.2277 95.5877 101.072 95.9795 101.703L96.3985 102.363L95.576 102.381C94.4339 102.384 92.3514 103.174 91.377 103.945C90.9356 104.296 90.5928 104.655 90.6235 104.723C90.6542 104.792 90.8953 104.662 91.1533 104.448C91.9104 103.799 93.7447 102.972 94.7269 102.825C95.8619 102.654 96.7526 102.758 97.6539 103.159C98.3512 103.469 98.3342 103.461 97.2449 102.338C95.4748 100.547 94.3915 98.8609 90.3396 91.5287C86.2944 84.1814 85.7424 83.2241 84.3153 81.1658C82.7518 78.8644 82.6357 78.4842 82.6593 75.9577C82.6941 74.0932 82.3979 71.3698 81.8709 68.8904C81.426 66.7762 81.2145 66.2441 81.4786 67.8947Z" fill="#C89E67"/>
<path d="M65.5434 69.1331C65.956 69.9918 66.3817 70.546 67.4607 71.555C68.2367 72.2833 68.8768 72.9511 68.9109 73.0576C68.928 73.1564 68.4866 73.4163 67.9431 73.6308C67.3996 73.8453 66.6727 74.1972 66.3331 74.4112L65.7253 74.816L66.9179 74.4705C67.5702 74.2861 68.5693 74.1465 69.1165 74.1526L70.1226 74.1803L68.4028 71.9557C66.7 69.7387 65.4095 68.1977 65.1544 68.0842C65.0864 68.054 65.2604 68.5328 65.5434 69.1331Z" fill="#C89E67"/>
<path d="M73.2607 80.2303C73.4427 81.5158 73.7327 82.2836 74.9119 84.4872C76.5716 87.5797 80.4925 93.5577 82.8727 96.5874C83.7411 97.7036 83.3833 97.0882 81.8677 94.9541C78.615 90.3136 75.6232 85.132 74.0953 81.514C73.1506 79.287 73.1301 79.2414 73.2607 80.2303Z" fill="#C89E67"/>
<path d="M79.2274 102.449C78.0926 105.138 77.9748 105.999 78.5244 107.648C79.2823 109.975 79.6978 112.934 79.8019 116.776C79.8238 117.827 79.8657 118.648 79.9098 118.595C80.0624 118.298 80.4357 115.489 80.468 114.317C80.5631 111.858 80.2885 110.002 79.2844 106.672L78.8063 105.091L79.4663 103.103C80.5292 99.9797 80.3927 99.6453 79.2274 102.449Z" fill="#C89E67"/>
<path d="M70.9072 106.778C70.6497 107.357 71.0345 107.912 72.1367 108.548C72.9634 109.025 72.9906 109.056 73.2986 110.47C73.7124 112.242 74.2164 112.941 75.1514 113.083C75.7633 113.172 75.8246 113.218 75.8048 113.629C75.7924 114.481 74.6892 115.542 73.208 116.124C72.6034 116.385 72.5117 116.454 72.8618 116.445C73.5687 116.413 74.7374 115.983 75.0394 115.625C75.3991 115.182 75.5998 115.326 75.4987 115.92C75.4413 116.187 75.6363 117.076 75.906 117.89C76.6876 120.117 77.0464 121.463 77.3722 123.525C77.8866 126.674 77.7406 129.201 76.9642 130.626C76.5405 131.441 76.7685 131.616 77.5257 131.058C78.5512 130.309 78.5946 129.799 77.9447 124.528C77.4909 120.968 77.1929 119.302 76.8416 118.489C76.2993 117.189 76.2342 116.831 76.3576 115.134C76.4876 113.33 76.3272 112.912 75.3167 112.207C74.5069 111.646 74.4592 111.57 74.2263 110.353C73.8875 108.688 73.5877 108.262 72.4587 107.87C71.6255 107.591 71.554 107.522 71.4751 107.013C71.3517 106.283 71.1647 106.199 70.9072 106.778Z" fill="#C89E67"/>
</g>
</svg>
