<svg width="303" height="301" viewBox="0 0 303 301" fill="none" xmlns="http://www.w3.org/2000/svg">
<g opacity="0.45">
<path d="M146.096 3.99939C143.477 4.73009 140.934 6.70781 138.917 9.61104C137.047 12.2511 133.943 18.9227 134.357 19.3303C134.46 19.4322 135.502 18.3701 136.638 16.9418C137.824 15.5125 139.356 13.6599 140.097 12.76L141.483 11.1705L140.962 12.8982C140.485 14.3647 140.545 14.7797 141.269 15.493C142.096 16.3082 142.247 16.2531 143.135 15.0901C143.627 14.4036 144.065 13.5101 144.056 13.094C144.047 12.678 144.473 11.2125 145.052 9.84782C145.965 7.43574 146.164 7.27553 148.335 6.91829C153.486 6.083 158.004 6.56143 155.343 7.70921C153.183 8.58647 151.732 14.3393 153.656 14.2993C154.872 14.2741 155.511 13.3764 155.923 11.2348C156.106 10.2946 156.785 8.82381 157.477 7.97705C158.561 6.54986 159.014 6.38439 161.647 6.32971C164.483 6.27082 164.688 6.37061 166.503 8.41389C170.344 12.8083 174.983 23.9493 174.663 28.0658C174.541 29.525 174.293 29.7903 172.531 30.2951C168.803 31.309 168.565 32.0423 170.392 37.1027C171.737 40.8726 171.741 41.0806 170.37 40.901C169.557 40.8138 168.883 40.0475 168.143 38.5541C166.553 35.2055 165.907 35.7912 166.008 40.6794C166.016 43.4886 165.848 45.1569 165.402 45.6344C165.004 46.0068 163.147 46.8257 161.234 47.4377C158.416 48.3286 156.192 48.5829 149.811 48.7154L141.861 48.8805L141.196 46.137C140.143 41.7888 137.883 35.4367 137.377 35.4472C136.668 35.462 137.021 42.6861 137.897 45.8414C138.334 47.393 138.719 48.8417 138.723 49.0497C138.738 49.7778 133.33 47.9651 132.499 46.9419C130.784 44.8965 131.355 33.3352 133.163 32.5693C133.615 32.4039 136.155 32.7153 138.853 33.3356C143.076 34.2364 144.7 34.3587 150.317 34.034C154.416 33.7928 158.204 33.2459 160.419 32.5756L163.944 31.566L161.658 31.2493C160.388 31.0675 155.725 30.9563 151.267 30.9968C146.304 31.0999 141.892 30.8794 139.857 30.4534C138.025 30.0752 135.335 29.819 133.916 29.7964C130.675 29.8637 130.033 30.6574 129.376 35.6134C128.713 40.3094 128.816 42.8044 129.844 45.9566C130.66 48.6449 131.227 49.1534 134.95 50.3246C135.868 50.6177 135.77 50.7758 134.214 51.4845C123.73 56.4884 119.859 60.3666 117.29 68.4318C115.96 72.6734 116.413 79.8434 118.488 87.0837C120.777 94.8399 120.784 95.1519 118.987 98.8829C116.898 103.192 116.987 105.063 119.673 110.002C122.361 114.993 122.645 116.495 122.002 122.127C121.444 126.977 121.922 130.453 123.612 133.747C124.034 134.571 124.963 137.829 125.687 140.988C126.411 144.146 127.394 147.559 127.82 148.539C128.832 150.911 130.651 153.162 131.563 153.144C132.019 153.134 131.648 152.361 130.502 150.824C128.785 148.675 127.001 143.25 126.936 140.129C126.923 139.505 126.154 136.66 125.184 133.819C123.507 128.703 123.506 128.651 124.078 124.477C125.268 115.921 125.133 114.311 123.051 109.203C121.986 106.676 121.126 104.301 121.119 103.989C121.113 103.677 121.89 102.1 122.871 100.519C125.225 96.7765 125.375 94.2241 123.865 87.3883C123.137 84.0738 122.651 80.182 122.584 76.9579C122.483 72.0697 122.574 71.5996 124.173 68.0807C126.55 62.985 136.688 51.0689 138.714 51.0269C140.081 50.9985 140.109 52.3505 138.757 53.1069C136.405 54.5084 133.637 57.8435 130.206 63.3773C126.528 69.2804 125.133 72.847 125.776 74.4985C126.097 75.3242 126.197 75.2701 127.191 74.3651C127.736 73.7815 129.248 70.9407 130.555 68.0002C131.811 65.0608 133.366 61.855 134.003 60.8533C135.328 58.7448 140.649 53.9521 141.264 54.3035C141.469 54.4033 142.52 56.2543 143.627 58.3123C146.531 63.9747 147.406 64.6329 152.166 64.534C155.711 64.4604 156.265 64.2928 158.762 62.5762C163.008 59.6787 168.859 53.5223 167.289 53.5549C167.086 53.5591 165.445 55.0499 163.66 56.9078C159.792 60.942 156.787 62.6172 152.693 63.0664C149.812 63.3863 149.608 63.3385 148.159 61.8599C147.329 60.9407 146.491 59.6055 146.324 58.8806C146.106 58.1568 145.254 56.1455 144.46 54.4972C143.666 52.8489 143.077 51.3524 143.226 51.1933C143.375 51.0341 145.955 50.8765 148.943 50.8144C157.4 50.6388 165.71 48.2812 166.874 45.7599C167.213 45.0245 167.489 43.6661 167.468 42.6781C167.438 41.222 167.586 41.0108 168.352 41.3071C168.812 41.5056 169.935 41.8985 170.751 42.1937C177.589 44.5489 182.719 50.061 190.439 63.219C192.069 66.0465 194.261 69.1745 195.244 70.1425L197.054 71.9258L196.702 69.592C196.067 65.8594 192.399 60.0048 186.172 52.9027C180.464 46.3621 179.379 45.3441 175.994 43.3854C174.097 42.2803 172.503 41.1688 172.498 40.9088C172.484 40.2328 172.535 40.2838 176.825 41.9115C182.136 43.9342 184.595 45.2358 191.165 49.3654C194.656 51.582 197.319 52.9313 198.23 52.9124C204.56 52.781 187.647 43.4036 174.654 39.8236C172.87 39.3404 172.355 38.9349 171.712 37.2314C170.221 33.7247 170.735 31.6331 173.115 31.5836C175.09 31.5426 175.821 30.1748 175.747 26.5866C175.627 20.8144 171.196 9.92923 167.309 5.74391L165.393 3.75474L156.526 3.67875C151.661 3.6237 146.953 3.77351 146.096 3.99939Z" fill="#C89E67"/>
<path d="M132.557 20.4094C130.694 20.9684 130.183 23.164 131.345 25.481C132.3 27.5421 133.006 27.3714 133.261 25.025L133.384 23.6178L144.772 23.1212C151.15 22.8327 157.825 22.2258 159.943 21.7656L163.726 20.9587L154.711 21.0939C147.063 21.2007 138.747 20.8532 134.833 20.2061C134.274 20.1137 133.262 20.1867 132.557 20.4094Z" fill="#C89E67"/>
<path d="M177.743 37.21C177.351 37.8424 177.503 37.8393 186.363 37.5513C195.831 37.2506 203.152 38.5032 212.394 42.005C216.378 43.5351 221.038 43.4903 230.881 41.7772C234.87 41.1221 240.379 40.4875 243.164 40.4296C252.276 40.0843 255.715 42.198 262.3 51.9459C266.379 58.0521 267.399 60.8403 266.667 64.6012C265.886 68.4673 264.506 70.3168 260.066 73.6345C257.522 75.5602 255.327 79.6637 253.728 85.5757C253.54 86.308 254.477 85.0919 255.851 82.9304C258.793 78.2391 260.578 76.3292 263.782 74.4938C266.734 72.7157 268.992 69.2352 269.767 65.0571C270.585 60.566 269.767 57.7736 265.796 51.9253C261.145 45.1026 257.316 41.2283 253.429 39.4881C250.464 38.1971 249.752 38.0558 244.385 38.2192C240.537 38.3512 236.596 38.8492 232.764 39.7092C229.586 40.3994 224.435 41.1827 221.297 41.3519C215.783 41.7266 215.529 41.6798 210.375 39.914C200.987 36.7273 198.09 36.2672 187.506 36.487C181.733 36.6069 177.939 36.8938 177.743 37.21Z" fill="#C89E67"/>
<path d="M169.068 44.1017C168.569 44.4763 168.482 45.1544 168.82 46.8121C169.503 50.3877 169.378 51.6909 168.314 54.1581C167.152 56.7315 162.6 61.9764 161.486 61.9996C161.081 62.008 160.781 62.2223 160.788 62.5343C160.81 63.6264 162.722 62.9624 164.963 61.095C170.44 56.5071 173.005 50.7311 171.589 45.9743C170.881 43.5958 170.367 43.2423 169.068 44.1017Z" fill="#C89E67"/>
<path d="M242.687 44.4987C239.721 45.6008 238.33 46.9303 236.877 50.134L235.47 53.1286L236.21 59.5123C236.712 64.132 236.773 67.0962 236.486 70.3277C236.232 72.7261 236.023 74.8634 236.027 75.0714C236.03 75.2274 234.872 75.5636 233.457 75.7491C228.76 76.4189 226.38 78.9135 227.259 82.2248C227.59 83.5185 227.795 83.6183 229.51 83.2706C230.518 83.0415 233.435 81.9925 235.895 80.9009C241.367 78.4982 247.379 77.697 249.486 79.11C251.128 80.1164 251.635 80.1579 250.802 79.0826C249.608 77.7028 245.975 75.9574 243.638 75.6417C242.369 75.512 240.743 75.2856 239.98 75.1454L238.556 74.8628L238.444 69.5066C238.359 65.3984 238.484 64.0952 239.037 63.8757C239.439 63.7112 240.671 62.0729 241.798 60.2286C244.201 56.3809 247.877 52.871 251.782 50.6569C255.239 48.7642 254.174 48.7343 249.806 50.6459C245.186 52.6147 242.04 54.813 239.916 57.4064L238.138 59.6283L238.268 56.1399C238.425 51.5065 239.064 50.5568 245.745 45.3717L247.191 44.2491L245.869 44.0165C245.157 43.8752 243.743 44.1126 242.687 44.4987Z" fill="#C89E67"/>
<path d="M173.041 49.7431C172.934 51.9304 172.366 53.8151 171.244 55.9193C169.101 60.0738 168.159 61.0818 164.31 63.5549C161.259 65.4391 160.806 65.6046 159.326 65.063C157.999 64.6224 157.342 64.688 155.839 65.4996L154.035 66.4735L156.071 66.8995C158.97 67.4636 161.55 69.6991 164.792 74.5741C169.549 81.6547 187.768 97.7682 184.714 92.2129C184.398 91.6472 183.314 90.6812 182.287 90.0263L180.439 88.8681L180.208 80.1848C180.058 75.4016 180.079 71.4993 180.231 71.4962C180.737 71.4857 183.728 76.4699 185.428 80.2324C186.911 83.3751 187.3 85.0318 187.693 89.2897C188.221 95.2095 188.864 96.913 191.173 98.3217C192.764 99.2772 196.015 99.6779 195.997 98.8459C195.993 98.6378 195.165 97.8226 194.187 97.0626C191.869 95.2378 190.919 93.3847 190.436 89.6489C190.199 87.9891 189.696 85.7104 189.267 84.5748C188.353 82.0446 183.199 72.9433 181.274 70.4861C180.025 68.8992 179.699 67.8655 179.146 63.1948C178.049 54.2693 175.83 47.4481 173.791 46.8142C173.485 46.7165 173.206 47.9188 173.041 49.7431ZM176.441 62.2105C177.054 64.903 177.841 68.6324 178.183 70.4982C178.876 74.5938 179.177 86.6052 178.62 86.6168C177.556 86.6389 176.397 84.4779 175.135 79.8219C173.55 74.2362 173.41 72.4182 174.101 66.6291C174.492 63.4995 174.462 62.0435 173.914 60.0779C173.366 58.0603 173.352 57.3843 173.896 56.7487C174.734 55.6388 174.999 56.2055 176.441 62.2105ZM171.359 66.3219C171.208 71.2673 171.898 75.2069 173.846 81.2013C174.117 82.0281 174.285 82.8049 174.236 82.91C173.889 83.2814 168.417 75.9035 166.99 73.0718C166.093 71.3736 164.937 69.3686 164.415 68.5991C163.842 67.8826 163.422 67.163 163.419 67.007C163.416 66.851 164.221 66.5742 165.23 66.3971C166.44 66.1119 167.738 65.2005 169.074 63.664C170.213 62.3918 171.255 61.3297 171.356 61.3276C171.457 61.2735 171.453 63.5626 171.359 66.3219Z" fill="#C89E67"/>
<path d="M211.69 49.7196C211.706 50.4996 213.898 53.5756 217.379 57.7693C218.627 59.3041 220.248 61.7676 220.99 63.313C222.103 65.683 222.273 66.5639 222.135 69.6882C221.947 72.8136 222.006 73.2286 222.651 72.5389C223.048 72.1664 223.47 70.5449 223.59 68.9817C223.992 63.927 220.01 55.1655 215.413 50.9429C213.193 48.908 211.663 48.4195 211.69 49.7196Z" fill="#C89E67"/>
<path d="M216.01 64.5105C211.569 65.3831 207.333 68.7486 205.295 73.0569C203.985 75.8414 204.289 80.7254 206.127 86.3059C207.372 90.1299 207.663 91.9447 207.756 96.4169C207.882 102.501 207.378 105.061 204.441 112.457C203.335 115.29 202.297 119.005 201.903 121.978C201.503 124.692 200.613 128.144 199.935 129.667C197.272 135.601 188.481 141.662 179.458 143.827C176.936 144.399 175.629 144.895 176.541 144.876C180.645 144.895 189.752 141.896 194.101 139.048C197.701 136.737 201.521 132.86 202.784 130.232C203.267 129.13 204.268 126.091 204.922 123.424C205.627 120.757 207.303 116.092 208.709 113.045C212.539 104.746 213.379 101.294 213.238 94.4822C213.193 89.905 212.843 87.6752 211.69 83.3811C210.869 80.4327 210.311 77.9471 210.359 77.8421C210.458 77.736 211.786 78.2287 213.32 78.9251C214.854 79.6216 217.3 80.2992 218.671 80.4268C220.904 80.6405 221.659 80.4167 224.162 78.9601C227.567 77.0165 226.836 75.9912 223.38 77.8838C220.825 79.2895 219.403 79.111 216.016 76.9963C214.682 76.1916 213.046 75.4972 212.388 75.5109C210.109 75.5582 211.372 72.9307 216.121 67.4216C217.804 65.5137 218.988 63.9804 218.785 63.9846C218.533 64.0419 217.271 64.2762 216.01 64.5105Z" fill="#C89E67"/>
<path d="M143.653 79.174C141.792 82.2301 141.928 88.7824 143.931 92.5386C144.353 93.3622 147.037 95.7516 149.816 97.8269C152.595 99.9022 155.638 102.492 156.522 103.566C157.405 104.641 158.126 105.198 158.12 104.886C158.1 103.95 153.326 98.4824 150.698 96.3519C149.41 95.3382 147.805 93.6547 147.022 92.5784C145.717 90.7327 145.657 90.2657 145.533 84.2854C145.399 77.8372 145.076 76.9074 143.653 79.174Z" fill="#C89E67"/>
<path d="M225.345 85.0219C222.311 85.293 221.928 86.3415 221.734 94.0972C221.616 100.603 221.617 100.655 219.986 102.613C217.862 105.259 217.289 106.935 217.935 108.743C218.256 109.569 218.284 110.921 218.006 112.175C217.775 113.272 217.619 115.513 217.653 117.125C217.742 121.441 218.85 121.106 220.121 116.449C220.687 114.409 221.261 112.784 221.362 112.782C221.514 112.779 222.243 113.7 223.027 114.88L224.439 116.984L221.903 119.326C218.971 122.04 213.666 127.612 211.838 129.887C211.148 130.786 207.13 134.928 202.912 139.177C186.484 155.594 176.782 166.564 177.816 167.583C178.385 168.144 184.647 162.291 191.582 154.708C195.792 150.042 201.687 143.625 204.61 140.443C207.583 137.207 210.357 134.184 210.802 133.655C218.526 125.014 224.783 118.954 225.948 118.929C226.657 118.915 226.302 121.315 225.374 122.999C224.836 123.947 224.451 124.891 224.557 125.149C224.721 125.718 216.043 134.743 201.351 149.406C190.382 160.351 186.567 164.488 184.508 167.809C183.478 169.443 182.291 170.82 181.836 170.882C181.381 170.891 181.743 171.248 182.664 171.697C184.455 172.544 185.401 174.189 185.448 176.477C185.498 178.869 184.673 180.603 181.852 183.835C180.418 185.53 178.407 188.693 177.338 190.9C175.057 195.734 174.256 196.167 168.269 195.771C165.682 195.617 164.063 195.702 164.069 196.014C164.075 196.274 165.053 197.034 166.232 197.686C167.922 198.587 169.195 198.873 171.828 198.819C176.437 198.775 177.533 197.868 179.593 192.154C180.504 189.69 182.062 186.64 183.197 185.16C185.37 182.462 186.478 179.733 186.479 177.34C186.438 175.364 185.216 172.632 183.88 171.724C182.903 171.016 182.952 170.91 185.997 168.766C188.844 166.782 196.674 158.4 213.851 139.002C215.979 136.565 219.5 132.902 221.586 130.882L225.411 127.213L227.48 129.251C229.083 130.83 230.005 131.331 231.271 131.305C233.651 131.255 235.795 129.598 237.653 126.334C239.169 123.701 239.767 123.221 243.775 121.056C249.738 117.915 250.082 117.388 249.957 111.356C249.831 105.323 250.47 101.928 252.457 97.5691C254.251 93.6821 254.666 91.7485 253.748 91.4554C253.391 91.3068 253.09 91.4691 253.098 91.8331C253.104 92.1451 252.095 94.7673 250.889 97.7057C248.716 102.849 248.622 103.215 248.49 109.045C248.458 112.375 248.218 115.45 247.973 115.871C247.536 116.764 247.296 114.948 247.353 110.421C247.374 108.964 247.14 107.46 246.828 107.05C245.783 105.563 245.372 107.705 245.726 112.536C245.93 115.081 245.929 117.474 245.682 117.739C245.239 118.373 240.373 120.711 240.115 120.456C240.011 120.354 240.124 118.479 240.383 116.289C240.939 111.387 240.903 107.173 240.295 107.186C239.586 107.201 239.359 108.454 238.835 114.968L238.401 120.908L235.993 124.496C234.615 126.449 233.133 128.249 232.579 128.416C231.271 128.86 229.734 128.007 228.786 126.31C228.154 125.127 228.195 124.658 228.77 123.085C229.732 120.62 229.222 118.029 227.411 116.194C226.117 114.868 225.902 114.248 225.613 110.092C225.408 107.547 225.056 105.265 224.85 105.062C224.022 104.246 223.458 106.339 223.77 109.194C223.906 110.856 223.883 112.209 223.731 112.212C222.667 112.182 221.672 110.642 221.326 108.62C220.978 106.495 221.121 106.024 222.644 103.755L224.315 101.275L223.872 94.573C223.542 88.441 223.582 87.9199 224.433 87.434C224.984 87.1624 230.143 86.7431 235.964 86.4662C243.606 86.0994 246.589 85.8294 246.732 85.3582C246.874 84.887 244.54 84.7274 237.144 84.7769C231.774 84.7844 226.457 84.8948 225.345 85.0219Z" fill="#C89E67"/>
<path d="M160.017 88.5642C156.621 90.9238 156.446 94.6732 159.334 104.446C161.844 113.082 162.979 118.937 163.088 124.189C163.194 129.285 162.305 132.842 159.998 136.427C157.987 139.59 158.264 140.729 160.385 137.98C163.987 133.327 165.667 126.425 165.523 117.063C165.453 111.238 163.919 98.3678 163.186 97.1865C163.029 96.9816 163.059 95.9925 163.191 95.0013C163.509 93.2259 163.509 93.2259 166.995 92.7893C168.967 92.5923 170.529 92.1957 170.525 91.9877C170.505 91.0516 168.126 88.7079 166.594 88.1154C164.192 87.1248 161.816 87.3303 160.017 88.5642Z" fill="#C89E67"/>
<path d="M134.622 93.0441C135.296 93.8105 138.895 96.337 142.541 98.7064C151.167 104.25 156.957 109.8 159.652 115.155C161.714 119.326 161.628 117.611 159.506 113.025C155.423 104.266 140.772 91.5638 134.897 91.6858L133.378 91.7173L134.622 93.0441Z" fill="#C89E67"/>
<path d="M116.231 97.797C115.926 100.196 113.658 103.209 111.054 104.668C108.199 106.236 104.876 109.686 103.614 112.314C102.889 113.994 102.379 116.293 102.189 119.315C102.038 121.815 101.549 125.103 101.074 126.621C99.85 131.121 100.912 133.492 104.204 133.424C105.521 133.396 105.992 134.115 105.041 134.707C102.492 136.372 95.2912 153.118 90.4929 168.461C88.4515 175.058 88.6185 175.783 90.8259 169.858C93.2725 163.253 98.8069 151.64 104.031 142.167L109.157 132.852L111.239 133.069C118.6 133.801 121.236 133.902 121.225 133.33C121.195 131.926 118.705 129.116 116.454 128.071C114.612 127.173 113.239 126.941 110.2 126.952L106.3 127.033L106.603 124.53C106.778 123.173 106.624 120.679 106.286 119.021C105.778 116.535 105.809 115.546 106.375 113.557C107.183 110.991 110.294 107.077 113.683 104.405C116.076 102.534 117.495 100.112 117.45 97.9278C117.399 95.4837 116.587 95.3965 116.231 97.797Z" fill="#C89E67"/>
<path d="M130.834 95.9329C129.421 96.2224 129.628 96.4262 134.134 98.7258C138.127 100.724 139.157 101.535 140.414 103.486C141.251 104.769 143.585 107.374 145.6 109.257L149.318 112.665L149.014 117.51C148.516 125.272 148.668 130.159 149.498 131.078C150.693 132.51 150.976 131.516 150.116 129.14C149.311 126.972 149.303 126.556 150.3 120.917C151.613 113.398 151.334 112.155 147.031 107.406C145.32 105.517 143.549 103.212 143.074 102.286C140.647 97.6541 135.423 94.9012 130.834 95.9329Z" fill="#C89E67"/>
<path d="M229.222 98.5197C228.585 99.5734 231.208 101.444 236.008 103.269C238.561 104.257 241.01 105.09 241.314 105.084C242.479 105.06 247.23 102.1 247.216 101.424C247.197 100.488 246.441 100.659 243.686 102.173L241.231 103.525L237.125 100.957C233.02 98.4408 229.807 97.4151 229.222 98.5197Z" fill="#C89E67"/>
<path d="M195.66 107.384C194.974 108.49 193.562 111.225 192.543 113.379C187.301 124.465 180.598 131.003 170.496 134.907C167.832 135.951 167.533 136.165 169.148 135.871C175.307 134.807 183.818 129.948 188.725 124.696C193.729 119.285 197.47 111.56 197.078 107.354L196.883 105.277L195.66 107.384Z" fill="#C89E67"/>
<path d="M125.646 124.445C124.296 127.751 125.705 132.196 128.681 134.007C130.22 134.911 130.881 135.002 134.066 134.675C136.087 134.425 139.525 134.094 141.75 133.891L145.845 133.494L150.352 135.846C155.831 138.645 157.299 138.563 152.376 135.7C146.94 132.535 144.853 132.058 137.611 132.209C131.332 132.339 131.231 132.341 129.833 130.913C128.954 130.047 128.212 128.502 127.717 126.587C126.935 123.118 126.418 122.608 125.646 124.445Z" fill="#C89E67"/>
<path d="M190.977 130.528C189.284 131.968 184.273 134.621 181.304 135.619C178.287 136.671 173.239 137.556 167.272 138.096C164.794 138.303 162.32 138.719 161.717 138.94C160.662 139.378 160.713 139.429 162.25 140.229C165.987 142.076 175.378 140.529 182.698 136.839C186.658 134.832 193.741 129.482 192.374 129.511C192.273 129.513 191.675 129.993 190.977 130.528Z" fill="#C89E67"/>
<path d="M115.333 137.459C112.076 139.191 107.207 146.263 100.038 159.626C96.966 165.413 91.7247 176.499 91.7398 177.227C91.7441 177.435 92.7774 175.957 94.053 173.953C96.7001 169.685 102.22 162.234 107.804 155.459C116.204 145.244 118.852 141.027 118.782 137.647C118.746 135.931 118.188 135.891 115.333 137.459Z" fill="#C89E67"/>
<path d="M142.893 140.059C140.48 140.941 138.627 141.968 137.736 142.975C136.398 144.408 137.507 144.176 140.663 142.446C143.617 140.772 144.223 140.655 148.679 140.563C153.997 140.452 157.97 141.514 158.917 143.212C159.232 143.725 159.476 145.697 159.514 147.569L159.585 150.949L163.369 152.64C165.415 153.586 168.085 155.299 169.223 156.42C170.93 158.101 171.352 158.925 171.918 161.775C172.26 163.64 172.555 165.611 172.565 166.131C172.577 166.703 173.212 167.991 173.941 168.964C176.128 171.78 178.358 176.728 178.403 178.86C178.432 180.264 178.097 181.207 177.254 182.109C174.677 184.868 171.932 184.405 167.441 180.388C164.085 177.388 162.563 177.264 161.195 179.686C160.169 181.528 159.912 183.77 160.772 183.752C161.076 183.746 161.52 183.164 161.861 182.481C162.727 180.278 163.791 180.308 165.813 182.503C168.457 185.414 170.611 186.669 173.352 186.925C175.383 187.143 176.089 186.972 177.536 185.901C178.484 185.205 179.772 183.826 180.41 182.824C181.392 181.295 181.527 180.512 181.279 178.332C180.916 175.478 178.954 171.253 176.664 168.335C175.676 167.107 174.981 165.353 174.531 163.177C173.736 159.084 172.416 156.51 170.2 154.683C168.447 153.211 162.867 150.413 161.752 150.436C161.398 150.444 161.091 150.294 161.086 150.034C160.627 142.604 160.362 142.037 156.835 140.498C153.92 139.205 145.861 139.009 142.893 140.059Z" fill="#C89E67"/>
<path d="M135.525 148.485C135.082 149.118 134.748 150.114 134.759 150.634C134.771 151.206 136.747 153.662 139.129 156.162C142.339 159.477 143.695 161.321 144.34 163.129C144.825 164.524 146.147 167.201 147.302 169.154C148.456 171.055 149.402 172.7 149.405 172.804C149.406 172.856 147.891 173.096 146.02 173.291C139.753 173.993 129.082 179.781 124.479 185.028C122.103 187.678 117.767 193.595 115.955 196.598L115.22 197.81L113.185 194.939C112.088 193.349 109.599 190.591 107.687 188.81C100.714 182.348 93.1716 180.215 87.7618 183.189C85.8591 184.269 85.7115 184.48 86.5799 184.826C98.1164 189.009 100.422 190.261 105.792 195.144C107.858 197.026 111.124 200.6 113.05 203.057C117.056 208.125 116.402 208.346 118.539 201.487C120.296 195.831 122.939 191.354 127.397 186.476C131.906 181.596 136 178.701 141.028 176.828C144.245 175.617 150.214 175.181 151.041 175.996C151.352 176.302 151.794 178.061 152.137 179.979C152.668 183.558 154.052 186.807 155.495 187.973C156.526 188.836 156.526 188.836 155.467 181.731C154.53 175.663 153.997 174.374 150.293 169.248C148.886 167.353 146.844 164.169 145.789 162.162C143.996 158.766 142.698 157.232 137.592 152.864L135.528 151.086L136.401 149.195C137.269 147.096 136.702 146.64 135.525 148.485Z" fill="#C89E67"/>
<path d="M214.439 159.799C216.184 163.353 218.734 169.023 220.071 172.428C223.806 181.507 229.098 197.265 228.814 198.207C228.62 198.627 227.128 199.959 225.43 201.139C222.384 203.283 216.052 205.756 207.39 208.277C205.024 209.002 201.356 210.431 199.199 211.464C194.434 213.8 194.799 214.313 201.795 214.532C210.262 214.824 220.327 211.598 227.714 206.242C230.758 203.993 234.071 200.075 234.043 198.723C233.986 195.967 221.541 170.005 215.029 158.955C211.039 152.222 210.842 152.487 214.439 159.799Z" fill="#C89E67"/>
<path d="M160.036 160.305C157.93 161.337 155.105 164.361 154.585 166.141C153.971 168.286 159.309 176.499 161.284 176.458C162.094 176.442 163.326 174.803 164.537 172.125C165.119 170.864 166.317 170.007 169.581 168.586C170.685 168.095 170.43 167.997 168.05 168.046C165.01 168.057 162.503 169.306 161.531 171.303C161.141 172.039 160.791 172.255 160.429 171.898C160.119 171.592 160.308 170.964 161.101 170.115C161.744 169.374 162.929 167.84 163.816 166.677C164.653 165.515 166.098 164.341 167.054 164.009L168.713 163.402L166.788 163.39C164.407 163.387 161.45 164.958 159.723 167.178C158.982 168.078 158.338 168.768 158.285 168.665C158.181 168.563 157.816 168.05 157.452 167.59C156.879 166.821 156.97 166.351 157.896 164.563C159.163 162.144 161.207 160.593 164.13 159.803L166.095 159.294L164.068 159.285C162.954 159.308 161.14 159.762 160.036 160.305Z" fill="#C89E67"/>
<path d="M153.369 193.27C135.989 212.62 78.5548 274.422 72.1992 280.64C68.424 284.256 66.8703 285.069 63.4774 285.14C59.8313 285.215 56.3565 283.779 50.8052 279.94C48.4412 278.324 46.2389 277.174 45.4793 277.189C41.4787 277.272 40.8467 288.315 44.548 293.336C45.6428 294.822 47.1847 295.883 50.5108 297.479C54.5525 299.372 55.4177 299.562 58.8116 299.543C63.3693 299.449 66.2805 298.14 71.9121 293.653C76.9458 289.646 111.925 251.67 121.657 239.711C122.941 238.123 130.717 229.534 138.941 220.623C153.111 205.241 158.803 198.776 163.289 192.804C167.579 187.096 166.877 187.475 158.829 195.134C153.315 200.399 136.771 218.587 118.36 239.519C116.032 242.116 110.487 248.318 105.98 253.302C96.8667 263.324 91.1715 269.633 80.8264 281.346C73.5507 289.613 65.7395 296.486 62.3176 297.598C58.2923 298.93 54.0654 297.873 49.2296 294.332C46.246 292.157 45.2935 290.199 45.151 285.78C44.9773 279.853 44.9773 279.853 50.4736 283.485C55.8675 287.066 59.3897 288.346 63.5928 288.259C68.9607 288.147 70.0069 287.293 87.8863 267.569C96.8007 257.707 107.204 246.358 111.071 242.271C114.887 238.186 119.344 233.255 120.978 231.401C122.61 229.494 124.84 227.106 125.932 226.043C127.025 224.98 128.558 223.179 129.396 222.07C130.183 220.909 133.002 217.625 135.576 214.71C138.15 211.795 142.061 207.396 144.238 204.905C146.416 202.415 150.774 197.59 153.894 194.144C157.014 190.697 159.687 187.677 159.733 187.415C160.209 185.949 158.518 187.493 153.369 193.27Z" fill="#C89E67"/>
<path d="M72.7817 193.903C70.3284 195.307 67.1178 199.275 66.1137 202.158C65.3478 204.306 65.3564 204.723 66.1808 207.827C67.7229 213.778 72.3476 219.352 78.0809 222.199C80.1798 223.248 81.7066 223.58 85.0025 223.72C89.0074 223.845 89.3608 223.785 92.8689 221.944C96.8769 219.779 100.502 216.27 104.343 210.936L106.754 207.505L102.14 212.179C96.8294 217.491 92.5262 220.078 88.3306 220.529C81.7592 221.238 74.025 214.739 72.1391 206.871C71.6951 205.007 71.7812 204.277 72.7928 201.759C74.0953 198.61 75.4947 192.806 74.9376 192.818C74.7362 192.874 73.7837 193.362 72.7817 193.903Z" fill="#C89E67"/>
<path d="M217.018 198.713C212.26 201.361 205.111 203.538 196.932 204.905C194.711 205.263 192.24 205.834 191.385 206.112C189.928 206.715 187.14 209.062 187.154 209.738C187.157 209.894 187.826 210.4 188.647 210.903C192.851 213.313 204.275 209.642 213.96 202.73C217.555 200.158 222.533 195.945 221.828 196.116C221.676 196.119 219.522 197.308 217.018 198.713Z" fill="#C89E67"/>
<path d="M56.7078 212.706C54.4508 218.683 59.0057 228.213 65.4458 230.941C69.8397 232.722 79.6316 233.404 80.0571 231.938C80.1509 231.572 78.8277 231.287 76.2914 231.132C71.3707 230.818 67.9562 229.848 64.7744 227.885C61.2337 225.722 60.2197 223.246 58.797 213.286C58.3821 210.382 57.6688 210.188 56.7078 212.706Z" fill="#C89E67"/>
<path d="M262.156 211.092C262.16 211.301 263.208 212.996 264.514 214.893C267.756 219.716 269.085 222.758 269.467 226.496C269.988 232.052 268.089 235.785 263.186 238.748C261.835 239.557 260.737 240.36 260.741 240.568C260.745 240.724 261.46 241.021 262.325 241.211C264.717 241.734 268.218 239.528 270.027 236.369C271.983 232.999 272.23 227.791 270.625 223.715C270.038 222.27 269.759 221.027 270.012 221.022C271.177 220.998 274.001 222.812 276.635 225.255C278.186 226.731 281.222 229.009 283.427 230.264C290.199 234.337 295.04 240.584 295.71 246.033C296.025 248.991 295.347 250.514 293.089 251.55C290.529 252.695 288.64 252.006 281.913 247.62C276.981 244.34 270.637 241.351 270.043 242.039C269.893 242.147 270.426 243.384 271.164 244.773C273.538 249.302 281.78 255.894 286.619 257.146C289.929 257.962 294.122 257.355 296.468 255.693C297.566 254.89 299.022 254.236 299.68 254.222C301.25 254.189 301.695 253.66 300.916 252.74C300.554 252.383 300.21 250.465 300.119 248.542C299.817 241.317 294.351 234.251 285.388 229.547C283.031 228.295 279.639 225.973 277.833 224.397C275.977 222.823 273.355 221.005 271.974 220.357C269.928 219.411 268.946 218.495 267.22 215.878C265.179 212.747 263.366 210.807 262.554 210.772C262.301 210.777 262.152 210.936 262.156 211.092Z" fill="#C89E67"/>
<path d="M256.082 215.902C256.508 221.772 255.349 224.553 250.481 229.18C248.492 230.99 246.907 232.74 246.912 233C246.927 233.728 249.355 233.522 250.906 232.605C253.361 231.253 256.366 227.133 257.162 223.995C258.005 220.7 257.764 216.387 256.538 213.499C255.793 211.746 255.744 211.851 256.082 215.902Z" fill="#C89E67"/>
<path d="M210.343 216.383C211.172 219.695 213.211 222.723 217.193 226.646C222.519 231.842 223.284 232.086 233.717 231.921C240.959 231.771 241.767 231.65 243.971 230.46C245.475 229.7 246.867 228.423 247.652 227.158C248.875 225.103 250.333 219.663 249.765 219.154C249.092 218.44 248.698 219.02 248.243 221.475C247.56 225.183 245.643 228.032 243.134 229.177C241.527 229.886 239.658 230.133 235.251 230.173C227.148 230.289 225.202 229.289 216.976 221.084C213.613 217.72 210.668 214.972 210.415 214.977C210.162 214.982 210.124 215.607 210.343 216.383Z" fill="#C89E67"/>
<path d="M51.4546 220.723C50.8599 221.36 51.2081 225.931 52.0131 228.099C54.5368 234.966 59.837 238.914 68.3231 240.142L70.7624 240.508L68.6335 242.893C62.0991 250.26 55.6733 253.099 51.414 250.482C48.7462 248.873 44.0234 243.456 43.6301 241.591C43.4576 240.606 43.6741 238.833 44.244 237C44.7169 235.378 44.9421 234.02 44.7395 234.025C43.6254 234.048 41.3058 237.009 40.5937 239.313C39.552 242.821 36.7184 245.429 30.3529 248.734C27.4461 250.251 24.6965 252.025 24.2041 252.712C22.977 254.61 23.3294 256.944 25.3337 260.752C26.3358 262.656 27.1817 264.355 27.186 264.563C27.1903 264.771 25.837 265.476 24.1789 266.135C22.5713 266.792 21.0673 267.552 20.8712 267.868C20.3336 268.816 21.8044 271.334 23.2859 271.928C25.5335 272.818 26.486 272.33 27.6969 269.651L28.7603 267.184L30.6092 268.394C35.4902 271.674 43.0054 270.062 45.437 265.173C46.119 263.858 47.5885 261.435 48.7715 259.849C49.9038 258.265 50.8357 256.789 50.8325 256.633C50.8206 256.061 45.7598 256.322 44.608 256.97C42.8055 257.996 40.7251 260.276 40.0528 262.059C39.428 263.685 38.5272 264.224 36.0502 264.483C33.3706 264.747 32.7036 264.345 29.8988 261.021C25.5877 255.909 25.9152 254.601 32.4616 250.251C34.5615 248.907 37.2539 246.822 38.4962 245.652L40.7825 243.523L42.6056 245.931C44.8458 248.902 49.2215 252.244 52.386 253.375C54.9892 254.31 57.4156 254.051 60.121 252.59C62.3243 251.348 68.5905 245.703 70.1161 243.538C70.8552 242.535 72.1977 241.31 73.1512 240.874C74.6079 240.272 74.805 240.007 74.2857 239.394C73.9225 238.985 72.9022 238.642 72.0413 238.66C69.1548 238.72 64.0077 237.266 61.2893 235.658C58.2637 233.9 56.434 231.181 54.2896 225.502C52.8952 221.786 51.9502 220.192 51.4546 220.723Z" fill="#C89E67"/>
<path d="M260.103 221.853C259.285 228.789 257.423 231.845 252.065 234.87C249.811 236.113 248.013 237.347 248.018 237.607C248.037 238.491 250.626 238.75 252.689 238.083C257.569 236.421 260.453 231.366 260.751 223.764C261 218.661 260.572 217.577 260.103 221.853Z" fill="#C89E67"/>
<path d="M12.7141 289.836C7.86019 290.301 6.46278 291.318 6.52757 294.438C6.57292 296.622 6.67852 296.828 8.36477 297.522C10.4087 298.364 17.6018 298.318 20.4204 297.427C22.2326 296.87 22.2822 296.816 22.2314 294.372C22.1461 290.264 19.8942 289.166 12.7141 289.836Z" fill="#C89E67"/>
</g>
</svg>
