<svg width="350" height="302" viewBox="0 0 350 302" fill="none" xmlns="http://www.w3.org/2000/svg">
<g opacity="0.45">
<path d="M174.874 53.1606C174.478 54.3723 173.735 55.2834 173.139 55.1307C172.612 54.8689 171.813 56.8246 171.33 59.3691C170.527 63.484 170.226 63.8306 168.949 62.6987C167.671 61.5669 167.441 61.8043 166.983 64.9063C166.596 67.8992 166.86 68.6869 168.935 71.3358C170.625 73.505 172.024 74.329 174.076 74.2614C176.525 74.2955 176.634 74.3658 174.769 74.8624C172.634 75.4172 172.634 75.4172 174.63 76.394C176.189 77.0897 176.357 77.429 175.28 77.6615C174.401 77.945 174.549 78.1946 175.922 78.4613C177.692 78.8298 177.712 78.9195 175.667 79.4549L173.462 80.1188L175.86 80.3516L178.259 80.5845L176.035 81.1586C173.919 81.8031 173.919 81.8031 175.716 82.729C177.583 83.5458 177.513 83.6549 175.616 84.4399C174.059 85.0578 174.367 85.179 176.63 84.7841L179.521 84.2536L180.76 89.9924C181.457 93.2205 182.526 95.993 183.032 96.1651C183.738 96.3881 182.904 91.2189 180.774 81.3553C177.715 67.1877 177.623 65.8935 178.765 61.6114C179.428 59.0281 179.502 56.7598 178.995 56.5877C178.489 56.4156 178.166 55.3589 178.312 54.295C178.42 53.0518 178.143 52.6422 177.682 53.1172C177.202 53.5025 176.567 53.1704 176.213 52.4022C175.634 51.0256 175.384 51.1734 174.874 53.1606Z" fill="#C89E67"/>
<path d="M123.868 76.6563C120.724 79.4939 117.512 85.0675 116.217 89.9457C115.126 94.0291 115.13 96.6561 116.547 105.829C118.223 116.635 118.262 116.815 115.701 124.969C112.522 135.041 112.58 135.31 116.247 134.893C116.715 134.886 118.352 131.154 119.833 126.705C122.906 117.876 125.697 114.271 130.888 112.211C135.31 110.505 137.89 107.227 140.714 99.8597C143.155 93.3263 143.325 86.72 141.103 83.8214C139.927 82.2921 139.825 82.6896 140.619 86.366C141.652 91.5861 140.85 95.7011 137.466 101.781C134.191 107.932 130.751 110.27 126.344 109.438C120.186 108.328 117.196 102.31 118.171 92.9025C119.158 83.1168 126.059 75.057 132.384 76.5067C135.437 77.1613 136.238 76.5192 134.024 75.4018C131.791 74.1947 125.751 74.9358 123.868 76.6563Z" fill="#C89E67"/>
<path d="M173.49 96.3485C174.295 103.12 171.592 114.965 168.034 120.238C166.696 122.31 165.628 124.324 165.725 124.772C165.938 125.759 163.103 130.031 162.116 130.244C161.757 130.322 161.338 128.817 161.201 126.875C160.803 121.987 157.417 117.181 155.129 118.332C154.18 118.725 153.065 118.778 152.679 118.298C152.204 117.838 152.466 117.312 153.364 117.118C154.351 116.905 154.562 116.578 153.997 116.137C152.47 115.153 145.452 117.888 145.742 119.233C145.878 119.861 147.051 120.076 148.487 119.766C150.84 119.352 158.298 119.525 156.811 120.034C156.382 120.22 156.697 120.809 157.48 121.391C158.174 121.992 158.656 122.92 158.413 123.536C158.241 124.042 158.517 124.452 158.966 124.355C159.504 124.239 160.03 124.5 160.146 125.038C160.243 125.487 159.532 126.109 158.545 126.323C157.468 126.555 155.629 127.609 154.278 128.746C152.907 129.793 151.01 130.578 149.855 130.451C148.611 130.345 148.201 130.621 148.676 131.081C149.062 131.561 150.633 131.879 152.147 131.928C154.955 131.884 157.625 133.372 158.866 135.638C159.348 136.567 159.79 136.002 160.46 133.886C161.417 130.489 162.105 131.936 161.766 136.889L161.546 140.221L163.209 137.047L164.962 133.853L165.205 138.024C165.629 143.469 166.224 142.308 167.2 134.214C167.911 128.805 168.224 128.08 168.779 130.213C169.372 132.525 169.583 132.198 170.179 127.564C171.289 118.784 171.117 119.291 172.215 120.462C172.909 121.063 173.241 120.428 173.245 118.268L173.324 115.154L174.92 119.502C175.892 121.826 177.622 125.488 178.894 127.466C180.167 129.443 181.356 131.908 181.589 132.984C181.886 134.797 181.777 134.727 179.209 132.841C175.859 130.374 175.873 131.309 179.419 135.987C180.871 137.926 182.453 141.338 182.918 143.49C183.479 146.09 185.144 149.016 187.733 152.304C189.988 154.915 192.751 159.01 193.921 161.386L196.056 165.617L192.596 163.079C190.574 161.545 189.56 161.201 190.241 162.18C190.813 163.089 192.183 165.515 193.295 167.621C198.323 177.422 198.397 179.94 193.416 172.099C190.852 168.055 186.486 163.929 186.822 165.922C186.938 166.46 188.579 170.141 190.457 174.053C192.334 177.964 194.168 182.542 194.575 184.425C195.233 187.474 195.112 187.782 191.364 189.999C184.706 193.97 184.726 194.06 183.604 185.386C183.092 181.274 182.706 176.008 182.761 173.65C182.843 168.376 182.766 168.018 181.779 168.231C181.33 168.328 180.672 170.065 180.341 172.014C179.806 174.757 179.524 175.193 179.215 173.758C178.893 172.702 178.845 170.741 179.112 169.369C179.29 168.017 179.148 166.922 178.699 167.019C178.25 167.116 177.757 167.879 177.662 168.744C177.478 169.629 177.126 170.174 176.798 169.963C176.49 169.842 176.305 165.94 176.363 161.423C176.569 152.369 176.497 151.164 175.574 152.114C175.184 152.48 174.688 155.403 174.468 158.735C174.248 162.067 173.544 167.944 172.883 171.841C171.554 180.48 171.402 185.863 172.609 187.104C173.103 187.654 173.769 186.384 174.233 183.75L175.016 179.545L176.283 182.369C178.052 186.21 178.539 186.292 179.208 182.863C180.074 178.171 181.223 179.143 182.617 185.6L183.934 191.697L176.418 196.042C169.382 200.001 168.761 200.604 167.08 205.003C164.914 210.632 165.527 213.034 169.286 213.911C171.672 214.522 172.147 214.983 172.144 217.142C172.056 218.475 172.169 221.172 172.396 223.094C172.552 225.125 172.653 228.2 172.502 230.11C172.257 234.198 173.709 240.923 175.258 243.311C176.897 245.678 176.483 238.541 174.54 229.107C173.119 222.093 173.163 221.427 175.071 218.95C177.381 215.73 177.335 215.083 174.537 213.434C171.322 211.595 171.294 209.724 174.5 209.782C176.789 209.945 176.95 209.816 175.473 208.634C174.581 207.982 174.028 207.163 174.239 206.835C174.47 206.598 175.542 207.211 176.601 208.202C177.918 209.514 180.343 210.304 184.056 210.534C191.681 211.046 192.137 211.417 187.137 213.06L182.747 214.477L186.275 215.592L189.804 216.707L185.881 218.117C182.837 219.244 182.587 219.392 184.76 219.016C189.126 218.355 189.558 219.482 185.482 221.488C182.874 222.896 182.483 223.262 184.118 223.003C188.196 222.31 189.037 223.161 188.305 227.167C187.974 229.115 188.004 232.3 188.43 234.272C189.36 238.576 187.209 241.669 181.838 243.767C177.685 245.414 178.757 246.028 185.798 246.009C195.667 246.036 195.257 246.313 193.632 240.094C192.092 234.702 192.474 222.982 194.107 221.409C194.978 220.658 198.809 227.526 201.14 233.968L202.736 238.316L202.949 234.516C203.112 232.228 203.982 230.163 205.103 229.264L206.934 227.743L204.272 226.722C200.685 225.338 200.632 224.223 204.203 223.358L207.075 222.738L203.136 221.899L199.179 220.971L202.543 219.587L205.889 218.114L202.566 217.518C198.916 216.711 199.147 216.473 204.819 214.028L208.613 212.458L205.258 212.15L201.924 211.932L205.404 211.086C207.36 210.57 208.667 210.1 208.449 209.96C207.903 209.608 203.421 209.731 200.889 210.184C198.536 210.599 198.508 208.728 200.931 208.204C202.008 207.972 203.437 207.194 204.058 206.591C204.82 205.769 202.698 205.946 197.133 207.148C191.549 208.259 188.241 208.598 186.502 207.942L183.968 207.081L187.206 206.851C188.969 206.752 193.355 206.18 196.823 205.713C204.119 204.7 201.144 204.405 189.897 204.956C181.997 205.348 180.309 204.492 185.578 202.792L189.36 201.6L185.481 202.343C183.218 202.738 181.685 202.6 181.928 201.984C182.171 201.369 185.382 200.581 190.306 199.894C198.68 198.649 204.737 196.684 204.427 195.249C204.311 194.711 201.092 195.031 197.323 195.845C191.828 196.937 190.623 197.01 191.814 196.002C192.666 195.161 195.499 194.361 199.366 193.996C207.977 192.981 208.663 193.114 209.302 196.073C209.612 197.508 210.833 199.685 212.06 201.015C213.82 203.075 214.064 203.773 213.426 205.6C212.787 207.428 212.903 207.966 214.559 209.11C216.344 210.414 216.363 210.503 214.747 210.852C213.581 211.104 214.364 211.686 217.077 212.507C223.121 214.393 224.073 216.628 222.579 226.242C221.925 230.606 221.494 234.265 221.622 234.425C221.821 234.476 223.27 233.788 224.948 232.863C228.396 230.992 228.714 229.422 227.172 222.716C225.263 214.306 223.108 209.985 220.041 208.395C217.41 207.086 217.153 206.766 217.746 204.292C218.198 202.036 218.062 201.408 216.188 200.124C213.858 198.468 203.228 181.431 204.305 181.198C204.664 181.12 205.319 181.542 205.704 182.022C208.479 185.74 203.122 174.415 195.53 160.569C185.249 141.673 183.222 136.198 183.684 127.464C184.275 114.103 184.215 102.948 183.407 103.123C182.958 103.22 181.299 104.235 179.659 105.34C176.878 107.254 176.827 107.453 178.592 108.667C180.942 110.412 181.162 111.866 179.761 114.515C179.077 115.695 179.013 116.272 179.564 115.778C180.185 115.174 180.66 115.635 180.99 117.159C181.687 120.387 180.712 120.222 176.968 116.807C172.75 112.932 172.356 110.671 175.21 106.488C176.426 104.724 177.225 102.768 176.929 102.269C176.544 101.789 175.565 98.9975 174.657 96.0965L172.957 90.8327L173.49 96.3485Z" fill="#C89E67"/>
<path d="M136.962 118.595C132.996 125.458 134.378 132.292 140.159 134.704C141.699 135.31 144.837 136.791 147.089 138.088C149.323 139.295 151.171 140.022 151.112 139.753C150.667 137.69 145.37 132.734 142.785 132.072C139.077 130.996 138.605 128.376 142.028 127.262C144.303 126.489 144.354 126.29 143.11 121.397C141.846 116.414 141.827 116.325 144.735 114.57L147.644 112.816L143.516 113.707C139.727 114.432 139.086 114.945 136.962 118.595Z" fill="#C89E67"/>
<path d="M111.626 137.862C112.61 139.808 112.559 140.006 110.769 139.548C108.453 138.828 107.327 140.573 107.685 143.968C107.945 146.915 111.094 146.705 113.244 143.613C114.389 141.957 114.889 141.662 115.083 142.559C115.238 143.276 114.842 144.488 114.259 145.27C112.422 147.638 113.522 150.122 116.215 149.541C117.92 149.172 118.536 149.415 118.3 150.498C118.186 151.273 118.591 151.843 119.219 151.707C119.937 151.552 119.925 151.93 119.143 152.662C118.202 153.522 118.497 154.022 120.968 155.459C122.586 156.424 123.953 157.536 124.031 157.895C124.108 158.253 125.829 160.134 127.749 162.066C131.313 165.52 133.05 169.649 131.577 171.093C131.187 171.459 130.893 172.274 130.99 172.722C131.106 173.26 132.086 172.579 133.13 171.321C134.775 169.371 135.454 169.036 136.635 169.72C137.906 170.384 138.156 170.236 137.666 168.84C136.404 165.171 136.608 164.376 138.541 165.93C140.236 167.253 140.236 167.253 139.271 165.397C138.326 163.63 138.467 163.412 140.198 163.601C141.641 163.759 142.122 163.373 141.909 162.387C141.735 161.58 141.958 160.875 142.317 160.797C142.766 160.7 143.494 158.854 143.947 156.597L144.858 152.553L146.899 154.177C148.485 155.43 148.973 155.512 149.119 154.448C149.233 153.673 149.161 152.468 148.846 151.879C148.531 151.291 148.825 150.476 149.414 150.161C150.074 149.737 150.685 150.825 151.401 154.143C152.214 157.909 155.416 163.6 156.582 163.348C156.672 163.328 156.188 161.087 155.338 158.455C154.05 154.228 154.094 153.562 155.466 153.828C156.64 154.044 156.902 153.518 156.573 151.994C156.321 150.828 156.165 148.797 156.272 147.554C156.314 145.574 156.205 145.504 154.693 146.769C152.471 148.657 152.381 148.676 151.211 146.301C150.207 144.265 150.118 144.285 147.607 146.141C142.924 149.686 142.552 150.141 142.69 152.083C142.769 153.755 134.986 164.257 133.46 164.587C131.486 165.013 125.385 154.599 120.836 143.099C118.944 138.252 118.095 136.934 117.186 137.506C116.526 137.93 115.968 137.956 115.871 137.508C115.794 137.149 114.542 136.575 113.15 136.219C110.694 135.717 110.604 135.736 111.626 137.862Z" fill="#C89E67"/>
<path d="M117.261 159.169C121.45 169.433 128.779 182.491 130.215 182.181C130.574 182.103 132.944 180.465 135.455 178.609C139.017 175.963 140.395 175.384 141.556 175.978C142.628 176.591 143.897 175.941 146.85 173.521L150.783 170.419L152.712 174.132C155.419 179.272 162.467 189.294 165.003 191.468C166.955 193.111 166.839 192.573 163.444 185.986L159.714 178.72L162.358 179.651C164.385 180.339 163.891 179.789 160.469 177.431C154.192 173.155 154.03 171.97 159.66 171.505L163.975 171.043L160.216 170.165L156.457 169.288L159.821 167.904C161.738 167.209 164.018 165.59 164.972 164.352L166.72 162.004L164.068 164.078C159.885 167.327 157.607 166.787 161.194 163.385C165.312 159.398 164.067 159.292 159.462 163.195C155.228 166.644 152.812 167.635 151.906 166.047C151.353 165.228 150.814 165.344 149.104 166.558C147.253 167.99 146.874 167.978 146.603 166.723C146.39 165.736 145.91 166.122 144.931 168.116C143.812 170.329 143.261 170.823 142.51 169.953C141.797 169.262 141.509 169.231 141.683 170.038C141.915 171.114 134.287 177.547 132.312 177.974C130.876 178.284 127.221 173.536 121.751 164.3C116.487 155.582 115.202 153.983 117.261 159.169Z" fill="#C89E67"/>
<path d="M171.427 255.587C170.257 257.999 170.278 259.402 171.477 263.648C173.3 269.917 174.302 270.64 178.884 268.805C182.698 267.325 184.734 265.008 184.25 262.767C184.017 261.691 183.409 261.916 181.244 264.073C179.771 265.517 178.471 266.455 178.413 266.186C178.141 264.93 182.444 260.06 184.149 259.691C186.303 259.226 189.471 254.319 189.691 250.987L189.745 248.629L188.434 251.258C187.225 253.49 186.905 253.747 185.845 252.756C185.133 252.065 184.735 251.963 184.89 252.68C185.025 253.308 184.411 254.379 183.54 255.13C181.548 256.781 178.495 256.126 177.126 253.7C175.776 251.364 173.051 252.234 171.427 255.587Z" fill="#C89E67"/>
<path d="M209.647 255.969C208.843 258.77 203.304 264.002 200.342 264.641C199.534 264.816 198.084 264.191 197.024 263.199C195.252 261.517 195.272 261.607 196.41 264.27C197.883 267.612 196.704 268.242 193.911 265.748L191.96 264.105L193.072 266.211C193.702 267.389 194.48 268.817 194.776 269.316C195.92 271.133 193.611 270.881 192.197 269.122C191.356 268.271 190.592 267.779 190.362 268.016C190.24 268.324 190.652 269.361 191.494 270.212C192.412 271.422 192.618 271.94 191.9 272.095C191.362 272.212 190.103 271.169 189.146 269.781C187.932 268.072 187.277 267.65 187.092 268.535C186.927 269.509 186.728 269.458 186.476 268.292C185.96 266.339 185.262 266.584 182.226 269.492C179.101 272.419 179.464 274.968 183.483 278.793C185.127 280.315 187.568 283.354 188.969 285.492C191.996 290.375 196.545 292.302 199.915 290.073C202.145 288.653 202.303 287.211 200.492 285.35C199.523 284.339 199.164 284.417 198.069 285.873C197.256 286.893 196.897 286.971 197.191 286.156C197.485 285.342 196.869 285.1 195.054 285.398C193.708 285.688 193.022 285.555 193.592 285.15C194.412 284.598 194.245 284.259 192.775 283.544C191.325 282.918 191.267 282.649 192.145 282.366C193.133 282.153 192.876 281.833 191.406 281.118C189.519 280.211 189.519 280.211 191.654 279.656C193.769 279.012 193.769 279.012 190.954 278.588C188.157 278.253 188.138 278.163 190.016 277.288L192.053 276.285L189.537 274.201C188.169 273.089 187.142 271.809 187.442 271.462C187.634 271.046 187.962 271.256 188.078 271.794C188.291 272.781 193.379 274.592 195.084 274.223C195.533 274.126 197.518 272.008 199.335 269.551C201.454 266.748 204.458 264.128 207.495 262.534C215.499 258.272 220.961 252.681 216.025 253.747C215.038 253.96 213.325 253.861 212.331 253.606C210.721 253.109 210.26 253.584 209.647 255.969Z" fill="#C89E67"/>
<path d="M165.699 276.908C165.874 277.715 165.215 279.453 164.3 280.871C162.342 283.546 161.172 290.743 161.985 294.509C162.682 297.738 164.479 298.663 168.518 297.791C172.736 296.881 174.976 293.769 174.163 290.003C173.834 288.479 174.235 286.421 175.169 285.093C176.244 283.547 176.308 282.97 175.41 283.164C173.436 283.59 172.341 285.047 172.408 287.097C172.567 290.441 171.094 291.886 167.259 291.963C164.091 292.084 163.873 291.943 165.327 290.409C166.069 289.498 166.222 288.902 165.684 289.018C165.056 289.154 164.51 288.803 164.413 288.354C164.297 287.816 164.848 287.322 165.656 287.147C166.912 286.876 166.854 286.607 165.724 285.725C164.594 284.843 164.536 284.574 165.793 284.302C166.601 284.128 167.042 283.563 166.817 282.955C166.502 282.366 166.944 281.801 167.642 281.557C168.54 281.363 168.725 280.478 168.235 279.082C167.424 276.63 165.235 274.756 165.699 276.908Z" fill="#C89E67"/>
</g>
</svg>
