<svg width="299" height="269" viewBox="0 0 299 269" fill="none" xmlns="http://www.w3.org/2000/svg">
<g opacity="0.45">
<path d="M100.009 13.6754C98.962 14.1724 97.3347 15.6469 96.2675 16.9658C94.4911 19.2059 93.3608 22.9273 94.156 23.6431C94.3582 23.8851 94.5305 23.5603 94.5007 22.9936C94.4677 22.364 94.8852 21.9001 95.389 21.8736C95.9556 21.8438 96.3632 22.3907 96.4161 23.3981C96.4658 24.3426 96.9893 25.8935 97.6122 26.9341C98.7222 28.8331 98.7852 28.8298 99.5408 27.5904C100.943 25.4332 102.911 23.2462 106.05 20.4926C109.792 17.2021 111.518 16.4169 113.079 17.2819C114.182 17.8553 114.01 18.1801 111.299 20.6587C107.922 23.6774 102.543 28.2534 101.141 29.211C100.349 29.7578 100.422 29.9434 101.473 30.709C102.914 31.7066 104.687 31.8028 104.071 30.8881C103.454 29.9734 104.276 28.7937 108.184 25.0527C111.733 21.7092 114.142 20.6987 114.918 22.2364C115.067 22.6705 115.074 21.5968 114.858 19.9034C114.527 17.2058 114.11 16.4701 111.939 14.8163C110.03 13.3382 109.063 12.947 107.883 13.3247C106.7 13.6395 106.571 13.5831 107.237 13.043C108.635 12.0224 102.286 12.5455 100.009 13.6754Z" fill="#C89E67"/>
<path d="M148.941 30.4873C148.809 31.5676 148.825 33.0821 149.051 33.7647C149.216 34.5137 148.702 36.7505 147.857 38.6891C146.395 42.1123 146.091 42.3177 138.866 46.6119C134.153 49.4483 130.259 52.2416 128.165 54.4352L124.874 57.8914L124.86 64.8373C124.773 72.7973 125.535 76.4824 128.272 81.7054C130.515 85.944 130.783 88.6449 129.726 97.3504C128.827 104.28 128.936 106.358 130.238 109.509C131.252 111.981 132.643 119.232 133.789 127.822C134.839 135.785 134.912 135.971 137.494 135.835C139.508 135.729 139.691 135.594 139.306 134.288C136.765 125.582 133.31 112.694 133.25 111.561C133.211 110.805 133.608 109.963 134.225 109.678C135.09 109.317 135.017 109.132 133.801 108.817C130.653 107.783 130.206 101.682 132.53 91.8363C133.196 88.8969 133.832 84.1912 133.876 81.4109C133.899 77.0531 133.817 76.6786 133.356 78.7232C133.047 80.0653 132.537 81.1655 132.285 81.1788C131.53 81.2185 129.548 77.1555 128.534 73.4836C127.895 70.9285 127.776 68.6618 128.055 64.3537C128.333 61.2453 128.625 58.3888 128.797 58.064C129.033 57.7359 130.915 56.3111 133.056 54.999C135.257 53.6206 138.945 50.5224 141.282 48.1266C143.681 45.7275 146.402 43.4378 147.39 43.0071C148.811 42.4273 149.103 41.97 148.739 41.0421C148.513 40.3594 148.765 39.1465 149.345 38.1689C149.978 36.9992 150.257 35.0904 150.181 32.4426C150.022 28.2207 149.402 27.243 148.941 30.4873Z" fill="#C89E67"/>
<path d="M151.09 62.9538C151.352 63.1295 150.444 63.8717 149.092 64.5742C147.74 65.2766 146.467 66.2906 146.305 66.8042C146.142 67.3179 145.039 67.9441 143.793 68.2621C141.861 68.7425 141.682 68.9413 142.069 70.31C142.364 71.1153 142.275 71.8145 142.023 71.8278C141.708 71.8443 140.916 73.5907 140.273 75.7712C138.814 80.4569 139.371 81.4379 143.271 81.1697L145.85 80.9711L143.868 80.507C140.991 79.8374 140.243 78.8034 141.081 76.7389C141.409 75.7746 142.125 74.9793 142.566 74.9561C143.196 74.923 143.179 74.6082 142.626 73.6902C142.003 72.6496 142.056 72.4574 143.126 72.4011C143.819 72.3647 144.558 72.0102 144.787 71.5562C145.019 71.1652 144.949 71.0426 144.581 71.2513C144.217 71.523 143.756 71.1684 143.531 70.4857C143.226 69.4915 143.464 69.2265 144.535 69.1702C145.29 69.1305 146.218 68.766 146.636 68.3021C147.113 67.7719 147.365 67.7587 147.388 68.1995C147.408 68.5772 148.124 68.9816 149.012 69.0612C150.984 69.3364 150.977 69.2105 149.128 67.6661C147.743 66.5392 147.74 66.4763 148.936 66.4134C149.629 66.377 150.593 66.7051 151.116 67.0565C151.908 67.7094 151.905 67.6464 151.166 66.8013C150.424 65.8932 150.474 65.638 151.889 64.9323C153.118 64.2994 153.874 64.2597 155.097 64.7006C157.032 65.4828 157.204 66.3577 155.471 67.017C154.606 67.3782 154.377 67.8322 154.728 68.5082C155.013 69.1246 155.278 70.5629 155.404 71.7559C155.576 73.8304 155.709 73.9497 157.651 73.6583C159.278 73.3833 159.795 73.6087 160.299 74.7819C160.719 75.5806 160.985 75.8192 160.961 75.3784C160.952 73.9899 159.593 72.1672 158.586 72.2201C157.263 72.2896 156.034 69.3235 156.919 68.1406C158.039 66.6295 159.385 67.0008 162.37 69.7482C164.822 71.9555 165.306 72.7509 165.415 74.8287C165.581 77.9769 163.675 81.3602 160.792 82.964C159.629 83.6565 159.088 84.19 159.592 84.1635C161.418 84.0675 164.497 81.3802 165.627 78.8584C168.335 72.718 165.257 67.0079 157.241 63.4514C154.915 62.4372 150.093 61.996 151.09 62.9538Z" fill="#C89E67"/>
<path d="M160.146 111.536C160.292 111.908 160.116 113.369 159.616 114.658C157.969 119.354 159.565 125.71 162.535 125.743C162.975 125.72 162.117 126.207 160.566 126.731C159.018 127.317 156.132 128.858 154.12 130.226C149.61 133.305 144.168 135.485 139.469 136.174C136.211 136.66 135.575 136.568 133.226 135.113C131.009 133.777 130.243 133.628 127.993 134.062C125.246 134.648 123.277 135.635 123.874 136.172C124.01 136.355 125.322 136.096 126.813 135.639C129.173 134.884 129.62 134.986 132.424 136.67C136.006 138.755 137.331 138.748 144.688 136.973C147.618 136.25 150.547 135.528 151.296 135.363C151.982 135.2 154.594 133.232 157.066 131.019C160.44 127.937 161.968 126.973 163.542 126.89C166.061 126.758 166.11 126.502 163.804 124.666C162.028 123.307 161.955 123.122 161.776 117.323C161.658 112.657 161.396 111.281 160.687 111.003C160.173 110.84 159.931 111.043 160.146 111.536Z" fill="#C89E67"/>
<path d="M136.263 150.864C136.859 155 136.816 156.58 136.054 158.893C135.513 160.627 135.301 162.595 135.556 163.844C135.805 164.968 136.477 168.153 137 170.903C139.753 184.838 144.312 195.9 148.792 199.453C149.979 200.401 151.751 202.897 152.951 205.296C154.084 207.636 155.863 210.257 156.983 211.145C158.044 212.1 159.17 213.114 159.436 213.353C167.286 220.959 178.158 229.606 179.334 229.165C179.52 229.092 180.312 230.945 181.004 233.307C182.223 237.284 182.25 237.788 181.458 240.734C179.757 246.821 173.782 253.26 169.563 253.482C167.548 253.587 167.512 254.094 169.364 256.901C171.282 259.768 174.036 260.507 178.52 259.325C181.572 258.533 182.182 258.122 183.985 255.186C186.905 250.676 187.548 250.895 187.332 256.399L187.186 260.827L188.876 260.548C190.254 260.35 190.665 259.76 191.189 257.712C191.557 256.303 192.207 254.249 192.721 253.212C193.231 252.111 193.606 250.829 193.516 250.329C193.473 249.51 193.41 249.513 193.138 250.348C192.976 250.862 192.456 251.773 191.982 252.366C191.571 252.956 190.901 254.633 190.537 256.104C189.612 260.131 188.704 259.673 188.26 254.835C187.919 250.749 187.912 250.623 189.576 249.841C193.278 248.194 195.588 246.495 195.783 245.411C195.913 244.268 195.85 244.271 194.829 245.272C194.166 245.875 192.078 246.995 190.096 247.73C186.441 249.059 184.88 250.593 183.004 254.543C181.635 257.33 174.086 260.252 173.287 258.274C173.145 257.966 172.565 257.743 172.061 257.77C171.495 257.8 171.17 257.627 171.412 257.425C171.588 257.163 171.369 256.607 170.839 256.129C169.45 254.94 169.536 254.177 171.067 254.476C172.983 254.88 175.644 253.856 175.217 252.932C175.005 252.501 176.36 250.662 178.402 248.66C180.924 246.192 182.097 244.489 182.568 242.633C182.869 241.165 183.559 239.866 183.99 239.654C184.914 239.226 184.914 236.827 184.049 235.989C183.055 235.094 179.726 224.598 179.13 220.463C178.768 218.398 178.04 215.342 177.443 213.606C176.708 211.624 176.519 210.434 176.953 210.285C178.004 209.851 177.573 208.864 176.314 208.93C175.684 208.963 174.329 208.403 173.348 207.76C171.966 206.696 171.618 206.083 171.718 204.373C171.784 203.233 171.549 202.361 171.237 202.441C170.488 202.607 167.722 196.817 166.913 193.45L166.281 191.021L170.648 191.233C173.81 191.32 174.751 191.207 174.035 190.803C173.512 190.451 171.921 190.219 170.536 190.292C165.436 190.56 163.368 189.659 161.489 186.348C160.515 184.631 159.812 183.279 159.938 183.272C160.064 183.266 161.744 183.998 163.69 184.969C165.631 185.878 167.756 186.65 168.385 186.617C169.078 186.58 167.901 185.821 165.767 184.86C160.923 182.779 156.887 179.266 158.225 178.311C159.018 177.765 159.011 177.639 158.129 177.685C156.052 177.794 150.405 176.071 149.146 174.937C148.483 174.341 147.903 174.118 147.923 174.496C147.969 175.378 151.14 178.052 153.931 179.484C155.942 180.515 156.293 181.191 157.956 186.407L159.779 192.246L161.711 191.766C163.58 191.289 163.649 191.412 163.888 193.546C164.146 196.058 168.019 203.683 168.964 203.634C169.342 203.614 169.693 204.29 169.736 205.108C169.815 206.62 172.705 209.94 174.368 210.358C174.945 210.517 175.571 212.82 176.383 217.45C177.025 221.268 177.78 224.827 178.065 225.443C178.35 226.06 176.216 225.098 172.565 222.891C169.241 220.919 166.351 218.798 166.196 218.238C165.974 217.618 164.989 216.912 164.025 216.584C161.974 215.997 160.479 213.992 160.831 212.269C160.977 211.441 160.778 211.262 159.906 211.497C159.101 211.792 158.438 211.195 157.464 209.479C155.45 205.986 153.796 200.958 154.085 199.238C154.393 197.896 154.327 197.837 153.236 198.715C152.209 199.589 152.209 199.589 153.28 198.334C153.936 197.605 156.388 196.213 158.678 195.335C161.031 194.454 162.821 193.665 162.688 193.546C162.161 193.131 153.919 194.89 153.197 195.56C152.537 196.226 152.024 196.063 150.894 194.986C149.237 193.495 144.704 185.336 144.625 183.825C144.545 182.313 146.235 183.235 148.267 185.843C149.284 187.179 150.215 188.077 150.334 187.944C150.454 187.812 149.32 185.472 147.786 182.711C146.193 180.017 144.135 175.706 143.118 173.17L141.299 168.594L142.83 165.293C144.471 161.671 145.458 161.24 144.003 164.79C143.499 166.016 143.151 167.802 143.204 168.809C143.353 170.443 143.416 170.44 144.116 168.13C144.487 166.785 145.929 164.183 147.288 162.407C148.643 160.568 149.568 158.941 149.369 158.762C149.104 158.523 146.95 158.384 144.554 158.447C139.951 158.562 138.211 157.896 138.112 156.007C138.062 155.063 138.748 154.9 143.596 154.646C148.196 154.467 149.754 154.069 153.267 152.433C158.317 150.021 158.347 149.388 153.34 151.419C145.92 154.397 140.054 153.316 137.211 148.478L135.551 145.724L136.263 150.864Z" fill="#C89E67"/>
</g>
</svg>
