<svg width="50" height="51" viewBox="0 0 50 51" fill="none" xmlns="http://www.w3.org/2000/svg">
<path d="M25 0.392578C20.0556 0.392578 15.222 1.8588 11.1107 4.60582C6.99953 7.35285 3.79522 11.2573 1.90303 15.8255C0.0108423 20.3935 -0.484252 25.4204 0.480373 30.2697C1.445 35.1194 3.82603 39.5738 7.32234 43.0704C10.8187 46.5666 15.2732 48.9475 20.1228 49.9122C24.9722 50.8769 29.9991 50.3816 34.5672 48.4894C39.1353 46.5972 43.0397 43.3932 45.7869 39.2819C48.5338 35.1707 50 30.3372 50 25.3926C50 18.7622 47.3659 12.4033 42.6778 7.71492C37.9894 3.02648 31.6303 0.392578 25 0.392578ZM37.2813 17.5176L33.1875 36.8613C32.875 38.2363 32.0625 38.5488 30.9063 37.9238L24.6563 33.2988L21.5313 36.205C21.3841 36.3972 21.195 36.5535 20.9784 36.6619C20.7619 36.77 20.5234 36.8275 20.2812 36.83L20.7188 30.5801L32.2812 20.1113C32.8125 19.6738 32.2812 19.4238 31.5312 19.8613L17.3438 28.7676L11.0937 26.8301C9.75 26.4238 9.71875 25.4863 11.375 24.8613L35.4688 15.4863C36.6563 15.1426 37.6563 15.8301 37.2813 17.5176Z" fill="#C89E67"/>
</svg>
