<svg width="50" height="56" viewBox="0 0 50 56" fill="none" xmlns="http://www.w3.org/2000/svg">
<g clip-path="url(#clip0_145_4038)">
<path d="M25 0.392578C11.1933 0.392578 0 11.3981 0 24.9742C0 38.5503 11.1933 49.5558 25 49.5558C38.8066 49.5558 50 38.5503 50 24.9742C50 11.3981 38.8066 0.392578 25 0.392578ZM37.6813 27.6328C38.8465 28.7519 40.0793 29.805 41.1253 31.0398C41.5887 31.586 42.0256 32.1508 42.3581 32.786C42.8327 33.6918 42.4041 34.6852 41.5795 34.739L36.4578 34.738C35.135 34.8456 34.0824 34.321 33.1949 33.4318C32.4864 32.7231 31.8292 31.9662 31.1468 31.2334C30.868 30.9326 30.5744 30.6495 30.2246 30.4267C29.5263 29.9801 28.9197 30.1169 28.5197 30.8341C28.112 31.5638 28.0189 32.3726 27.9801 33.1849C27.9243 34.3723 27.5601 34.6826 26.3483 34.7385C23.7591 34.8577 21.3023 34.4714 19.0189 33.1879C17.0046 32.0557 15.4455 30.4579 14.087 28.6488C11.4414 25.1221 9.41534 21.2514 7.59488 17.2695C7.18517 16.3728 7.48491 15.893 8.49105 15.8744C10.1627 15.8427 11.8343 15.8467 13.5059 15.8728C14.1862 15.8834 14.6363 16.2662 14.8977 16.8974C15.801 19.0827 16.9084 21.1619 18.2962 23.0902C18.666 23.6037 19.0435 24.1157 19.5811 24.4783C20.1744 24.8787 20.6266 24.7464 20.9064 24.0951C21.0854 23.6811 21.1627 23.2385 21.2015 22.7949C21.3345 21.2755 21.3504 19.7566 21.1202 18.2432C20.977 17.2962 20.4353 16.6846 19.4752 16.5056C18.9862 16.4145 19.0578 16.2365 19.2957 15.9619C19.7084 15.4871 20.0951 15.1934 20.868 15.1934L26.6547 15.1924C27.5668 15.3684 27.7714 15.7707 27.8951 16.674L27.9003 22.9971C27.8895 23.3467 28.0788 24.3827 28.7171 24.6116C29.2286 24.7776 29.5662 24.3742 29.8721 24.0558C31.2598 22.6078 32.2486 20.8988 33.134 19.1299C33.5248 18.3499 33.8619 17.5426 34.1893 16.7339C34.4327 16.1359 34.8113 15.8417 35.4977 15.8517L41.0701 15.8583C41.2343 15.8583 41.401 15.8598 41.5637 15.8874C42.5028 16.0454 42.7601 16.4427 42.4696 17.3435C42.0123 18.7588 41.1238 19.9377 40.2552 21.1196C39.3243 22.385 38.3315 23.6062 37.4097 24.8771C36.5627 26.039 36.6297 26.6239 37.6813 27.6328Z" fill="#C89E67"/>
</g>
<defs>
<clipPath id="clip0_145_4038">
<rect width="50" height="55" fill="white" transform="translate(0 0.392578)"/>
</clipPath>
</defs>
</svg>
